G04 #@! TF.FileFunction,Drawing*
%FSLAX46Y46*%
G04 Gerber Fmt 4.6, Leading zero omitted, Abs format (unit mm)*
G04 Created by KiCad (PCBNEW 4.0.7) date 07/03/19 12:58:59*
%MOMM*%
%LPD*%
G01*
G04 APERTURE LIST*
%ADD10C,0.100000*%
%ADD11C,0.150000*%
G04 APERTURE END LIST*
D10*
D11*
X194945000Y-123825000D02*
X136525000Y-123825000D01*
X194945000Y-159385000D02*
X194945000Y-123825000D01*
X136525000Y-123825000D02*
X136525000Y-159385000D01*
X151044522Y-123166143D02*
X150996903Y-123213762D01*
X150854046Y-123261381D01*
X150758808Y-123261381D01*
X150615950Y-123213762D01*
X150520712Y-123118524D01*
X150473093Y-123023286D01*
X150425474Y-122832810D01*
X150425474Y-122689952D01*
X150473093Y-122499476D01*
X150520712Y-122404238D01*
X150615950Y-122309000D01*
X150758808Y-122261381D01*
X150854046Y-122261381D01*
X150996903Y-122309000D01*
X151044522Y-122356619D01*
X151901665Y-123261381D02*
X151901665Y-122737571D01*
X151854046Y-122642333D01*
X151758808Y-122594714D01*
X151568331Y-122594714D01*
X151473093Y-122642333D01*
X151901665Y-123213762D02*
X151806427Y-123261381D01*
X151568331Y-123261381D01*
X151473093Y-123213762D01*
X151425474Y-123118524D01*
X151425474Y-123023286D01*
X151473093Y-122928048D01*
X151568331Y-122880429D01*
X151806427Y-122880429D01*
X151901665Y-122832810D01*
X152377855Y-123261381D02*
X152377855Y-122594714D01*
X152377855Y-122785190D02*
X152425474Y-122689952D01*
X152473093Y-122642333D01*
X152568331Y-122594714D01*
X152663570Y-122594714D01*
X153425475Y-123261381D02*
X153425475Y-122261381D01*
X153425475Y-123213762D02*
X153330237Y-123261381D01*
X153139760Y-123261381D01*
X153044522Y-123213762D01*
X152996903Y-123166143D01*
X152949284Y-123070905D01*
X152949284Y-122785190D01*
X152996903Y-122689952D01*
X153044522Y-122642333D01*
X153139760Y-122594714D01*
X153330237Y-122594714D01*
X153425475Y-122642333D01*
X154568332Y-122594714D02*
X154758808Y-123261381D01*
X154949285Y-122785190D01*
X155139761Y-123261381D01*
X155330237Y-122594714D01*
X155711189Y-123261381D02*
X155711189Y-122594714D01*
X155711189Y-122261381D02*
X155663570Y-122309000D01*
X155711189Y-122356619D01*
X155758808Y-122309000D01*
X155711189Y-122261381D01*
X155711189Y-122356619D01*
X156330236Y-123261381D02*
X156234998Y-123213762D01*
X156187379Y-123118524D01*
X156187379Y-122261381D01*
X156854046Y-123261381D02*
X156758808Y-123213762D01*
X156711189Y-123118524D01*
X156711189Y-122261381D01*
X157996904Y-123261381D02*
X157996904Y-122261381D01*
X157996904Y-122642333D02*
X158092142Y-122594714D01*
X158282619Y-122594714D01*
X158377857Y-122642333D01*
X158425476Y-122689952D01*
X158473095Y-122785190D01*
X158473095Y-123070905D01*
X158425476Y-123166143D01*
X158377857Y-123213762D01*
X158282619Y-123261381D01*
X158092142Y-123261381D01*
X157996904Y-123213762D01*
X159282619Y-123213762D02*
X159187381Y-123261381D01*
X158996904Y-123261381D01*
X158901666Y-123213762D01*
X158854047Y-123118524D01*
X158854047Y-122737571D01*
X158901666Y-122642333D01*
X158996904Y-122594714D01*
X159187381Y-122594714D01*
X159282619Y-122642333D01*
X159330238Y-122737571D01*
X159330238Y-122832810D01*
X158854047Y-122928048D01*
X160520714Y-123261381D02*
X160520714Y-122594714D01*
X160520714Y-122261381D02*
X160473095Y-122309000D01*
X160520714Y-122356619D01*
X160568333Y-122309000D01*
X160520714Y-122261381D01*
X160520714Y-122356619D01*
X160996904Y-122594714D02*
X160996904Y-123261381D01*
X160996904Y-122689952D02*
X161044523Y-122642333D01*
X161139761Y-122594714D01*
X161282619Y-122594714D01*
X161377857Y-122642333D01*
X161425476Y-122737571D01*
X161425476Y-123261381D01*
X161854047Y-123213762D02*
X161949285Y-123261381D01*
X162139761Y-123261381D01*
X162235000Y-123213762D01*
X162282619Y-123118524D01*
X162282619Y-123070905D01*
X162235000Y-122975667D01*
X162139761Y-122928048D01*
X161996904Y-122928048D01*
X161901666Y-122880429D01*
X161854047Y-122785190D01*
X161854047Y-122737571D01*
X161901666Y-122642333D01*
X161996904Y-122594714D01*
X162139761Y-122594714D01*
X162235000Y-122642333D01*
X162711190Y-123261381D02*
X162711190Y-122594714D01*
X162711190Y-122261381D02*
X162663571Y-122309000D01*
X162711190Y-122356619D01*
X162758809Y-122309000D01*
X162711190Y-122261381D01*
X162711190Y-122356619D01*
X163615952Y-123261381D02*
X163615952Y-122261381D01*
X163615952Y-123213762D02*
X163520714Y-123261381D01*
X163330237Y-123261381D01*
X163234999Y-123213762D01*
X163187380Y-123166143D01*
X163139761Y-123070905D01*
X163139761Y-122785190D01*
X163187380Y-122689952D01*
X163234999Y-122642333D01*
X163330237Y-122594714D01*
X163520714Y-122594714D01*
X163615952Y-122642333D01*
X164473095Y-123213762D02*
X164377857Y-123261381D01*
X164187380Y-123261381D01*
X164092142Y-123213762D01*
X164044523Y-123118524D01*
X164044523Y-122737571D01*
X164092142Y-122642333D01*
X164187380Y-122594714D01*
X164377857Y-122594714D01*
X164473095Y-122642333D01*
X164520714Y-122737571D01*
X164520714Y-122832810D01*
X164044523Y-122928048D01*
X166282619Y-123166143D02*
X166235000Y-123213762D01*
X166092143Y-123261381D01*
X165996905Y-123261381D01*
X165854047Y-123213762D01*
X165758809Y-123118524D01*
X165711190Y-123023286D01*
X165663571Y-122832810D01*
X165663571Y-122689952D01*
X165711190Y-122499476D01*
X165758809Y-122404238D01*
X165854047Y-122309000D01*
X165996905Y-122261381D01*
X166092143Y-122261381D01*
X166235000Y-122309000D01*
X166282619Y-122356619D01*
X167139762Y-122261381D02*
X166949285Y-122261381D01*
X166854047Y-122309000D01*
X166806428Y-122356619D01*
X166711190Y-122499476D01*
X166663571Y-122689952D01*
X166663571Y-123070905D01*
X166711190Y-123166143D01*
X166758809Y-123213762D01*
X166854047Y-123261381D01*
X167044524Y-123261381D01*
X167139762Y-123213762D01*
X167187381Y-123166143D01*
X167235000Y-123070905D01*
X167235000Y-122832810D01*
X167187381Y-122737571D01*
X167139762Y-122689952D01*
X167044524Y-122642333D01*
X166854047Y-122642333D01*
X166758809Y-122689952D01*
X166711190Y-122737571D01*
X166663571Y-122832810D01*
X168092143Y-122594714D02*
X168092143Y-123261381D01*
X167854047Y-122213762D02*
X167615952Y-122928048D01*
X168235000Y-122928048D01*
X169806429Y-122594714D02*
X169806429Y-123261381D01*
X169377857Y-122594714D02*
X169377857Y-123118524D01*
X169425476Y-123213762D01*
X169520714Y-123261381D01*
X169663572Y-123261381D01*
X169758810Y-123213762D01*
X169806429Y-123166143D01*
X170282619Y-122594714D02*
X170282619Y-123594714D01*
X170282619Y-122642333D02*
X170377857Y-122594714D01*
X170568334Y-122594714D01*
X170663572Y-122642333D01*
X170711191Y-122689952D01*
X170758810Y-122785190D01*
X170758810Y-123070905D01*
X170711191Y-123166143D01*
X170663572Y-123213762D01*
X170568334Y-123261381D01*
X170377857Y-123261381D01*
X170282619Y-123213762D01*
X171806429Y-122594714D02*
X172187381Y-122594714D01*
X171949286Y-122261381D02*
X171949286Y-123118524D01*
X171996905Y-123213762D01*
X172092143Y-123261381D01*
X172187381Y-123261381D01*
X172663572Y-123261381D02*
X172568334Y-123213762D01*
X172520715Y-123166143D01*
X172473096Y-123070905D01*
X172473096Y-122785190D01*
X172520715Y-122689952D01*
X172568334Y-122642333D01*
X172663572Y-122594714D01*
X172806430Y-122594714D01*
X172901668Y-122642333D01*
X172949287Y-122689952D01*
X172996906Y-122785190D01*
X172996906Y-123070905D01*
X172949287Y-123166143D01*
X172901668Y-123213762D01*
X172806430Y-123261381D01*
X172663572Y-123261381D01*
X174044525Y-122594714D02*
X174425477Y-122594714D01*
X174187382Y-122261381D02*
X174187382Y-123118524D01*
X174235001Y-123213762D01*
X174330239Y-123261381D01*
X174425477Y-123261381D01*
X174758811Y-123261381D02*
X174758811Y-122261381D01*
X175187383Y-123261381D02*
X175187383Y-122737571D01*
X175139764Y-122642333D01*
X175044526Y-122594714D01*
X174901668Y-122594714D01*
X174806430Y-122642333D01*
X174758811Y-122689952D01*
X175663573Y-123261381D02*
X175663573Y-122594714D01*
X175663573Y-122261381D02*
X175615954Y-122309000D01*
X175663573Y-122356619D01*
X175711192Y-122309000D01*
X175663573Y-122261381D01*
X175663573Y-122356619D01*
X176092144Y-123213762D02*
X176187382Y-123261381D01*
X176377858Y-123261381D01*
X176473097Y-123213762D01*
X176520716Y-123118524D01*
X176520716Y-123070905D01*
X176473097Y-122975667D01*
X176377858Y-122928048D01*
X176235001Y-122928048D01*
X176139763Y-122880429D01*
X176092144Y-122785190D01*
X176092144Y-122737571D01*
X176139763Y-122642333D01*
X176235001Y-122594714D01*
X176377858Y-122594714D01*
X176473097Y-122642333D01*
X177711192Y-122594714D02*
X177711192Y-123594714D01*
X177711192Y-122642333D02*
X177806430Y-122594714D01*
X177996907Y-122594714D01*
X178092145Y-122642333D01*
X178139764Y-122689952D01*
X178187383Y-122785190D01*
X178187383Y-123070905D01*
X178139764Y-123166143D01*
X178092145Y-123213762D01*
X177996907Y-123261381D01*
X177806430Y-123261381D01*
X177711192Y-123213762D01*
X178758811Y-123261381D02*
X178663573Y-123213762D01*
X178615954Y-123166143D01*
X178568335Y-123070905D01*
X178568335Y-122785190D01*
X178615954Y-122689952D01*
X178663573Y-122642333D01*
X178758811Y-122594714D01*
X178901669Y-122594714D01*
X178996907Y-122642333D01*
X179044526Y-122689952D01*
X179092145Y-122785190D01*
X179092145Y-123070905D01*
X179044526Y-123166143D01*
X178996907Y-123213762D01*
X178901669Y-123261381D01*
X178758811Y-123261381D01*
X179520716Y-123261381D02*
X179520716Y-122594714D01*
X179520716Y-122261381D02*
X179473097Y-122309000D01*
X179520716Y-122356619D01*
X179568335Y-122309000D01*
X179520716Y-122261381D01*
X179520716Y-122356619D01*
X179996906Y-122594714D02*
X179996906Y-123261381D01*
X179996906Y-122689952D02*
X180044525Y-122642333D01*
X180139763Y-122594714D01*
X180282621Y-122594714D01*
X180377859Y-122642333D01*
X180425478Y-122737571D01*
X180425478Y-123261381D01*
X180758811Y-122594714D02*
X181139763Y-122594714D01*
X180901668Y-122261381D02*
X180901668Y-123118524D01*
X180949287Y-123213762D01*
X181044525Y-123261381D01*
X181139763Y-123261381D01*
M02*
