G04 #@! TF.FileFunction,Soldermask,Bot*
%FSLAX46Y46*%
G04 Gerber Fmt 4.6, Leading zero omitted, Abs format (unit mm)*
G04 Created by KiCad (PCBNEW 4.0.7) date 07/03/19 12:58:59*
%MOMM*%
%LPD*%
G01*
G04 APERTURE LIST*
%ADD10C,0.100000*%
%ADD11C,2.000000*%
%ADD12O,2.000000X2.000000*%
%ADD13R,1.924000X8.400000*%
%ADD14R,58.820000X8.700000*%
%ADD15C,1.920000*%
%ADD16R,1.920000X1.920000*%
%ADD17R,2.000000X2.000000*%
%ADD18R,2.200000X2.200000*%
%ADD19C,2.200000*%
G04 APERTURE END LIST*
D10*
D11*
X226695000Y-118110000D03*
D12*
X216535000Y-118110000D03*
D11*
X165100000Y-111760000D03*
X165100000Y-116760000D03*
X195580000Y-120650000D03*
X195580000Y-115650000D03*
X165100000Y-87630000D03*
X165100000Y-92630000D03*
X149860000Y-62865000D03*
X149860000Y-67865000D03*
X195580000Y-97790000D03*
X195580000Y-102790000D03*
X168910000Y-111760000D03*
X168910000Y-116760000D03*
X165100000Y-62865000D03*
X165100000Y-67865000D03*
X180340000Y-62865000D03*
X180340000Y-67865000D03*
X210820000Y-62865000D03*
X210820000Y-67865000D03*
D13*
X151765000Y-155446726D03*
X154305000Y-155446726D03*
X156845000Y-155446726D03*
X159385000Y-155446726D03*
X161925000Y-155446726D03*
X164465000Y-155446726D03*
X141605000Y-155446726D03*
X144145000Y-155446726D03*
X146685000Y-155446726D03*
X149225000Y-155446726D03*
X139065000Y-155446726D03*
X179705000Y-155446726D03*
X182245000Y-155446726D03*
X184785000Y-155446726D03*
X187325000Y-155446726D03*
X189865000Y-155446726D03*
X192405000Y-155446726D03*
X172085000Y-155446726D03*
X174625000Y-155446726D03*
X177165000Y-155446726D03*
X169545000Y-155446726D03*
X167005000Y-155446726D03*
D14*
X165735000Y-155575000D03*
D15*
X168910000Y-107315000D03*
X171450000Y-107315000D03*
D16*
X166370000Y-107315000D03*
D11*
X172720000Y-129540000D03*
D12*
X172720000Y-119380000D03*
D11*
X168910000Y-119380000D03*
D12*
X168910000Y-129540000D03*
D11*
X165100000Y-119380000D03*
D12*
X165100000Y-129540000D03*
D11*
X226695000Y-114935000D03*
D12*
X216535000Y-114935000D03*
D17*
X138430000Y-111760000D03*
D12*
X146050000Y-127000000D03*
X138430000Y-114300000D03*
X146050000Y-124460000D03*
X138430000Y-116840000D03*
X146050000Y-121920000D03*
X138430000Y-119380000D03*
X146050000Y-119380000D03*
X138430000Y-121920000D03*
X146050000Y-116840000D03*
X138430000Y-124460000D03*
X146050000Y-114300000D03*
X138430000Y-127000000D03*
X146050000Y-111760000D03*
D17*
X138430000Y-87630000D03*
D12*
X146050000Y-102870000D03*
X138430000Y-90170000D03*
X146050000Y-100330000D03*
X138430000Y-92710000D03*
X146050000Y-97790000D03*
X138430000Y-95250000D03*
X146050000Y-95250000D03*
X138430000Y-97790000D03*
X146050000Y-92710000D03*
X138430000Y-100330000D03*
X146050000Y-90170000D03*
X138430000Y-102870000D03*
X146050000Y-87630000D03*
D17*
X153670000Y-111760000D03*
D12*
X161290000Y-129540000D03*
X153670000Y-114300000D03*
X161290000Y-127000000D03*
X153670000Y-116840000D03*
X161290000Y-124460000D03*
X153670000Y-119380000D03*
X161290000Y-121920000D03*
X153670000Y-121920000D03*
X161290000Y-119380000D03*
X153670000Y-124460000D03*
X161290000Y-116840000D03*
X153670000Y-127000000D03*
X161290000Y-114300000D03*
X153670000Y-129540000D03*
X161290000Y-111760000D03*
D17*
X207010000Y-120650000D03*
D12*
X199390000Y-97790000D03*
X207010000Y-118110000D03*
X199390000Y-100330000D03*
X207010000Y-115570000D03*
X199390000Y-102870000D03*
X207010000Y-113030000D03*
X199390000Y-105410000D03*
X207010000Y-110490000D03*
X199390000Y-107950000D03*
X207010000Y-107950000D03*
X199390000Y-110490000D03*
X207010000Y-105410000D03*
X199390000Y-113030000D03*
X207010000Y-102870000D03*
X199390000Y-115570000D03*
X207010000Y-100330000D03*
X199390000Y-118110000D03*
X207010000Y-97790000D03*
X199390000Y-120650000D03*
D17*
X153670000Y-87630000D03*
D12*
X161290000Y-102870000D03*
X153670000Y-90170000D03*
X161290000Y-100330000D03*
X153670000Y-92710000D03*
X161290000Y-97790000D03*
X153670000Y-95250000D03*
X161290000Y-95250000D03*
X153670000Y-97790000D03*
X161290000Y-92710000D03*
X153670000Y-100330000D03*
X161290000Y-90170000D03*
X153670000Y-102870000D03*
X161290000Y-87630000D03*
D17*
X138430000Y-62865000D03*
D12*
X146050000Y-78105000D03*
X138430000Y-65405000D03*
X146050000Y-75565000D03*
X138430000Y-67945000D03*
X146050000Y-73025000D03*
X138430000Y-70485000D03*
X146050000Y-70485000D03*
X138430000Y-73025000D03*
X146050000Y-67945000D03*
X138430000Y-75565000D03*
X146050000Y-65405000D03*
X138430000Y-78105000D03*
X146050000Y-62865000D03*
D17*
X184150000Y-97790000D03*
D12*
X191770000Y-120650000D03*
X184150000Y-100330000D03*
X191770000Y-118110000D03*
X184150000Y-102870000D03*
X191770000Y-115570000D03*
X184150000Y-105410000D03*
X191770000Y-113030000D03*
X184150000Y-107950000D03*
X191770000Y-110490000D03*
X184150000Y-110490000D03*
X191770000Y-107950000D03*
X184150000Y-113030000D03*
X191770000Y-105410000D03*
X184150000Y-115570000D03*
X191770000Y-102870000D03*
X184150000Y-118110000D03*
X191770000Y-100330000D03*
X184150000Y-120650000D03*
X191770000Y-97790000D03*
D17*
X153670000Y-62865000D03*
D12*
X161290000Y-78105000D03*
X153670000Y-65405000D03*
X161290000Y-75565000D03*
X153670000Y-67945000D03*
X161290000Y-73025000D03*
X153670000Y-70485000D03*
X161290000Y-70485000D03*
X153670000Y-73025000D03*
X161290000Y-67945000D03*
X153670000Y-75565000D03*
X161290000Y-65405000D03*
X153670000Y-78105000D03*
X161290000Y-62865000D03*
D17*
X168910000Y-62865000D03*
D12*
X176530000Y-80645000D03*
X168910000Y-65405000D03*
X176530000Y-78105000D03*
X168910000Y-67945000D03*
X176530000Y-75565000D03*
X168910000Y-70485000D03*
X176530000Y-73025000D03*
X168910000Y-73025000D03*
X176530000Y-70485000D03*
X168910000Y-75565000D03*
X176530000Y-67945000D03*
X168910000Y-78105000D03*
X176530000Y-65405000D03*
X168910000Y-80645000D03*
X176530000Y-62865000D03*
D17*
X199390000Y-62865000D03*
D12*
X207010000Y-85725000D03*
X199390000Y-65405000D03*
X207010000Y-83185000D03*
X199390000Y-67945000D03*
X207010000Y-80645000D03*
X199390000Y-70485000D03*
X207010000Y-78105000D03*
X199390000Y-73025000D03*
X207010000Y-75565000D03*
X199390000Y-75565000D03*
X207010000Y-73025000D03*
X199390000Y-78105000D03*
X207010000Y-70485000D03*
X199390000Y-80645000D03*
X207010000Y-67945000D03*
X199390000Y-83185000D03*
X207010000Y-65405000D03*
X199390000Y-85725000D03*
X207010000Y-62865000D03*
D17*
X216535000Y-62865000D03*
D12*
X231775000Y-111125000D03*
X216535000Y-65405000D03*
X231775000Y-108585000D03*
X216535000Y-67945000D03*
X231775000Y-106045000D03*
X216535000Y-70485000D03*
X231775000Y-103505000D03*
X216535000Y-73025000D03*
X231775000Y-100965000D03*
X216535000Y-75565000D03*
X231775000Y-98425000D03*
X216535000Y-78105000D03*
X231775000Y-95885000D03*
X216535000Y-80645000D03*
X231775000Y-93345000D03*
X216535000Y-83185000D03*
X231775000Y-90805000D03*
X216535000Y-85725000D03*
X231775000Y-88265000D03*
X216535000Y-88265000D03*
X231775000Y-85725000D03*
X216535000Y-90805000D03*
X231775000Y-83185000D03*
X216535000Y-93345000D03*
X231775000Y-80645000D03*
X216535000Y-95885000D03*
X231775000Y-78105000D03*
X216535000Y-98425000D03*
X231775000Y-75565000D03*
X216535000Y-100965000D03*
X231775000Y-73025000D03*
X216535000Y-103505000D03*
X231775000Y-70485000D03*
X216535000Y-106045000D03*
X231775000Y-67945000D03*
X216535000Y-108585000D03*
X231775000Y-65405000D03*
X216535000Y-111125000D03*
X231775000Y-62865000D03*
D17*
X184150000Y-62865000D03*
D12*
X191770000Y-85725000D03*
X184150000Y-65405000D03*
X191770000Y-83185000D03*
X184150000Y-67945000D03*
X191770000Y-80645000D03*
X184150000Y-70485000D03*
X191770000Y-78105000D03*
X184150000Y-73025000D03*
X191770000Y-75565000D03*
X184150000Y-75565000D03*
X191770000Y-73025000D03*
X184150000Y-78105000D03*
X191770000Y-70485000D03*
X184150000Y-80645000D03*
X191770000Y-67945000D03*
X184150000Y-83185000D03*
X191770000Y-65405000D03*
X184150000Y-85725000D03*
X191770000Y-62865000D03*
D11*
X212725000Y-88265000D03*
X212725000Y-93265000D03*
X195580000Y-62865000D03*
X195580000Y-67865000D03*
X149860000Y-87630000D03*
X149860000Y-92630000D03*
X149860000Y-111760000D03*
X149860000Y-116760000D03*
D18*
X231775000Y-121285000D03*
D19*
X231775000Y-118745000D03*
D11*
X226695000Y-121285000D03*
D12*
X216535000Y-121285000D03*
M02*
