G04 #@! TF.FileFunction,Legend,Bot*
%FSLAX46Y46*%
G04 Gerber Fmt 4.6, Leading zero omitted, Abs format (unit mm)*
G04 Created by KiCad (PCBNEW 4.0.7) date 07/03/19 12:58:59*
%MOMM*%
%LPD*%
G01*
G04 APERTURE LIST*
%ADD10C,0.100000*%
%ADD11C,0.150000*%
G04 APERTURE END LIST*
D10*
D11*
X175112143Y-149538571D02*
X175112143Y-150752857D01*
X175183572Y-150895714D01*
X175255000Y-150967143D01*
X175397857Y-151038571D01*
X175612143Y-151038571D01*
X175755000Y-150967143D01*
X175112143Y-150467143D02*
X175255000Y-150538571D01*
X175540714Y-150538571D01*
X175683572Y-150467143D01*
X175755000Y-150395714D01*
X175826429Y-150252857D01*
X175826429Y-149824286D01*
X175755000Y-149681429D01*
X175683572Y-149610000D01*
X175540714Y-149538571D01*
X175255000Y-149538571D01*
X175112143Y-149610000D01*
X174397857Y-150538571D02*
X174397857Y-149538571D01*
X174397857Y-149038571D02*
X174469286Y-149110000D01*
X174397857Y-149181429D01*
X174326429Y-149110000D01*
X174397857Y-149038571D01*
X174397857Y-149181429D01*
X173897857Y-149538571D02*
X173326428Y-149538571D01*
X173683571Y-149038571D02*
X173683571Y-150324286D01*
X173612143Y-150467143D01*
X173469285Y-150538571D01*
X173326428Y-150538571D01*
X172826428Y-150538571D02*
X172826428Y-149038571D01*
X172183571Y-150538571D02*
X172183571Y-149752857D01*
X172255000Y-149610000D01*
X172397857Y-149538571D01*
X172612142Y-149538571D01*
X172755000Y-149610000D01*
X172826428Y-149681429D01*
X170826428Y-149538571D02*
X170826428Y-150538571D01*
X171469285Y-149538571D02*
X171469285Y-150324286D01*
X171397857Y-150467143D01*
X171254999Y-150538571D01*
X171040714Y-150538571D01*
X170897857Y-150467143D01*
X170826428Y-150395714D01*
X170112142Y-150538571D02*
X170112142Y-149038571D01*
X170112142Y-149610000D02*
X169969285Y-149538571D01*
X169683571Y-149538571D01*
X169540714Y-149610000D01*
X169469285Y-149681429D01*
X169397856Y-149824286D01*
X169397856Y-150252857D01*
X169469285Y-150395714D01*
X169540714Y-150467143D01*
X169683571Y-150538571D01*
X169969285Y-150538571D01*
X170112142Y-150467143D01*
X168754999Y-150395714D02*
X168683571Y-150467143D01*
X168754999Y-150538571D01*
X168826428Y-150467143D01*
X168754999Y-150395714D01*
X168754999Y-150538571D01*
X167397856Y-150467143D02*
X167540713Y-150538571D01*
X167826427Y-150538571D01*
X167969285Y-150467143D01*
X168040713Y-150395714D01*
X168112142Y-150252857D01*
X168112142Y-149824286D01*
X168040713Y-149681429D01*
X167969285Y-149610000D01*
X167826427Y-149538571D01*
X167540713Y-149538571D01*
X167397856Y-149610000D01*
X166540713Y-150538571D02*
X166683571Y-150467143D01*
X166754999Y-150395714D01*
X166826428Y-150252857D01*
X166826428Y-149824286D01*
X166754999Y-149681429D01*
X166683571Y-149610000D01*
X166540713Y-149538571D01*
X166326428Y-149538571D01*
X166183571Y-149610000D01*
X166112142Y-149681429D01*
X166040713Y-149824286D01*
X166040713Y-150252857D01*
X166112142Y-150395714D01*
X166183571Y-150467143D01*
X166326428Y-150538571D01*
X166540713Y-150538571D01*
X165397856Y-150538571D02*
X165397856Y-149538571D01*
X165397856Y-149681429D02*
X165326428Y-149610000D01*
X165183570Y-149538571D01*
X164969285Y-149538571D01*
X164826428Y-149610000D01*
X164754999Y-149752857D01*
X164754999Y-150538571D01*
X164754999Y-149752857D02*
X164683570Y-149610000D01*
X164540713Y-149538571D01*
X164326428Y-149538571D01*
X164183570Y-149610000D01*
X164112142Y-149752857D01*
X164112142Y-150538571D01*
X162326428Y-148967143D02*
X163612142Y-150895714D01*
X162040713Y-149538571D02*
X161469284Y-149538571D01*
X161826427Y-149038571D02*
X161826427Y-150324286D01*
X161754999Y-150467143D01*
X161612141Y-150538571D01*
X161469284Y-150538571D01*
X160397856Y-150467143D02*
X160540713Y-150538571D01*
X160826427Y-150538571D01*
X160969284Y-150467143D01*
X161040713Y-150324286D01*
X161040713Y-149752857D01*
X160969284Y-149610000D01*
X160826427Y-149538571D01*
X160540713Y-149538571D01*
X160397856Y-149610000D01*
X160326427Y-149752857D01*
X160326427Y-149895714D01*
X161040713Y-150038571D01*
X159683570Y-150538571D02*
X159683570Y-149038571D01*
X159683570Y-149610000D02*
X159540713Y-149538571D01*
X159254999Y-149538571D01*
X159112142Y-149610000D01*
X159040713Y-149681429D01*
X158969284Y-149824286D01*
X158969284Y-150252857D01*
X159040713Y-150395714D01*
X159112142Y-150467143D01*
X159254999Y-150538571D01*
X159540713Y-150538571D01*
X159683570Y-150467143D01*
X158112141Y-150538571D02*
X158254999Y-150467143D01*
X158326427Y-150324286D01*
X158326427Y-149038571D01*
M02*
