M48
;DRILL file {KiCad 4.0.7} date 07/03/19 12:59:04
;FORMAT={2:4/ absolute / inch / suppress leading zeros}
FMAT,2
INCH,TZ
T1C0.016
T2C0.031
T3C0.035
%
G90
G05
M72
T1
X54750Y-59000
X55000Y-33250
X55250Y-29000
X55250Y-33000
X55250Y-34000
X55250Y-34750
X55500Y-32750
X55500Y-33750
X55500Y-39250
X55750Y-29500
X55750Y-30000
X55750Y-34000
X55750Y-39000
X55750Y-40000
X55750Y-42000
X56000Y-32750
X56000Y-33750
X56000Y-35000
X56000Y-38750
X56000Y-39750
X56000Y-42750
X56000Y-43250
X56250Y-30000
X56250Y-35750
X56250Y-38500
X56250Y-40000
X56250Y-42500
X56250Y-43500
X56250Y-46750
X56500Y-38250
X56500Y-39750
X56500Y-42750
X56500Y-43250
X56500Y-49250
X56750Y-42500
X56750Y-59000
X57000Y-28250
X57000Y-42750
X57000Y-43500
X57000Y-50500
X57000Y-59250
X57500Y-51000
X57750Y-43250
X58000Y-28250
X58250Y-51500
X58500Y-49750
X58500Y-52000
X59500Y-38000
X60000Y-38000
X60250Y-57250
X60500Y-33250
X60500Y-58500
X61250Y-27500
X61250Y-30000
X61250Y-33000
X61250Y-35250
X61250Y-36250
X61250Y-38750
X61250Y-40000
X61500Y-25750
X61500Y-29250
X61500Y-30250
X61500Y-32750
X61500Y-34500
X61500Y-36000
X61500Y-37750
X61500Y-39750
X61500Y-42750
X61750Y-30000
X61750Y-33000
X61750Y-38000
X61750Y-46250
X61750Y-58500
X62000Y-32750
X62000Y-37500
X62000Y-42750
X62000Y-43250
X62000Y-47250
X62000Y-49500
X62250Y-37750
X62250Y-40750
X62250Y-42000
X62250Y-42500
X62250Y-43500
X62250Y-45000
X62250Y-49250
X62500Y-32500
X62500Y-33500
X62500Y-42750
X62500Y-43250
X62500Y-49500
X62750Y-33000
X62750Y-35750
X63250Y-33750
X63500Y-33250
X64250Y-34000
X64500Y-57250
X65500Y-35000
X66750Y-34500
X66750Y-37000
X67000Y-34250
X67000Y-37250
X67000Y-37750
X67250Y-40250
X67500Y-40000
X67500Y-40750
X67750Y-34250
X68000Y-34000
X68000Y-39750
X68000Y-55250
X68250Y-25000
X68250Y-25500
X68250Y-39500
X68250Y-52250
X68500Y-28000
X68500Y-37750
X68500Y-55500
X68750Y-28250
X68750Y-33250
X68750Y-38000
X68750Y-52000
X68750Y-55750
X68750Y-56250
X69000Y-37750
X69000Y-52250
X69000Y-56500
X69250Y-38000
X69250Y-52000
X69250Y-56750
X69500Y-37750
X69500Y-52250
X69500Y-57000
X69750Y-38000
X69750Y-52000
X69750Y-57250
X70000Y-34000
X70000Y-37750
X70000Y-52250
X70000Y-57500
X70250Y-33500
X70250Y-52000
X70500Y-52250
X70500Y-57250
X70750Y-52000
X70750Y-57500
X71000Y-52250
X71000Y-57250
X71250Y-27750
X71250Y-28250
X71250Y-28750
X71250Y-29250
X71250Y-34000
X71250Y-57500
X71500Y-25250
X71500Y-57250
X71750Y-30500
X71750Y-57500
X72000Y-28000
X72000Y-34250
X72000Y-57250
X72250Y-34500
X72250Y-57500
X72500Y-34750
X72500Y-35250
X72500Y-57250
X72750Y-35000
X72750Y-35500
X72750Y-57000
X73000Y-26250
X73000Y-28250
X73000Y-39000
X73250Y-25500
X73250Y-38750
X74000Y-30500
X74250Y-30750
X74250Y-31500
X74500Y-32000
X74500Y-32500
X74500Y-33750
X74750Y-34000
X74750Y-39000
X74750Y-47750
X74750Y-58750
X75000Y-35750
X75000Y-55250
X75500Y-35750
X75750Y-59000
X77500Y-43250
X77500Y-46000
X77750Y-25500
X77750Y-41500
X77750Y-42250
X77750Y-44500
X79250Y-25500
X79250Y-41250
X79250Y-41750
X79500Y-36000
X79500Y-43500
X79750Y-35750
X80000Y-36000
X80250Y-35750
X80500Y-36000
X80750Y-26250
X80750Y-35750
X80750Y-46750
X80750Y-47250
X81000Y-36000
X81250Y-35750
X81500Y-36500
X81500Y-37000
X81500Y-37500
X81750Y-36750
X81750Y-37250
X82000Y-33500
X82250Y-27500
X83250Y-33000
X83500Y-33250
X83750Y-33500
X84000Y-33750
X84000Y-35500
X84250Y-29750
X84250Y-34000
X84250Y-35250
X84250Y-37500
X84500Y-36500
X86000Y-34250
X86000Y-35500
X86000Y-37250
X86000Y-39000
X86000Y-43500
X86250Y-27000
X86250Y-33250
X86250Y-36250
X86250Y-38750
X86250Y-42000
X86250Y-43250
X86500Y-26750
X86750Y-27000
X86750Y-31500
X86750Y-32250
X86750Y-39750
X86750Y-40750
X86750Y-42000
X86750Y-44250
X87000Y-41250
X87000Y-44000
X87250Y-33250
X87250Y-34250
X87500Y-31750
X87500Y-32250
X87750Y-35250
X87750Y-36000
X87750Y-36500
X87750Y-37000
X88000Y-36250
X88000Y-36750
T2
X54500Y-24750
X54500Y-25750
X54500Y-26750
X54500Y-27750
X54500Y-28750
X54500Y-29750
X54500Y-30750
X54500Y-34500
X54500Y-35500
X54500Y-36500
X54500Y-37500
X54500Y-38500
X54500Y-39500
X54500Y-40500
X54500Y-44000
X54500Y-45000
X54500Y-46000
X54500Y-47000
X54500Y-48000
X54500Y-49000
X54500Y-50000
X57500Y-24750
X57500Y-25750
X57500Y-26750
X57500Y-27750
X57500Y-28750
X57500Y-29750
X57500Y-30750
X57500Y-34500
X57500Y-35500
X57500Y-36500
X57500Y-37500
X57500Y-38500
X57500Y-39500
X57500Y-40500
X57500Y-44000
X57500Y-45000
X57500Y-46000
X57500Y-47000
X57500Y-48000
X57500Y-49000
X57500Y-50000
X59000Y-24750
X59000Y-26719
X59000Y-34500
X59000Y-36469
X59000Y-44000
X59000Y-45969
X60500Y-24750
X60500Y-25750
X60500Y-26750
X60500Y-27750
X60500Y-28750
X60500Y-29750
X60500Y-30750
X60500Y-34500
X60500Y-35500
X60500Y-36500
X60500Y-37500
X60500Y-38500
X60500Y-39500
X60500Y-40500
X60500Y-44000
X60500Y-45000
X60500Y-46000
X60500Y-47000
X60500Y-48000
X60500Y-49000
X60500Y-50000
X60500Y-51000
X63500Y-24750
X63500Y-25750
X63500Y-26750
X63500Y-27750
X63500Y-28750
X63500Y-29750
X63500Y-30750
X63500Y-34500
X63500Y-35500
X63500Y-36500
X63500Y-37500
X63500Y-38500
X63500Y-39500
X63500Y-40500
X63500Y-44000
X63500Y-45000
X63500Y-46000
X63500Y-47000
X63500Y-48000
X63500Y-49000
X63500Y-50000
X63500Y-51000
X65000Y-24750
X65000Y-26719
X65000Y-34500
X65000Y-36469
X65000Y-44000
X65000Y-45969
X65000Y-47000
X65000Y-51000
X65500Y-42250
X66500Y-24750
X66500Y-25750
X66500Y-26750
X66500Y-27750
X66500Y-28750
X66500Y-29750
X66500Y-30750
X66500Y-31750
X66500Y-42250
X66500Y-44000
X66500Y-45969
X66500Y-47000
X66500Y-51000
X67500Y-42250
X68000Y-47000
X68000Y-51000
X69500Y-24750
X69500Y-25750
X69500Y-26750
X69500Y-27750
X69500Y-28750
X69500Y-29750
X69500Y-30750
X69500Y-31750
X71000Y-24750
X71000Y-26719
X72500Y-24750
X72500Y-25750
X72500Y-26750
X72500Y-27750
X72500Y-28750
X72500Y-29750
X72500Y-30750
X72500Y-31750
X72500Y-32750
X72500Y-33750
X72500Y-38500
X72500Y-39500
X72500Y-40500
X72500Y-41500
X72500Y-42500
X72500Y-43500
X72500Y-44500
X72500Y-45500
X72500Y-46500
X72500Y-47500
X75500Y-24750
X75500Y-25750
X75500Y-26750
X75500Y-27750
X75500Y-28750
X75500Y-29750
X75500Y-30750
X75500Y-31750
X75500Y-32750
X75500Y-33750
X75500Y-38500
X75500Y-39500
X75500Y-40500
X75500Y-41500
X75500Y-42500
X75500Y-43500
X75500Y-44500
X75500Y-45500
X75500Y-46500
X75500Y-47500
X77000Y-24750
X77000Y-26719
X77000Y-38500
X77000Y-40469
X77000Y-45531
X77000Y-47500
X78500Y-24750
X78500Y-25750
X78500Y-26750
X78500Y-27750
X78500Y-28750
X78500Y-29750
X78500Y-30750
X78500Y-31750
X78500Y-32750
X78500Y-33750
X78500Y-38500
X78500Y-39500
X78500Y-40500
X78500Y-41500
X78500Y-42500
X78500Y-43500
X78500Y-44500
X78500Y-45500
X78500Y-46500
X78500Y-47500
X81500Y-24750
X81500Y-25750
X81500Y-26750
X81500Y-27750
X81500Y-28750
X81500Y-29750
X81500Y-30750
X81500Y-31750
X81500Y-32750
X81500Y-33750
X81500Y-38500
X81500Y-39500
X81500Y-40500
X81500Y-41500
X81500Y-42500
X81500Y-43500
X81500Y-44500
X81500Y-45500
X81500Y-46500
X81500Y-47500
X83000Y-24750
X83000Y-26719
X83750Y-34750
X83750Y-36719
X85250Y-24750
X85250Y-25750
X85250Y-26750
X85250Y-27750
X85250Y-28750
X85250Y-29750
X85250Y-30750
X85250Y-31750
X85250Y-32750
X85250Y-33750
X85250Y-34750
X85250Y-35750
X85250Y-36750
X85250Y-37750
X85250Y-38750
X85250Y-39750
X85250Y-40750
X85250Y-41750
X85250Y-42750
X85250Y-43750
X85250Y-45250
X85250Y-46500
X85250Y-47750
X89250Y-45250
X89250Y-46500
X89250Y-47750
X91250Y-24750
X91250Y-25750
X91250Y-26750
X91250Y-27750
X91250Y-28750
X91250Y-29750
X91250Y-30750
X91250Y-31750
X91250Y-32750
X91250Y-33750
X91250Y-34750
X91250Y-35750
X91250Y-36750
X91250Y-37750
X91250Y-38750
X91250Y-39750
X91250Y-40750
X91250Y-41750
X91250Y-42750
X91250Y-43750
T3
X91250Y-46750
X91250Y-47750
T0
M30
