G04 #@! TF.FileFunction,Legend,Top*
%FSLAX46Y46*%
G04 Gerber Fmt 4.6, Leading zero omitted, Abs format (unit mm)*
G04 Created by KiCad (PCBNEW 4.0.7) date 07/03/19 12:58:59*
%MOMM*%
%LPD*%
G01*
G04 APERTURE LIST*
%ADD10C,0.100000*%
%ADD11C,0.150000*%
%ADD12C,0.120000*%
G04 APERTURE END LIST*
D10*
D11*
X159647858Y-135860714D02*
X159576429Y-135932143D01*
X159362143Y-136003571D01*
X159219286Y-136003571D01*
X159005001Y-135932143D01*
X158862143Y-135789286D01*
X158790715Y-135646429D01*
X158719286Y-135360714D01*
X158719286Y-135146429D01*
X158790715Y-134860714D01*
X158862143Y-134717857D01*
X159005001Y-134575000D01*
X159219286Y-134503571D01*
X159362143Y-134503571D01*
X159576429Y-134575000D01*
X159647858Y-134646429D01*
X160505001Y-136003571D02*
X160362143Y-135932143D01*
X160290715Y-135860714D01*
X160219286Y-135717857D01*
X160219286Y-135289286D01*
X160290715Y-135146429D01*
X160362143Y-135075000D01*
X160505001Y-135003571D01*
X160719286Y-135003571D01*
X160862143Y-135075000D01*
X160933572Y-135146429D01*
X161005001Y-135289286D01*
X161005001Y-135717857D01*
X160933572Y-135860714D01*
X160862143Y-135932143D01*
X160719286Y-136003571D01*
X160505001Y-136003571D01*
X161647858Y-136003571D02*
X161647858Y-135003571D01*
X161647858Y-135146429D02*
X161719286Y-135075000D01*
X161862144Y-135003571D01*
X162076429Y-135003571D01*
X162219286Y-135075000D01*
X162290715Y-135217857D01*
X162290715Y-136003571D01*
X162290715Y-135217857D02*
X162362144Y-135075000D01*
X162505001Y-135003571D01*
X162719286Y-135003571D01*
X162862144Y-135075000D01*
X162933572Y-135217857D01*
X162933572Y-136003571D01*
X163647858Y-136003571D02*
X163647858Y-135003571D01*
X163647858Y-135146429D02*
X163719286Y-135075000D01*
X163862144Y-135003571D01*
X164076429Y-135003571D01*
X164219286Y-135075000D01*
X164290715Y-135217857D01*
X164290715Y-136003571D01*
X164290715Y-135217857D02*
X164362144Y-135075000D01*
X164505001Y-135003571D01*
X164719286Y-135003571D01*
X164862144Y-135075000D01*
X164933572Y-135217857D01*
X164933572Y-136003571D01*
X165862144Y-136003571D02*
X165719286Y-135932143D01*
X165647858Y-135860714D01*
X165576429Y-135717857D01*
X165576429Y-135289286D01*
X165647858Y-135146429D01*
X165719286Y-135075000D01*
X165862144Y-135003571D01*
X166076429Y-135003571D01*
X166219286Y-135075000D01*
X166290715Y-135146429D01*
X166362144Y-135289286D01*
X166362144Y-135717857D01*
X166290715Y-135860714D01*
X166219286Y-135932143D01*
X166076429Y-136003571D01*
X165862144Y-136003571D01*
X167647858Y-136003571D02*
X167647858Y-134503571D01*
X167647858Y-135932143D02*
X167505001Y-136003571D01*
X167219287Y-136003571D01*
X167076429Y-135932143D01*
X167005001Y-135860714D01*
X166933572Y-135717857D01*
X166933572Y-135289286D01*
X167005001Y-135146429D01*
X167076429Y-135075000D01*
X167219287Y-135003571D01*
X167505001Y-135003571D01*
X167647858Y-135075000D01*
X168576430Y-136003571D02*
X168433572Y-135932143D01*
X168362144Y-135860714D01*
X168290715Y-135717857D01*
X168290715Y-135289286D01*
X168362144Y-135146429D01*
X168433572Y-135075000D01*
X168576430Y-135003571D01*
X168790715Y-135003571D01*
X168933572Y-135075000D01*
X169005001Y-135146429D01*
X169076430Y-135289286D01*
X169076430Y-135717857D01*
X169005001Y-135860714D01*
X168933572Y-135932143D01*
X168790715Y-136003571D01*
X168576430Y-136003571D01*
X169719287Y-136003571D02*
X169719287Y-135003571D01*
X169719287Y-135289286D02*
X169790715Y-135146429D01*
X169862144Y-135075000D01*
X170005001Y-135003571D01*
X170147858Y-135003571D01*
X171219286Y-135932143D02*
X171076429Y-136003571D01*
X170790715Y-136003571D01*
X170647858Y-135932143D01*
X170576429Y-135789286D01*
X170576429Y-135217857D01*
X170647858Y-135075000D01*
X170790715Y-135003571D01*
X171076429Y-135003571D01*
X171219286Y-135075000D01*
X171290715Y-135217857D01*
X171290715Y-135360714D01*
X170576429Y-135503571D01*
X173719286Y-134503571D02*
X173433572Y-134503571D01*
X173290715Y-134575000D01*
X173219286Y-134646429D01*
X173076429Y-134860714D01*
X173005000Y-135146429D01*
X173005000Y-135717857D01*
X173076429Y-135860714D01*
X173147857Y-135932143D01*
X173290715Y-136003571D01*
X173576429Y-136003571D01*
X173719286Y-135932143D01*
X173790715Y-135860714D01*
X173862143Y-135717857D01*
X173862143Y-135360714D01*
X173790715Y-135217857D01*
X173719286Y-135146429D01*
X173576429Y-135075000D01*
X173290715Y-135075000D01*
X173147857Y-135146429D01*
X173076429Y-135217857D01*
X173005000Y-135360714D01*
X175147857Y-135003571D02*
X175147857Y-136003571D01*
X174790714Y-134432143D02*
X174433571Y-135503571D01*
X175362143Y-135503571D01*
X159362143Y-138260714D02*
X159290714Y-138332143D01*
X159076428Y-138403571D01*
X158933571Y-138403571D01*
X158719286Y-138332143D01*
X158576428Y-138189286D01*
X158505000Y-138046429D01*
X158433571Y-137760714D01*
X158433571Y-137546429D01*
X158505000Y-137260714D01*
X158576428Y-137117857D01*
X158719286Y-136975000D01*
X158933571Y-136903571D01*
X159076428Y-136903571D01*
X159290714Y-136975000D01*
X159362143Y-137046429D01*
X160005000Y-138403571D02*
X160005000Y-136903571D01*
X160576428Y-136903571D01*
X160719286Y-136975000D01*
X160790714Y-137046429D01*
X160862143Y-137189286D01*
X160862143Y-137403571D01*
X160790714Y-137546429D01*
X160719286Y-137617857D01*
X160576428Y-137689286D01*
X160005000Y-137689286D01*
X162576428Y-136832143D02*
X161290714Y-138760714D01*
X163076429Y-138403571D02*
X163076429Y-136903571D01*
X163576429Y-137975000D01*
X164076429Y-136903571D01*
X164076429Y-138403571D01*
X166790715Y-138260714D02*
X166719286Y-138332143D01*
X166505000Y-138403571D01*
X166362143Y-138403571D01*
X166147858Y-138332143D01*
X166005000Y-138189286D01*
X165933572Y-138046429D01*
X165862143Y-137760714D01*
X165862143Y-137546429D01*
X165933572Y-137260714D01*
X166005000Y-137117857D01*
X166147858Y-136975000D01*
X166362143Y-136903571D01*
X166505000Y-136903571D01*
X166719286Y-136975000D01*
X166790715Y-137046429D01*
X168076429Y-138403571D02*
X168076429Y-137617857D01*
X168005000Y-137475000D01*
X167862143Y-137403571D01*
X167576429Y-137403571D01*
X167433572Y-137475000D01*
X168076429Y-138332143D02*
X167933572Y-138403571D01*
X167576429Y-138403571D01*
X167433572Y-138332143D01*
X167362143Y-138189286D01*
X167362143Y-138046429D01*
X167433572Y-137903571D01*
X167576429Y-137832143D01*
X167933572Y-137832143D01*
X168076429Y-137760714D01*
X168790715Y-138403571D02*
X168790715Y-137403571D01*
X168790715Y-137689286D02*
X168862143Y-137546429D01*
X168933572Y-137475000D01*
X169076429Y-137403571D01*
X169219286Y-137403571D01*
X169505000Y-137403571D02*
X170076429Y-137403571D01*
X169719286Y-136903571D02*
X169719286Y-138189286D01*
X169790714Y-138332143D01*
X169933572Y-138403571D01*
X170076429Y-138403571D01*
X170576429Y-138403571D02*
X170576429Y-137403571D01*
X170576429Y-137689286D02*
X170647857Y-137546429D01*
X170719286Y-137475000D01*
X170862143Y-137403571D01*
X171005000Y-137403571D01*
X171505000Y-138403571D02*
X171505000Y-137403571D01*
X171505000Y-136903571D02*
X171433571Y-136975000D01*
X171505000Y-137046429D01*
X171576428Y-136975000D01*
X171505000Y-136903571D01*
X171505000Y-137046429D01*
X172862143Y-138403571D02*
X172862143Y-136903571D01*
X172862143Y-138332143D02*
X172719286Y-138403571D01*
X172433572Y-138403571D01*
X172290714Y-138332143D01*
X172219286Y-138260714D01*
X172147857Y-138117857D01*
X172147857Y-137689286D01*
X172219286Y-137546429D01*
X172290714Y-137475000D01*
X172433572Y-137403571D01*
X172719286Y-137403571D01*
X172862143Y-137475000D01*
X174219286Y-137403571D02*
X174219286Y-138617857D01*
X174147857Y-138760714D01*
X174076429Y-138832143D01*
X173933572Y-138903571D01*
X173719286Y-138903571D01*
X173576429Y-138832143D01*
X174219286Y-138332143D02*
X174076429Y-138403571D01*
X173790715Y-138403571D01*
X173647857Y-138332143D01*
X173576429Y-138260714D01*
X173505000Y-138117857D01*
X173505000Y-137689286D01*
X173576429Y-137546429D01*
X173647857Y-137475000D01*
X173790715Y-137403571D01*
X174076429Y-137403571D01*
X174219286Y-137475000D01*
X175505000Y-138332143D02*
X175362143Y-138403571D01*
X175076429Y-138403571D01*
X174933572Y-138332143D01*
X174862143Y-138189286D01*
X174862143Y-137617857D01*
X174933572Y-137475000D01*
X175076429Y-137403571D01*
X175362143Y-137403571D01*
X175505000Y-137475000D01*
X175576429Y-137617857D01*
X175576429Y-137760714D01*
X174862143Y-137903571D01*
X230298810Y-115657381D02*
X230536905Y-116657381D01*
X230727382Y-115943095D01*
X230917858Y-116657381D01*
X231155953Y-115657381D01*
X231489286Y-116371667D02*
X231965477Y-116371667D01*
X231394048Y-116657381D02*
X231727381Y-115657381D01*
X232060715Y-116657381D01*
X232394048Y-116657381D02*
X232394048Y-115657381D01*
X232727381Y-115657381D02*
X233298810Y-115657381D01*
X233013095Y-116657381D02*
X233013095Y-115657381D01*
X230155953Y-115485000D02*
X233394048Y-115485000D01*
D12*
X224825000Y-119420000D02*
X224825000Y-116800000D01*
X224825000Y-116800000D02*
X218405000Y-116800000D01*
X218405000Y-116800000D02*
X218405000Y-119420000D01*
X218405000Y-119420000D02*
X224825000Y-119420000D01*
X225715000Y-118110000D02*
X224825000Y-118110000D01*
X217515000Y-118110000D02*
X218405000Y-118110000D01*
X166410000Y-111850000D02*
X166410000Y-116670000D01*
X163790000Y-111850000D02*
X163790000Y-116670000D01*
X166410000Y-111850000D02*
X166096000Y-111850000D01*
X164104000Y-111850000D02*
X163790000Y-111850000D01*
X166410000Y-116670000D02*
X166096000Y-116670000D01*
X164104000Y-116670000D02*
X163790000Y-116670000D01*
X194270000Y-120560000D02*
X194270000Y-115740000D01*
X196890000Y-120560000D02*
X196890000Y-115740000D01*
X194270000Y-120560000D02*
X194584000Y-120560000D01*
X196576000Y-120560000D02*
X196890000Y-120560000D01*
X194270000Y-115740000D02*
X194584000Y-115740000D01*
X196576000Y-115740000D02*
X196890000Y-115740000D01*
X166410000Y-87720000D02*
X166410000Y-92540000D01*
X163790000Y-87720000D02*
X163790000Y-92540000D01*
X166410000Y-87720000D02*
X166096000Y-87720000D01*
X164104000Y-87720000D02*
X163790000Y-87720000D01*
X166410000Y-92540000D02*
X166096000Y-92540000D01*
X164104000Y-92540000D02*
X163790000Y-92540000D01*
X151170000Y-62955000D02*
X151170000Y-67775000D01*
X148550000Y-62955000D02*
X148550000Y-67775000D01*
X151170000Y-62955000D02*
X150856000Y-62955000D01*
X148864000Y-62955000D02*
X148550000Y-62955000D01*
X151170000Y-67775000D02*
X150856000Y-67775000D01*
X148864000Y-67775000D02*
X148550000Y-67775000D01*
X196890000Y-97880000D02*
X196890000Y-102700000D01*
X194270000Y-97880000D02*
X194270000Y-102700000D01*
X196890000Y-97880000D02*
X196576000Y-97880000D01*
X194584000Y-97880000D02*
X194270000Y-97880000D01*
X196890000Y-102700000D02*
X196576000Y-102700000D01*
X194584000Y-102700000D02*
X194270000Y-102700000D01*
X170220000Y-111850000D02*
X170220000Y-116670000D01*
X167600000Y-111850000D02*
X167600000Y-116670000D01*
X170220000Y-111850000D02*
X169906000Y-111850000D01*
X167914000Y-111850000D02*
X167600000Y-111850000D01*
X170220000Y-116670000D02*
X169906000Y-116670000D01*
X167914000Y-116670000D02*
X167600000Y-116670000D01*
X166410000Y-62955000D02*
X166410000Y-67775000D01*
X163790000Y-62955000D02*
X163790000Y-67775000D01*
X166410000Y-62955000D02*
X166096000Y-62955000D01*
X164104000Y-62955000D02*
X163790000Y-62955000D01*
X166410000Y-67775000D02*
X166096000Y-67775000D01*
X164104000Y-67775000D02*
X163790000Y-67775000D01*
X181650000Y-62955000D02*
X181650000Y-67775000D01*
X179030000Y-62955000D02*
X179030000Y-67775000D01*
X181650000Y-62955000D02*
X181336000Y-62955000D01*
X179344000Y-62955000D02*
X179030000Y-62955000D01*
X181650000Y-67775000D02*
X181336000Y-67775000D01*
X179344000Y-67775000D02*
X179030000Y-67775000D01*
X212130000Y-62955000D02*
X212130000Y-67775000D01*
X209510000Y-62955000D02*
X209510000Y-67775000D01*
X212130000Y-62955000D02*
X211816000Y-62955000D01*
X209824000Y-62955000D02*
X209510000Y-62955000D01*
X212130000Y-67775000D02*
X211816000Y-67775000D01*
X209824000Y-67775000D02*
X209510000Y-67775000D01*
X167110000Y-109165000D02*
X170710000Y-109165000D01*
X166585816Y-108437795D02*
G75*
G03X167110000Y-109165000I2324184J1122795D01*
G01*
X166553600Y-106216193D02*
G75*
G02X168910000Y-104715000I2356400J-1098807D01*
G01*
X171266400Y-106216193D02*
G75*
G03X168910000Y-104715000I-2356400J-1098807D01*
G01*
X171234184Y-108437795D02*
G75*
G02X170710000Y-109165000I-2324184J1122795D01*
G01*
X171410000Y-127670000D02*
X174030000Y-127670000D01*
X174030000Y-127670000D02*
X174030000Y-121250000D01*
X174030000Y-121250000D02*
X171410000Y-121250000D01*
X171410000Y-121250000D02*
X171410000Y-127670000D01*
X172720000Y-128560000D02*
X172720000Y-127670000D01*
X172720000Y-120360000D02*
X172720000Y-121250000D01*
X170220000Y-121250000D02*
X167600000Y-121250000D01*
X167600000Y-121250000D02*
X167600000Y-127670000D01*
X167600000Y-127670000D02*
X170220000Y-127670000D01*
X170220000Y-127670000D02*
X170220000Y-121250000D01*
X168910000Y-120360000D02*
X168910000Y-121250000D01*
X168910000Y-128560000D02*
X168910000Y-127670000D01*
X166410000Y-121250000D02*
X163790000Y-121250000D01*
X163790000Y-121250000D02*
X163790000Y-127670000D01*
X163790000Y-127670000D02*
X166410000Y-127670000D01*
X166410000Y-127670000D02*
X166410000Y-121250000D01*
X165100000Y-120360000D02*
X165100000Y-121250000D01*
X165100000Y-128560000D02*
X165100000Y-127670000D01*
X224825000Y-116245000D02*
X224825000Y-113625000D01*
X224825000Y-113625000D02*
X218405000Y-113625000D01*
X218405000Y-113625000D02*
X218405000Y-116245000D01*
X218405000Y-116245000D02*
X224825000Y-116245000D01*
X225715000Y-114935000D02*
X224825000Y-114935000D01*
X217515000Y-114935000D02*
X218405000Y-114935000D01*
X143240000Y-110430000D02*
G75*
G02X141240000Y-110430000I-1000000J0D01*
G01*
X141240000Y-110430000D02*
X139590000Y-110430000D01*
X139590000Y-110430000D02*
X139590000Y-128330000D01*
X139590000Y-128330000D02*
X144890000Y-128330000D01*
X144890000Y-128330000D02*
X144890000Y-110430000D01*
X144890000Y-110430000D02*
X143240000Y-110430000D01*
X137100000Y-110370000D02*
X137100000Y-128390000D01*
X137100000Y-128390000D02*
X147380000Y-128390000D01*
X147380000Y-128390000D02*
X147380000Y-110370000D01*
X147380000Y-110370000D02*
X137100000Y-110370000D01*
X143240000Y-86300000D02*
G75*
G02X141240000Y-86300000I-1000000J0D01*
G01*
X141240000Y-86300000D02*
X139590000Y-86300000D01*
X139590000Y-86300000D02*
X139590000Y-104200000D01*
X139590000Y-104200000D02*
X144890000Y-104200000D01*
X144890000Y-104200000D02*
X144890000Y-86300000D01*
X144890000Y-86300000D02*
X143240000Y-86300000D01*
X137100000Y-86240000D02*
X137100000Y-104260000D01*
X137100000Y-104260000D02*
X147380000Y-104260000D01*
X147380000Y-104260000D02*
X147380000Y-86240000D01*
X147380000Y-86240000D02*
X137100000Y-86240000D01*
X158480000Y-110430000D02*
G75*
G02X156480000Y-110430000I-1000000J0D01*
G01*
X156480000Y-110430000D02*
X154830000Y-110430000D01*
X154830000Y-110430000D02*
X154830000Y-130870000D01*
X154830000Y-130870000D02*
X160130000Y-130870000D01*
X160130000Y-130870000D02*
X160130000Y-110430000D01*
X160130000Y-110430000D02*
X158480000Y-110430000D01*
X152340000Y-110370000D02*
X152340000Y-130930000D01*
X152340000Y-130930000D02*
X162620000Y-130930000D01*
X162620000Y-130930000D02*
X162620000Y-110370000D01*
X162620000Y-110370000D02*
X152340000Y-110370000D01*
X202200000Y-121980000D02*
G75*
G02X204200000Y-121980000I1000000J0D01*
G01*
X204200000Y-121980000D02*
X205850000Y-121980000D01*
X205850000Y-121980000D02*
X205850000Y-96460000D01*
X205850000Y-96460000D02*
X200550000Y-96460000D01*
X200550000Y-96460000D02*
X200550000Y-121980000D01*
X200550000Y-121980000D02*
X202200000Y-121980000D01*
X208340000Y-122040000D02*
X208340000Y-96400000D01*
X208340000Y-96400000D02*
X198060000Y-96400000D01*
X198060000Y-96400000D02*
X198060000Y-122040000D01*
X198060000Y-122040000D02*
X208340000Y-122040000D01*
X158480000Y-86300000D02*
G75*
G02X156480000Y-86300000I-1000000J0D01*
G01*
X156480000Y-86300000D02*
X154830000Y-86300000D01*
X154830000Y-86300000D02*
X154830000Y-104200000D01*
X154830000Y-104200000D02*
X160130000Y-104200000D01*
X160130000Y-104200000D02*
X160130000Y-86300000D01*
X160130000Y-86300000D02*
X158480000Y-86300000D01*
X152340000Y-86240000D02*
X152340000Y-104260000D01*
X152340000Y-104260000D02*
X162620000Y-104260000D01*
X162620000Y-104260000D02*
X162620000Y-86240000D01*
X162620000Y-86240000D02*
X152340000Y-86240000D01*
X143240000Y-61535000D02*
G75*
G02X141240000Y-61535000I-1000000J0D01*
G01*
X141240000Y-61535000D02*
X139590000Y-61535000D01*
X139590000Y-61535000D02*
X139590000Y-79435000D01*
X139590000Y-79435000D02*
X144890000Y-79435000D01*
X144890000Y-79435000D02*
X144890000Y-61535000D01*
X144890000Y-61535000D02*
X143240000Y-61535000D01*
X137100000Y-61475000D02*
X137100000Y-79495000D01*
X137100000Y-79495000D02*
X147380000Y-79495000D01*
X147380000Y-79495000D02*
X147380000Y-61475000D01*
X147380000Y-61475000D02*
X137100000Y-61475000D01*
X188960000Y-96460000D02*
G75*
G02X186960000Y-96460000I-1000000J0D01*
G01*
X186960000Y-96460000D02*
X185310000Y-96460000D01*
X185310000Y-96460000D02*
X185310000Y-121980000D01*
X185310000Y-121980000D02*
X190610000Y-121980000D01*
X190610000Y-121980000D02*
X190610000Y-96460000D01*
X190610000Y-96460000D02*
X188960000Y-96460000D01*
X182820000Y-96400000D02*
X182820000Y-122040000D01*
X182820000Y-122040000D02*
X193100000Y-122040000D01*
X193100000Y-122040000D02*
X193100000Y-96400000D01*
X193100000Y-96400000D02*
X182820000Y-96400000D01*
X158480000Y-61535000D02*
G75*
G02X156480000Y-61535000I-1000000J0D01*
G01*
X156480000Y-61535000D02*
X154830000Y-61535000D01*
X154830000Y-61535000D02*
X154830000Y-79435000D01*
X154830000Y-79435000D02*
X160130000Y-79435000D01*
X160130000Y-79435000D02*
X160130000Y-61535000D01*
X160130000Y-61535000D02*
X158480000Y-61535000D01*
X152340000Y-61475000D02*
X152340000Y-79495000D01*
X152340000Y-79495000D02*
X162620000Y-79495000D01*
X162620000Y-79495000D02*
X162620000Y-61475000D01*
X162620000Y-61475000D02*
X152340000Y-61475000D01*
X173720000Y-61535000D02*
G75*
G02X171720000Y-61535000I-1000000J0D01*
G01*
X171720000Y-61535000D02*
X170070000Y-61535000D01*
X170070000Y-61535000D02*
X170070000Y-81975000D01*
X170070000Y-81975000D02*
X175370000Y-81975000D01*
X175370000Y-81975000D02*
X175370000Y-61535000D01*
X175370000Y-61535000D02*
X173720000Y-61535000D01*
X167580000Y-61475000D02*
X167580000Y-82035000D01*
X167580000Y-82035000D02*
X177860000Y-82035000D01*
X177860000Y-82035000D02*
X177860000Y-61475000D01*
X177860000Y-61475000D02*
X167580000Y-61475000D01*
X204200000Y-61535000D02*
G75*
G02X202200000Y-61535000I-1000000J0D01*
G01*
X202200000Y-61535000D02*
X200550000Y-61535000D01*
X200550000Y-61535000D02*
X200550000Y-87055000D01*
X200550000Y-87055000D02*
X205850000Y-87055000D01*
X205850000Y-87055000D02*
X205850000Y-61535000D01*
X205850000Y-61535000D02*
X204200000Y-61535000D01*
X198060000Y-61475000D02*
X198060000Y-87115000D01*
X198060000Y-87115000D02*
X208340000Y-87115000D01*
X208340000Y-87115000D02*
X208340000Y-61475000D01*
X208340000Y-61475000D02*
X198060000Y-61475000D01*
X225155000Y-61535000D02*
G75*
G02X223155000Y-61535000I-1000000J0D01*
G01*
X223155000Y-61535000D02*
X217695000Y-61535000D01*
X217695000Y-61535000D02*
X217695000Y-112455000D01*
X217695000Y-112455000D02*
X230615000Y-112455000D01*
X230615000Y-112455000D02*
X230615000Y-61535000D01*
X230615000Y-61535000D02*
X225155000Y-61535000D01*
X215205000Y-61475000D02*
X215205000Y-112515000D01*
X215205000Y-112515000D02*
X233105000Y-112515000D01*
X233105000Y-112515000D02*
X233105000Y-61475000D01*
X233105000Y-61475000D02*
X215205000Y-61475000D01*
X188960000Y-61535000D02*
G75*
G02X186960000Y-61535000I-1000000J0D01*
G01*
X186960000Y-61535000D02*
X185310000Y-61535000D01*
X185310000Y-61535000D02*
X185310000Y-87055000D01*
X185310000Y-87055000D02*
X190610000Y-87055000D01*
X190610000Y-87055000D02*
X190610000Y-61535000D01*
X190610000Y-61535000D02*
X188960000Y-61535000D01*
X182820000Y-61475000D02*
X182820000Y-87115000D01*
X182820000Y-87115000D02*
X193100000Y-87115000D01*
X193100000Y-87115000D02*
X193100000Y-61475000D01*
X193100000Y-61475000D02*
X182820000Y-61475000D01*
X214035000Y-88355000D02*
X214035000Y-93175000D01*
X211415000Y-88355000D02*
X211415000Y-93175000D01*
X214035000Y-88355000D02*
X213721000Y-88355000D01*
X211729000Y-88355000D02*
X211415000Y-88355000D01*
X214035000Y-93175000D02*
X213721000Y-93175000D01*
X211729000Y-93175000D02*
X211415000Y-93175000D01*
X196890000Y-62955000D02*
X196890000Y-67775000D01*
X194270000Y-62955000D02*
X194270000Y-67775000D01*
X196890000Y-62955000D02*
X196576000Y-62955000D01*
X194584000Y-62955000D02*
X194270000Y-62955000D01*
X196890000Y-67775000D02*
X196576000Y-67775000D01*
X194584000Y-67775000D02*
X194270000Y-67775000D01*
X151170000Y-87720000D02*
X151170000Y-92540000D01*
X148550000Y-87720000D02*
X148550000Y-92540000D01*
X151170000Y-87720000D02*
X150856000Y-87720000D01*
X148864000Y-87720000D02*
X148550000Y-87720000D01*
X151170000Y-92540000D02*
X150856000Y-92540000D01*
X148864000Y-92540000D02*
X148550000Y-92540000D01*
X151170000Y-111850000D02*
X151170000Y-116670000D01*
X148550000Y-111850000D02*
X148550000Y-116670000D01*
X151170000Y-111850000D02*
X150856000Y-111850000D01*
X148864000Y-111850000D02*
X148550000Y-111850000D01*
X151170000Y-116670000D02*
X150856000Y-116670000D01*
X148864000Y-116670000D02*
X148550000Y-116670000D01*
X231775462Y-117025000D02*
G75*
G03X230230170Y-122575000I-462J-2990000D01*
G01*
X231774538Y-117025000D02*
G75*
G02X233319830Y-122575000I462J-2990000D01*
G01*
X234275000Y-120015000D02*
G75*
G03X234275000Y-120015000I-2500000J0D01*
G01*
X230230000Y-122575000D02*
X233320000Y-122575000D01*
X224825000Y-122595000D02*
X224825000Y-119975000D01*
X224825000Y-119975000D02*
X218405000Y-119975000D01*
X218405000Y-119975000D02*
X218405000Y-122595000D01*
X218405000Y-122595000D02*
X224825000Y-122595000D01*
X225715000Y-121285000D02*
X224825000Y-121285000D01*
X217515000Y-121285000D02*
X218405000Y-121285000D01*
D11*
X220162381Y-118276666D02*
X219686190Y-118610000D01*
X220162381Y-118848095D02*
X219162381Y-118848095D01*
X219162381Y-118467142D01*
X219210000Y-118371904D01*
X219257619Y-118324285D01*
X219352857Y-118276666D01*
X219495714Y-118276666D01*
X219590952Y-118324285D01*
X219638571Y-118371904D01*
X219686190Y-118467142D01*
X219686190Y-118848095D01*
X219162381Y-117943333D02*
X219162381Y-117276666D01*
X220162381Y-117705238D01*
X221718333Y-117657619D02*
X221765952Y-117610000D01*
X221861190Y-117562381D01*
X222099286Y-117562381D01*
X222194524Y-117610000D01*
X222242143Y-117657619D01*
X222289762Y-117752857D01*
X222289762Y-117848095D01*
X222242143Y-117990952D01*
X221670714Y-118562381D01*
X222289762Y-118562381D01*
X222718333Y-118562381D02*
X222718333Y-117562381D01*
X222813571Y-118181429D02*
X223099286Y-118562381D01*
X223099286Y-117895714D02*
X222718333Y-118276667D01*
X223480238Y-117657619D02*
X223527857Y-117610000D01*
X223623095Y-117562381D01*
X223861191Y-117562381D01*
X223956429Y-117610000D01*
X224004048Y-117657619D01*
X224051667Y-117752857D01*
X224051667Y-117848095D01*
X224004048Y-117990952D01*
X223432619Y-118562381D01*
X224051667Y-118562381D01*
X165457143Y-114466666D02*
X165504762Y-114514285D01*
X165552381Y-114657142D01*
X165552381Y-114752380D01*
X165504762Y-114895238D01*
X165409524Y-114990476D01*
X165314286Y-115038095D01*
X165123810Y-115085714D01*
X164980952Y-115085714D01*
X164790476Y-115038095D01*
X164695238Y-114990476D01*
X164600000Y-114895238D01*
X164552381Y-114752380D01*
X164552381Y-114657142D01*
X164600000Y-114514285D01*
X164647619Y-114466666D01*
X164552381Y-114133333D02*
X164552381Y-113514285D01*
X164933333Y-113847619D01*
X164933333Y-113704761D01*
X164980952Y-113609523D01*
X165028571Y-113561904D01*
X165123810Y-113514285D01*
X165361905Y-113514285D01*
X165457143Y-113561904D01*
X165504762Y-113609523D01*
X165552381Y-113704761D01*
X165552381Y-113990476D01*
X165504762Y-114085714D01*
X165457143Y-114133333D01*
X195937143Y-118276666D02*
X195984762Y-118324285D01*
X196032381Y-118467142D01*
X196032381Y-118562380D01*
X195984762Y-118705238D01*
X195889524Y-118800476D01*
X195794286Y-118848095D01*
X195603810Y-118895714D01*
X195460952Y-118895714D01*
X195270476Y-118848095D01*
X195175238Y-118800476D01*
X195080000Y-118705238D01*
X195032381Y-118562380D01*
X195032381Y-118467142D01*
X195080000Y-118324285D01*
X195127619Y-118276666D01*
X195365714Y-117419523D02*
X196032381Y-117419523D01*
X194984762Y-117657619D02*
X195699048Y-117895714D01*
X195699048Y-117276666D01*
X165457143Y-90336666D02*
X165504762Y-90384285D01*
X165552381Y-90527142D01*
X165552381Y-90622380D01*
X165504762Y-90765238D01*
X165409524Y-90860476D01*
X165314286Y-90908095D01*
X165123810Y-90955714D01*
X164980952Y-90955714D01*
X164790476Y-90908095D01*
X164695238Y-90860476D01*
X164600000Y-90765238D01*
X164552381Y-90622380D01*
X164552381Y-90527142D01*
X164600000Y-90384285D01*
X164647619Y-90336666D01*
X164552381Y-89431904D02*
X164552381Y-89908095D01*
X165028571Y-89955714D01*
X164980952Y-89908095D01*
X164933333Y-89812857D01*
X164933333Y-89574761D01*
X164980952Y-89479523D01*
X165028571Y-89431904D01*
X165123810Y-89384285D01*
X165361905Y-89384285D01*
X165457143Y-89431904D01*
X165504762Y-89479523D01*
X165552381Y-89574761D01*
X165552381Y-89812857D01*
X165504762Y-89908095D01*
X165457143Y-89955714D01*
X150217143Y-65571666D02*
X150264762Y-65619285D01*
X150312381Y-65762142D01*
X150312381Y-65857380D01*
X150264762Y-66000238D01*
X150169524Y-66095476D01*
X150074286Y-66143095D01*
X149883810Y-66190714D01*
X149740952Y-66190714D01*
X149550476Y-66143095D01*
X149455238Y-66095476D01*
X149360000Y-66000238D01*
X149312381Y-65857380D01*
X149312381Y-65762142D01*
X149360000Y-65619285D01*
X149407619Y-65571666D01*
X149312381Y-64714523D02*
X149312381Y-64905000D01*
X149360000Y-65000238D01*
X149407619Y-65047857D01*
X149550476Y-65143095D01*
X149740952Y-65190714D01*
X150121905Y-65190714D01*
X150217143Y-65143095D01*
X150264762Y-65095476D01*
X150312381Y-65000238D01*
X150312381Y-64809761D01*
X150264762Y-64714523D01*
X150217143Y-64666904D01*
X150121905Y-64619285D01*
X149883810Y-64619285D01*
X149788571Y-64666904D01*
X149740952Y-64714523D01*
X149693333Y-64809761D01*
X149693333Y-65000238D01*
X149740952Y-65095476D01*
X149788571Y-65143095D01*
X149883810Y-65190714D01*
X195937143Y-100496666D02*
X195984762Y-100544285D01*
X196032381Y-100687142D01*
X196032381Y-100782380D01*
X195984762Y-100925238D01*
X195889524Y-101020476D01*
X195794286Y-101068095D01*
X195603810Y-101115714D01*
X195460952Y-101115714D01*
X195270476Y-101068095D01*
X195175238Y-101020476D01*
X195080000Y-100925238D01*
X195032381Y-100782380D01*
X195032381Y-100687142D01*
X195080000Y-100544285D01*
X195127619Y-100496666D01*
X195032381Y-100163333D02*
X195032381Y-99496666D01*
X196032381Y-99925238D01*
X169267143Y-114466666D02*
X169314762Y-114514285D01*
X169362381Y-114657142D01*
X169362381Y-114752380D01*
X169314762Y-114895238D01*
X169219524Y-114990476D01*
X169124286Y-115038095D01*
X168933810Y-115085714D01*
X168790952Y-115085714D01*
X168600476Y-115038095D01*
X168505238Y-114990476D01*
X168410000Y-114895238D01*
X168362381Y-114752380D01*
X168362381Y-114657142D01*
X168410000Y-114514285D01*
X168457619Y-114466666D01*
X168790952Y-113895238D02*
X168743333Y-113990476D01*
X168695714Y-114038095D01*
X168600476Y-114085714D01*
X168552857Y-114085714D01*
X168457619Y-114038095D01*
X168410000Y-113990476D01*
X168362381Y-113895238D01*
X168362381Y-113704761D01*
X168410000Y-113609523D01*
X168457619Y-113561904D01*
X168552857Y-113514285D01*
X168600476Y-113514285D01*
X168695714Y-113561904D01*
X168743333Y-113609523D01*
X168790952Y-113704761D01*
X168790952Y-113895238D01*
X168838571Y-113990476D01*
X168886190Y-114038095D01*
X168981429Y-114085714D01*
X169171905Y-114085714D01*
X169267143Y-114038095D01*
X169314762Y-113990476D01*
X169362381Y-113895238D01*
X169362381Y-113704761D01*
X169314762Y-113609523D01*
X169267143Y-113561904D01*
X169171905Y-113514285D01*
X168981429Y-113514285D01*
X168886190Y-113561904D01*
X168838571Y-113609523D01*
X168790952Y-113704761D01*
X165457143Y-65571666D02*
X165504762Y-65619285D01*
X165552381Y-65762142D01*
X165552381Y-65857380D01*
X165504762Y-66000238D01*
X165409524Y-66095476D01*
X165314286Y-66143095D01*
X165123810Y-66190714D01*
X164980952Y-66190714D01*
X164790476Y-66143095D01*
X164695238Y-66095476D01*
X164600000Y-66000238D01*
X164552381Y-65857380D01*
X164552381Y-65762142D01*
X164600000Y-65619285D01*
X164647619Y-65571666D01*
X165552381Y-65095476D02*
X165552381Y-64905000D01*
X165504762Y-64809761D01*
X165457143Y-64762142D01*
X165314286Y-64666904D01*
X165123810Y-64619285D01*
X164742857Y-64619285D01*
X164647619Y-64666904D01*
X164600000Y-64714523D01*
X164552381Y-64809761D01*
X164552381Y-65000238D01*
X164600000Y-65095476D01*
X164647619Y-65143095D01*
X164742857Y-65190714D01*
X164980952Y-65190714D01*
X165076190Y-65143095D01*
X165123810Y-65095476D01*
X165171429Y-65000238D01*
X165171429Y-64809761D01*
X165123810Y-64714523D01*
X165076190Y-64666904D01*
X164980952Y-64619285D01*
X180697143Y-66047857D02*
X180744762Y-66095476D01*
X180792381Y-66238333D01*
X180792381Y-66333571D01*
X180744762Y-66476429D01*
X180649524Y-66571667D01*
X180554286Y-66619286D01*
X180363810Y-66666905D01*
X180220952Y-66666905D01*
X180030476Y-66619286D01*
X179935238Y-66571667D01*
X179840000Y-66476429D01*
X179792381Y-66333571D01*
X179792381Y-66238333D01*
X179840000Y-66095476D01*
X179887619Y-66047857D01*
X180792381Y-65095476D02*
X180792381Y-65666905D01*
X180792381Y-65381191D02*
X179792381Y-65381191D01*
X179935238Y-65476429D01*
X180030476Y-65571667D01*
X180078095Y-65666905D01*
X179792381Y-64476429D02*
X179792381Y-64381190D01*
X179840000Y-64285952D01*
X179887619Y-64238333D01*
X179982857Y-64190714D01*
X180173333Y-64143095D01*
X180411429Y-64143095D01*
X180601905Y-64190714D01*
X180697143Y-64238333D01*
X180744762Y-64285952D01*
X180792381Y-64381190D01*
X180792381Y-64476429D01*
X180744762Y-64571667D01*
X180697143Y-64619286D01*
X180601905Y-64666905D01*
X180411429Y-64714524D01*
X180173333Y-64714524D01*
X179982857Y-64666905D01*
X179887619Y-64619286D01*
X179840000Y-64571667D01*
X179792381Y-64476429D01*
X211177143Y-66047857D02*
X211224762Y-66095476D01*
X211272381Y-66238333D01*
X211272381Y-66333571D01*
X211224762Y-66476429D01*
X211129524Y-66571667D01*
X211034286Y-66619286D01*
X210843810Y-66666905D01*
X210700952Y-66666905D01*
X210510476Y-66619286D01*
X210415238Y-66571667D01*
X210320000Y-66476429D01*
X210272381Y-66333571D01*
X210272381Y-66238333D01*
X210320000Y-66095476D01*
X210367619Y-66047857D01*
X211272381Y-65095476D02*
X211272381Y-65666905D01*
X211272381Y-65381191D02*
X210272381Y-65381191D01*
X210415238Y-65476429D01*
X210510476Y-65571667D01*
X210558095Y-65666905D01*
X211272381Y-64143095D02*
X211272381Y-64714524D01*
X211272381Y-64428810D02*
X210272381Y-64428810D01*
X210415238Y-64524048D01*
X210510476Y-64619286D01*
X210558095Y-64714524D01*
X168814762Y-104302619D02*
X168719524Y-104255000D01*
X168624286Y-104159762D01*
X168481429Y-104016905D01*
X168386190Y-103969286D01*
X168290952Y-103969286D01*
X168338571Y-104207381D02*
X168243333Y-104159762D01*
X168148095Y-104064524D01*
X168100476Y-103874048D01*
X168100476Y-103540714D01*
X168148095Y-103350238D01*
X168243333Y-103255000D01*
X168338571Y-103207381D01*
X168529048Y-103207381D01*
X168624286Y-103255000D01*
X168719524Y-103350238D01*
X168767143Y-103540714D01*
X168767143Y-103874048D01*
X168719524Y-104064524D01*
X168624286Y-104159762D01*
X168529048Y-104207381D01*
X168338571Y-104207381D01*
X169719524Y-104207381D02*
X169148095Y-104207381D01*
X169433809Y-104207381D02*
X169433809Y-103207381D01*
X169338571Y-103350238D01*
X169243333Y-103445476D01*
X169148095Y-103493095D01*
X172553334Y-123007381D02*
X172220000Y-122531190D01*
X171981905Y-123007381D02*
X171981905Y-122007381D01*
X172362858Y-122007381D01*
X172458096Y-122055000D01*
X172505715Y-122102619D01*
X172553334Y-122197857D01*
X172553334Y-122340714D01*
X172505715Y-122435952D01*
X172458096Y-122483571D01*
X172362858Y-122531190D01*
X171981905Y-122531190D01*
X173505715Y-123007381D02*
X172934286Y-123007381D01*
X173220000Y-123007381D02*
X173220000Y-122007381D01*
X173124762Y-122150238D01*
X173029524Y-122245476D01*
X172934286Y-122293095D01*
X172267619Y-126491905D02*
X172220000Y-126444286D01*
X172172381Y-126349048D01*
X172172381Y-126110952D01*
X172220000Y-126015714D01*
X172267619Y-125968095D01*
X172362857Y-125920476D01*
X172458095Y-125920476D01*
X172600952Y-125968095D01*
X173172381Y-126539524D01*
X173172381Y-125920476D01*
X172267619Y-125539524D02*
X172220000Y-125491905D01*
X172172381Y-125396667D01*
X172172381Y-125158571D01*
X172220000Y-125063333D01*
X172267619Y-125015714D01*
X172362857Y-124968095D01*
X172458095Y-124968095D01*
X172600952Y-125015714D01*
X173172381Y-125587143D01*
X173172381Y-124968095D01*
X168743334Y-123007381D02*
X168410000Y-122531190D01*
X168171905Y-123007381D02*
X168171905Y-122007381D01*
X168552858Y-122007381D01*
X168648096Y-122055000D01*
X168695715Y-122102619D01*
X168743334Y-122197857D01*
X168743334Y-122340714D01*
X168695715Y-122435952D01*
X168648096Y-122483571D01*
X168552858Y-122531190D01*
X168171905Y-122531190D01*
X169124286Y-122102619D02*
X169171905Y-122055000D01*
X169267143Y-122007381D01*
X169505239Y-122007381D01*
X169600477Y-122055000D01*
X169648096Y-122102619D01*
X169695715Y-122197857D01*
X169695715Y-122293095D01*
X169648096Y-122435952D01*
X169076667Y-123007381D01*
X169695715Y-123007381D01*
X168457619Y-126968095D02*
X168410000Y-126920476D01*
X168362381Y-126825238D01*
X168362381Y-126587142D01*
X168410000Y-126491904D01*
X168457619Y-126444285D01*
X168552857Y-126396666D01*
X168648095Y-126396666D01*
X168790952Y-126444285D01*
X169362381Y-127015714D01*
X169362381Y-126396666D01*
X168457619Y-126015714D02*
X168410000Y-125968095D01*
X168362381Y-125872857D01*
X168362381Y-125634761D01*
X168410000Y-125539523D01*
X168457619Y-125491904D01*
X168552857Y-125444285D01*
X168648095Y-125444285D01*
X168790952Y-125491904D01*
X169362381Y-126063333D01*
X169362381Y-125444285D01*
X168362381Y-124825238D02*
X168362381Y-124729999D01*
X168410000Y-124634761D01*
X168457619Y-124587142D01*
X168552857Y-124539523D01*
X168743333Y-124491904D01*
X168981429Y-124491904D01*
X169171905Y-124539523D01*
X169267143Y-124587142D01*
X169314762Y-124634761D01*
X169362381Y-124729999D01*
X169362381Y-124825238D01*
X169314762Y-124920476D01*
X169267143Y-124968095D01*
X169171905Y-125015714D01*
X168981429Y-125063333D01*
X168743333Y-125063333D01*
X168552857Y-125015714D01*
X168457619Y-124968095D01*
X168410000Y-124920476D01*
X168362381Y-124825238D01*
X164933334Y-123007381D02*
X164600000Y-122531190D01*
X164361905Y-123007381D02*
X164361905Y-122007381D01*
X164742858Y-122007381D01*
X164838096Y-122055000D01*
X164885715Y-122102619D01*
X164933334Y-122197857D01*
X164933334Y-122340714D01*
X164885715Y-122435952D01*
X164838096Y-122483571D01*
X164742858Y-122531190D01*
X164361905Y-122531190D01*
X165266667Y-122007381D02*
X165885715Y-122007381D01*
X165552381Y-122388333D01*
X165695239Y-122388333D01*
X165790477Y-122435952D01*
X165838096Y-122483571D01*
X165885715Y-122578810D01*
X165885715Y-122816905D01*
X165838096Y-122912143D01*
X165790477Y-122959762D01*
X165695239Y-123007381D01*
X165409524Y-123007381D01*
X165314286Y-122959762D01*
X165266667Y-122912143D01*
X164647619Y-126968095D02*
X164600000Y-126920476D01*
X164552381Y-126825238D01*
X164552381Y-126587142D01*
X164600000Y-126491904D01*
X164647619Y-126444285D01*
X164742857Y-126396666D01*
X164838095Y-126396666D01*
X164980952Y-126444285D01*
X165552381Y-127015714D01*
X165552381Y-126396666D01*
X164647619Y-126015714D02*
X164600000Y-125968095D01*
X164552381Y-125872857D01*
X164552381Y-125634761D01*
X164600000Y-125539523D01*
X164647619Y-125491904D01*
X164742857Y-125444285D01*
X164838095Y-125444285D01*
X164980952Y-125491904D01*
X165552381Y-126063333D01*
X165552381Y-125444285D01*
X164552381Y-124825238D02*
X164552381Y-124729999D01*
X164600000Y-124634761D01*
X164647619Y-124587142D01*
X164742857Y-124539523D01*
X164933333Y-124491904D01*
X165171429Y-124491904D01*
X165361905Y-124539523D01*
X165457143Y-124587142D01*
X165504762Y-124634761D01*
X165552381Y-124729999D01*
X165552381Y-124825238D01*
X165504762Y-124920476D01*
X165457143Y-124968095D01*
X165361905Y-125015714D01*
X165171429Y-125063333D01*
X164933333Y-125063333D01*
X164742857Y-125015714D01*
X164647619Y-124968095D01*
X164600000Y-124920476D01*
X164552381Y-124825238D01*
X220162381Y-115101666D02*
X219686190Y-115435000D01*
X220162381Y-115673095D02*
X219162381Y-115673095D01*
X219162381Y-115292142D01*
X219210000Y-115196904D01*
X219257619Y-115149285D01*
X219352857Y-115101666D01*
X219495714Y-115101666D01*
X219590952Y-115149285D01*
X219638571Y-115196904D01*
X219686190Y-115292142D01*
X219686190Y-115673095D01*
X219162381Y-114244523D02*
X219162381Y-114435000D01*
X219210000Y-114530238D01*
X219257619Y-114577857D01*
X219400476Y-114673095D01*
X219590952Y-114720714D01*
X219971905Y-114720714D01*
X220067143Y-114673095D01*
X220114762Y-114625476D01*
X220162381Y-114530238D01*
X220162381Y-114339761D01*
X220114762Y-114244523D01*
X220067143Y-114196904D01*
X219971905Y-114149285D01*
X219733810Y-114149285D01*
X219638571Y-114196904D01*
X219590952Y-114244523D01*
X219543333Y-114339761D01*
X219543333Y-114530238D01*
X219590952Y-114625476D01*
X219638571Y-114673095D01*
X219733810Y-114720714D01*
X221718333Y-114482619D02*
X221765952Y-114435000D01*
X221861190Y-114387381D01*
X222099286Y-114387381D01*
X222194524Y-114435000D01*
X222242143Y-114482619D01*
X222289762Y-114577857D01*
X222289762Y-114673095D01*
X222242143Y-114815952D01*
X221670714Y-115387381D01*
X222289762Y-115387381D01*
X222718333Y-115387381D02*
X222718333Y-114387381D01*
X222813571Y-115006429D02*
X223099286Y-115387381D01*
X223099286Y-114720714D02*
X222718333Y-115101667D01*
X223480238Y-114482619D02*
X223527857Y-114435000D01*
X223623095Y-114387381D01*
X223861191Y-114387381D01*
X223956429Y-114435000D01*
X224004048Y-114482619D01*
X224051667Y-114577857D01*
X224051667Y-114673095D01*
X224004048Y-114815952D01*
X223432619Y-115387381D01*
X224051667Y-115387381D01*
X141478095Y-113752381D02*
X141478095Y-114561905D01*
X141525714Y-114657143D01*
X141573333Y-114704762D01*
X141668571Y-114752381D01*
X141859048Y-114752381D01*
X141954286Y-114704762D01*
X142001905Y-114657143D01*
X142049524Y-114561905D01*
X142049524Y-113752381D01*
X143049524Y-114752381D02*
X142478095Y-114752381D01*
X142763809Y-114752381D02*
X142763809Y-113752381D01*
X142668571Y-113895238D01*
X142573333Y-113990476D01*
X142478095Y-114038095D01*
X141692381Y-122022857D02*
X141692381Y-121356190D01*
X142692381Y-121784762D01*
X142025714Y-120546666D02*
X142692381Y-120546666D01*
X141644762Y-120784762D02*
X142359048Y-121022857D01*
X142359048Y-120403809D01*
X142692381Y-119546666D02*
X142692381Y-120022857D01*
X141692381Y-120022857D01*
X142644762Y-119260952D02*
X142692381Y-119118095D01*
X142692381Y-118879999D01*
X142644762Y-118784761D01*
X142597143Y-118737142D01*
X142501905Y-118689523D01*
X142406667Y-118689523D01*
X142311429Y-118737142D01*
X142263810Y-118784761D01*
X142216190Y-118879999D01*
X142168571Y-119070476D01*
X142120952Y-119165714D01*
X142073333Y-119213333D01*
X141978095Y-119260952D01*
X141882857Y-119260952D01*
X141787619Y-119213333D01*
X141740000Y-119165714D01*
X141692381Y-119070476D01*
X141692381Y-118832380D01*
X141740000Y-118689523D01*
X141692381Y-118356190D02*
X141692381Y-117689523D01*
X142692381Y-118118095D01*
X142025714Y-116879999D02*
X142692381Y-116879999D01*
X141644762Y-117118095D02*
X142359048Y-117356190D01*
X142359048Y-116737142D01*
X141478095Y-89622381D02*
X141478095Y-90431905D01*
X141525714Y-90527143D01*
X141573333Y-90574762D01*
X141668571Y-90622381D01*
X141859048Y-90622381D01*
X141954286Y-90574762D01*
X142001905Y-90527143D01*
X142049524Y-90431905D01*
X142049524Y-89622381D01*
X142478095Y-89717619D02*
X142525714Y-89670000D01*
X142620952Y-89622381D01*
X142859048Y-89622381D01*
X142954286Y-89670000D01*
X143001905Y-89717619D01*
X143049524Y-89812857D01*
X143049524Y-89908095D01*
X143001905Y-90050952D01*
X142430476Y-90622381D01*
X143049524Y-90622381D01*
X141692381Y-97892857D02*
X141692381Y-97226190D01*
X142692381Y-97654762D01*
X142025714Y-96416666D02*
X142692381Y-96416666D01*
X141644762Y-96654762D02*
X142359048Y-96892857D01*
X142359048Y-96273809D01*
X142692381Y-95416666D02*
X142692381Y-95892857D01*
X141692381Y-95892857D01*
X142644762Y-95130952D02*
X142692381Y-94988095D01*
X142692381Y-94749999D01*
X142644762Y-94654761D01*
X142597143Y-94607142D01*
X142501905Y-94559523D01*
X142406667Y-94559523D01*
X142311429Y-94607142D01*
X142263810Y-94654761D01*
X142216190Y-94749999D01*
X142168571Y-94940476D01*
X142120952Y-95035714D01*
X142073333Y-95083333D01*
X141978095Y-95130952D01*
X141882857Y-95130952D01*
X141787619Y-95083333D01*
X141740000Y-95035714D01*
X141692381Y-94940476D01*
X141692381Y-94702380D01*
X141740000Y-94559523D01*
X141692381Y-93940476D02*
X141692381Y-93845237D01*
X141740000Y-93749999D01*
X141787619Y-93702380D01*
X141882857Y-93654761D01*
X142073333Y-93607142D01*
X142311429Y-93607142D01*
X142501905Y-93654761D01*
X142597143Y-93702380D01*
X142644762Y-93749999D01*
X142692381Y-93845237D01*
X142692381Y-93940476D01*
X142644762Y-94035714D01*
X142597143Y-94083333D01*
X142501905Y-94130952D01*
X142311429Y-94178571D01*
X142073333Y-94178571D01*
X141882857Y-94130952D01*
X141787619Y-94083333D01*
X141740000Y-94035714D01*
X141692381Y-93940476D01*
X142025714Y-92749999D02*
X142692381Y-92749999D01*
X141644762Y-92988095D02*
X142359048Y-93226190D01*
X142359048Y-92607142D01*
X156718095Y-113752381D02*
X156718095Y-114561905D01*
X156765714Y-114657143D01*
X156813333Y-114704762D01*
X156908571Y-114752381D01*
X157099048Y-114752381D01*
X157194286Y-114704762D01*
X157241905Y-114657143D01*
X157289524Y-114561905D01*
X157289524Y-113752381D01*
X157670476Y-113752381D02*
X158289524Y-113752381D01*
X157956190Y-114133333D01*
X158099048Y-114133333D01*
X158194286Y-114180952D01*
X158241905Y-114228571D01*
X158289524Y-114323810D01*
X158289524Y-114561905D01*
X158241905Y-114657143D01*
X158194286Y-114704762D01*
X158099048Y-114752381D01*
X157813333Y-114752381D01*
X157718095Y-114704762D01*
X157670476Y-114657143D01*
X156932381Y-123769048D02*
X156932381Y-123102381D01*
X157932381Y-123530953D01*
X157265714Y-122292857D02*
X157932381Y-122292857D01*
X156884762Y-122530953D02*
X157599048Y-122769048D01*
X157599048Y-122150000D01*
X157932381Y-121292857D02*
X157932381Y-121769048D01*
X156932381Y-121769048D01*
X157884762Y-121007143D02*
X157932381Y-120864286D01*
X157932381Y-120626190D01*
X157884762Y-120530952D01*
X157837143Y-120483333D01*
X157741905Y-120435714D01*
X157646667Y-120435714D01*
X157551429Y-120483333D01*
X157503810Y-120530952D01*
X157456190Y-120626190D01*
X157408571Y-120816667D01*
X157360952Y-120911905D01*
X157313333Y-120959524D01*
X157218095Y-121007143D01*
X157122857Y-121007143D01*
X157027619Y-120959524D01*
X156980000Y-120911905D01*
X156932381Y-120816667D01*
X156932381Y-120578571D01*
X156980000Y-120435714D01*
X156932381Y-120102381D02*
X156932381Y-119483333D01*
X157313333Y-119816667D01*
X157313333Y-119673809D01*
X157360952Y-119578571D01*
X157408571Y-119530952D01*
X157503810Y-119483333D01*
X157741905Y-119483333D01*
X157837143Y-119530952D01*
X157884762Y-119578571D01*
X157932381Y-119673809D01*
X157932381Y-119959524D01*
X157884762Y-120054762D01*
X157837143Y-120102381D01*
X156932381Y-118626190D02*
X156932381Y-118816667D01*
X156980000Y-118911905D01*
X157027619Y-118959524D01*
X157170476Y-119054762D01*
X157360952Y-119102381D01*
X157741905Y-119102381D01*
X157837143Y-119054762D01*
X157884762Y-119007143D01*
X157932381Y-118911905D01*
X157932381Y-118721428D01*
X157884762Y-118626190D01*
X157837143Y-118578571D01*
X157741905Y-118530952D01*
X157503810Y-118530952D01*
X157408571Y-118578571D01*
X157360952Y-118626190D01*
X157313333Y-118721428D01*
X157313333Y-118911905D01*
X157360952Y-119007143D01*
X157408571Y-119054762D01*
X157503810Y-119102381D01*
X156932381Y-118197619D02*
X156932381Y-117530952D01*
X157932381Y-117959524D01*
X202438095Y-99782381D02*
X202438095Y-100591905D01*
X202485714Y-100687143D01*
X202533333Y-100734762D01*
X202628571Y-100782381D01*
X202819048Y-100782381D01*
X202914286Y-100734762D01*
X202961905Y-100687143D01*
X203009524Y-100591905D01*
X203009524Y-99782381D01*
X203914286Y-100115714D02*
X203914286Y-100782381D01*
X203676190Y-99734762D02*
X203438095Y-100449048D01*
X204057143Y-100449048D01*
X202652381Y-112339048D02*
X202652381Y-111672381D01*
X203652381Y-112100953D01*
X202985714Y-110862857D02*
X203652381Y-110862857D01*
X202604762Y-111100953D02*
X203319048Y-111339048D01*
X203319048Y-110720000D01*
X203652381Y-109862857D02*
X203652381Y-110339048D01*
X202652381Y-110339048D01*
X203604762Y-109577143D02*
X203652381Y-109434286D01*
X203652381Y-109196190D01*
X203604762Y-109100952D01*
X203557143Y-109053333D01*
X203461905Y-109005714D01*
X203366667Y-109005714D01*
X203271429Y-109053333D01*
X203223810Y-109100952D01*
X203176190Y-109196190D01*
X203128571Y-109386667D01*
X203080952Y-109481905D01*
X203033333Y-109529524D01*
X202938095Y-109577143D01*
X202842857Y-109577143D01*
X202747619Y-109529524D01*
X202700000Y-109481905D01*
X202652381Y-109386667D01*
X202652381Y-109148571D01*
X202700000Y-109005714D01*
X202652381Y-108672381D02*
X202652381Y-108053333D01*
X203033333Y-108386667D01*
X203033333Y-108243809D01*
X203080952Y-108148571D01*
X203128571Y-108100952D01*
X203223810Y-108053333D01*
X203461905Y-108053333D01*
X203557143Y-108100952D01*
X203604762Y-108148571D01*
X203652381Y-108243809D01*
X203652381Y-108529524D01*
X203604762Y-108624762D01*
X203557143Y-108672381D01*
X202652381Y-107720000D02*
X202652381Y-107053333D01*
X203652381Y-107481905D01*
X202652381Y-106767619D02*
X202652381Y-106148571D01*
X203033333Y-106481905D01*
X203033333Y-106339047D01*
X203080952Y-106243809D01*
X203128571Y-106196190D01*
X203223810Y-106148571D01*
X203461905Y-106148571D01*
X203557143Y-106196190D01*
X203604762Y-106243809D01*
X203652381Y-106339047D01*
X203652381Y-106624762D01*
X203604762Y-106720000D01*
X203557143Y-106767619D01*
X156718095Y-89622381D02*
X156718095Y-90431905D01*
X156765714Y-90527143D01*
X156813333Y-90574762D01*
X156908571Y-90622381D01*
X157099048Y-90622381D01*
X157194286Y-90574762D01*
X157241905Y-90527143D01*
X157289524Y-90431905D01*
X157289524Y-89622381D01*
X158241905Y-89622381D02*
X157765714Y-89622381D01*
X157718095Y-90098571D01*
X157765714Y-90050952D01*
X157860952Y-90003333D01*
X158099048Y-90003333D01*
X158194286Y-90050952D01*
X158241905Y-90098571D01*
X158289524Y-90193810D01*
X158289524Y-90431905D01*
X158241905Y-90527143D01*
X158194286Y-90574762D01*
X158099048Y-90622381D01*
X157860952Y-90622381D01*
X157765714Y-90574762D01*
X157718095Y-90527143D01*
X156932381Y-97892857D02*
X156932381Y-97226190D01*
X157932381Y-97654762D01*
X157265714Y-96416666D02*
X157932381Y-96416666D01*
X156884762Y-96654762D02*
X157599048Y-96892857D01*
X157599048Y-96273809D01*
X157932381Y-95416666D02*
X157932381Y-95892857D01*
X156932381Y-95892857D01*
X157884762Y-95130952D02*
X157932381Y-94988095D01*
X157932381Y-94749999D01*
X157884762Y-94654761D01*
X157837143Y-94607142D01*
X157741905Y-94559523D01*
X157646667Y-94559523D01*
X157551429Y-94607142D01*
X157503810Y-94654761D01*
X157456190Y-94749999D01*
X157408571Y-94940476D01*
X157360952Y-95035714D01*
X157313333Y-95083333D01*
X157218095Y-95130952D01*
X157122857Y-95130952D01*
X157027619Y-95083333D01*
X156980000Y-95035714D01*
X156932381Y-94940476D01*
X156932381Y-94702380D01*
X156980000Y-94559523D01*
X156932381Y-94226190D02*
X156932381Y-93559523D01*
X157932381Y-93988095D01*
X157265714Y-92749999D02*
X157932381Y-92749999D01*
X156884762Y-92988095D02*
X157599048Y-93226190D01*
X157599048Y-92607142D01*
X141478095Y-64857381D02*
X141478095Y-65666905D01*
X141525714Y-65762143D01*
X141573333Y-65809762D01*
X141668571Y-65857381D01*
X141859048Y-65857381D01*
X141954286Y-65809762D01*
X142001905Y-65762143D01*
X142049524Y-65666905D01*
X142049524Y-64857381D01*
X142954286Y-64857381D02*
X142763809Y-64857381D01*
X142668571Y-64905000D01*
X142620952Y-64952619D01*
X142525714Y-65095476D01*
X142478095Y-65285952D01*
X142478095Y-65666905D01*
X142525714Y-65762143D01*
X142573333Y-65809762D01*
X142668571Y-65857381D01*
X142859048Y-65857381D01*
X142954286Y-65809762D01*
X143001905Y-65762143D01*
X143049524Y-65666905D01*
X143049524Y-65428810D01*
X143001905Y-65333571D01*
X142954286Y-65285952D01*
X142859048Y-65238333D01*
X142668571Y-65238333D01*
X142573333Y-65285952D01*
X142525714Y-65333571D01*
X142478095Y-65428810D01*
X141692381Y-73127857D02*
X141692381Y-72461190D01*
X142692381Y-72889762D01*
X142025714Y-71651666D02*
X142692381Y-71651666D01*
X141644762Y-71889762D02*
X142359048Y-72127857D01*
X142359048Y-71508809D01*
X142692381Y-70651666D02*
X142692381Y-71127857D01*
X141692381Y-71127857D01*
X142644762Y-70365952D02*
X142692381Y-70223095D01*
X142692381Y-69984999D01*
X142644762Y-69889761D01*
X142597143Y-69842142D01*
X142501905Y-69794523D01*
X142406667Y-69794523D01*
X142311429Y-69842142D01*
X142263810Y-69889761D01*
X142216190Y-69984999D01*
X142168571Y-70175476D01*
X142120952Y-70270714D01*
X142073333Y-70318333D01*
X141978095Y-70365952D01*
X141882857Y-70365952D01*
X141787619Y-70318333D01*
X141740000Y-70270714D01*
X141692381Y-70175476D01*
X141692381Y-69937380D01*
X141740000Y-69794523D01*
X142692381Y-68842142D02*
X142692381Y-69413571D01*
X142692381Y-69127857D02*
X141692381Y-69127857D01*
X141835238Y-69223095D01*
X141930476Y-69318333D01*
X141978095Y-69413571D01*
X141787619Y-68461190D02*
X141740000Y-68413571D01*
X141692381Y-68318333D01*
X141692381Y-68080237D01*
X141740000Y-67984999D01*
X141787619Y-67937380D01*
X141882857Y-67889761D01*
X141978095Y-67889761D01*
X142120952Y-67937380D01*
X142692381Y-68508809D01*
X142692381Y-67889761D01*
X187198095Y-99782381D02*
X187198095Y-100591905D01*
X187245714Y-100687143D01*
X187293333Y-100734762D01*
X187388571Y-100782381D01*
X187579048Y-100782381D01*
X187674286Y-100734762D01*
X187721905Y-100687143D01*
X187769524Y-100591905D01*
X187769524Y-99782381D01*
X188150476Y-99782381D02*
X188817143Y-99782381D01*
X188388571Y-100782381D01*
X187412381Y-112339048D02*
X187412381Y-111672381D01*
X188412381Y-112100953D01*
X187745714Y-110862857D02*
X188412381Y-110862857D01*
X187364762Y-111100953D02*
X188079048Y-111339048D01*
X188079048Y-110720000D01*
X188412381Y-109862857D02*
X188412381Y-110339048D01*
X187412381Y-110339048D01*
X188364762Y-109577143D02*
X188412381Y-109434286D01*
X188412381Y-109196190D01*
X188364762Y-109100952D01*
X188317143Y-109053333D01*
X188221905Y-109005714D01*
X188126667Y-109005714D01*
X188031429Y-109053333D01*
X187983810Y-109100952D01*
X187936190Y-109196190D01*
X187888571Y-109386667D01*
X187840952Y-109481905D01*
X187793333Y-109529524D01*
X187698095Y-109577143D01*
X187602857Y-109577143D01*
X187507619Y-109529524D01*
X187460000Y-109481905D01*
X187412381Y-109386667D01*
X187412381Y-109148571D01*
X187460000Y-109005714D01*
X187507619Y-108624762D02*
X187460000Y-108577143D01*
X187412381Y-108481905D01*
X187412381Y-108243809D01*
X187460000Y-108148571D01*
X187507619Y-108100952D01*
X187602857Y-108053333D01*
X187698095Y-108053333D01*
X187840952Y-108100952D01*
X188412381Y-108672381D01*
X188412381Y-108053333D01*
X187745714Y-107196190D02*
X188412381Y-107196190D01*
X187364762Y-107434286D02*
X188079048Y-107672381D01*
X188079048Y-107053333D01*
X187412381Y-106196190D02*
X187412381Y-106672381D01*
X187888571Y-106720000D01*
X187840952Y-106672381D01*
X187793333Y-106577143D01*
X187793333Y-106339047D01*
X187840952Y-106243809D01*
X187888571Y-106196190D01*
X187983810Y-106148571D01*
X188221905Y-106148571D01*
X188317143Y-106196190D01*
X188364762Y-106243809D01*
X188412381Y-106339047D01*
X188412381Y-106577143D01*
X188364762Y-106672381D01*
X188317143Y-106720000D01*
X156718095Y-64857381D02*
X156718095Y-65666905D01*
X156765714Y-65762143D01*
X156813333Y-65809762D01*
X156908571Y-65857381D01*
X157099048Y-65857381D01*
X157194286Y-65809762D01*
X157241905Y-65762143D01*
X157289524Y-65666905D01*
X157289524Y-64857381D01*
X157813333Y-65857381D02*
X158003809Y-65857381D01*
X158099048Y-65809762D01*
X158146667Y-65762143D01*
X158241905Y-65619286D01*
X158289524Y-65428810D01*
X158289524Y-65047857D01*
X158241905Y-64952619D01*
X158194286Y-64905000D01*
X158099048Y-64857381D01*
X157908571Y-64857381D01*
X157813333Y-64905000D01*
X157765714Y-64952619D01*
X157718095Y-65047857D01*
X157718095Y-65285952D01*
X157765714Y-65381190D01*
X157813333Y-65428810D01*
X157908571Y-65476429D01*
X158099048Y-65476429D01*
X158194286Y-65428810D01*
X158241905Y-65381190D01*
X158289524Y-65285952D01*
X156932381Y-73127857D02*
X156932381Y-72461190D01*
X157932381Y-72889762D01*
X157265714Y-71651666D02*
X157932381Y-71651666D01*
X156884762Y-71889762D02*
X157599048Y-72127857D01*
X157599048Y-71508809D01*
X157932381Y-70651666D02*
X157932381Y-71127857D01*
X156932381Y-71127857D01*
X157884762Y-70365952D02*
X157932381Y-70223095D01*
X157932381Y-69984999D01*
X157884762Y-69889761D01*
X157837143Y-69842142D01*
X157741905Y-69794523D01*
X157646667Y-69794523D01*
X157551429Y-69842142D01*
X157503810Y-69889761D01*
X157456190Y-69984999D01*
X157408571Y-70175476D01*
X157360952Y-70270714D01*
X157313333Y-70318333D01*
X157218095Y-70365952D01*
X157122857Y-70365952D01*
X157027619Y-70318333D01*
X156980000Y-70270714D01*
X156932381Y-70175476D01*
X156932381Y-69937380D01*
X156980000Y-69794523D01*
X156932381Y-69175476D02*
X156932381Y-69080237D01*
X156980000Y-68984999D01*
X157027619Y-68937380D01*
X157122857Y-68889761D01*
X157313333Y-68842142D01*
X157551429Y-68842142D01*
X157741905Y-68889761D01*
X157837143Y-68937380D01*
X157884762Y-68984999D01*
X157932381Y-69080237D01*
X157932381Y-69175476D01*
X157884762Y-69270714D01*
X157837143Y-69318333D01*
X157741905Y-69365952D01*
X157551429Y-69413571D01*
X157313333Y-69413571D01*
X157122857Y-69365952D01*
X157027619Y-69318333D01*
X156980000Y-69270714D01*
X156932381Y-69175476D01*
X156932381Y-68223095D02*
X156932381Y-68127856D01*
X156980000Y-68032618D01*
X157027619Y-67984999D01*
X157122857Y-67937380D01*
X157313333Y-67889761D01*
X157551429Y-67889761D01*
X157741905Y-67937380D01*
X157837143Y-67984999D01*
X157884762Y-68032618D01*
X157932381Y-68127856D01*
X157932381Y-68223095D01*
X157884762Y-68318333D01*
X157837143Y-68365952D01*
X157741905Y-68413571D01*
X157551429Y-68461190D01*
X157313333Y-68461190D01*
X157122857Y-68413571D01*
X157027619Y-68365952D01*
X156980000Y-68318333D01*
X156932381Y-68223095D01*
X171481905Y-64857381D02*
X171481905Y-65666905D01*
X171529524Y-65762143D01*
X171577143Y-65809762D01*
X171672381Y-65857381D01*
X171862858Y-65857381D01*
X171958096Y-65809762D01*
X172005715Y-65762143D01*
X172053334Y-65666905D01*
X172053334Y-64857381D01*
X173053334Y-65857381D02*
X172481905Y-65857381D01*
X172767619Y-65857381D02*
X172767619Y-64857381D01*
X172672381Y-65000238D01*
X172577143Y-65095476D01*
X172481905Y-65143095D01*
X173672381Y-64857381D02*
X173767620Y-64857381D01*
X173862858Y-64905000D01*
X173910477Y-64952619D01*
X173958096Y-65047857D01*
X174005715Y-65238333D01*
X174005715Y-65476429D01*
X173958096Y-65666905D01*
X173910477Y-65762143D01*
X173862858Y-65809762D01*
X173767620Y-65857381D01*
X173672381Y-65857381D01*
X173577143Y-65809762D01*
X173529524Y-65762143D01*
X173481905Y-65666905D01*
X173434286Y-65476429D01*
X173434286Y-65238333D01*
X173481905Y-65047857D01*
X173529524Y-64952619D01*
X173577143Y-64905000D01*
X173672381Y-64857381D01*
X172172381Y-74874048D02*
X172172381Y-74207381D01*
X173172381Y-74635953D01*
X172505714Y-73397857D02*
X173172381Y-73397857D01*
X172124762Y-73635953D02*
X172839048Y-73874048D01*
X172839048Y-73255000D01*
X173172381Y-72397857D02*
X173172381Y-72874048D01*
X172172381Y-72874048D01*
X173124762Y-72112143D02*
X173172381Y-71969286D01*
X173172381Y-71731190D01*
X173124762Y-71635952D01*
X173077143Y-71588333D01*
X172981905Y-71540714D01*
X172886667Y-71540714D01*
X172791429Y-71588333D01*
X172743810Y-71635952D01*
X172696190Y-71731190D01*
X172648571Y-71921667D01*
X172600952Y-72016905D01*
X172553333Y-72064524D01*
X172458095Y-72112143D01*
X172362857Y-72112143D01*
X172267619Y-72064524D01*
X172220000Y-72016905D01*
X172172381Y-71921667D01*
X172172381Y-71683571D01*
X172220000Y-71540714D01*
X172267619Y-71159762D02*
X172220000Y-71112143D01*
X172172381Y-71016905D01*
X172172381Y-70778809D01*
X172220000Y-70683571D01*
X172267619Y-70635952D01*
X172362857Y-70588333D01*
X172458095Y-70588333D01*
X172600952Y-70635952D01*
X173172381Y-71207381D01*
X173172381Y-70588333D01*
X172600952Y-70016905D02*
X172553333Y-70112143D01*
X172505714Y-70159762D01*
X172410476Y-70207381D01*
X172362857Y-70207381D01*
X172267619Y-70159762D01*
X172220000Y-70112143D01*
X172172381Y-70016905D01*
X172172381Y-69826428D01*
X172220000Y-69731190D01*
X172267619Y-69683571D01*
X172362857Y-69635952D01*
X172410476Y-69635952D01*
X172505714Y-69683571D01*
X172553333Y-69731190D01*
X172600952Y-69826428D01*
X172600952Y-70016905D01*
X172648571Y-70112143D01*
X172696190Y-70159762D01*
X172791429Y-70207381D01*
X172981905Y-70207381D01*
X173077143Y-70159762D01*
X173124762Y-70112143D01*
X173172381Y-70016905D01*
X173172381Y-69826428D01*
X173124762Y-69731190D01*
X173077143Y-69683571D01*
X172981905Y-69635952D01*
X172791429Y-69635952D01*
X172696190Y-69683571D01*
X172648571Y-69731190D01*
X172600952Y-69826428D01*
X172172381Y-69302619D02*
X172172381Y-68683571D01*
X172553333Y-69016905D01*
X172553333Y-68874047D01*
X172600952Y-68778809D01*
X172648571Y-68731190D01*
X172743810Y-68683571D01*
X172981905Y-68683571D01*
X173077143Y-68731190D01*
X173124762Y-68778809D01*
X173172381Y-68874047D01*
X173172381Y-69159762D01*
X173124762Y-69255000D01*
X173077143Y-69302619D01*
X201961905Y-64857381D02*
X201961905Y-65666905D01*
X202009524Y-65762143D01*
X202057143Y-65809762D01*
X202152381Y-65857381D01*
X202342858Y-65857381D01*
X202438096Y-65809762D01*
X202485715Y-65762143D01*
X202533334Y-65666905D01*
X202533334Y-64857381D01*
X203533334Y-65857381D02*
X202961905Y-65857381D01*
X203247619Y-65857381D02*
X203247619Y-64857381D01*
X203152381Y-65000238D01*
X203057143Y-65095476D01*
X202961905Y-65143095D01*
X204485715Y-65857381D02*
X203914286Y-65857381D01*
X204200000Y-65857381D02*
X204200000Y-64857381D01*
X204104762Y-65000238D01*
X204009524Y-65095476D01*
X203914286Y-65143095D01*
X202652381Y-77414048D02*
X202652381Y-76747381D01*
X203652381Y-77175953D01*
X202985714Y-75937857D02*
X203652381Y-75937857D01*
X202604762Y-76175953D02*
X203319048Y-76414048D01*
X203319048Y-75795000D01*
X203652381Y-74937857D02*
X203652381Y-75414048D01*
X202652381Y-75414048D01*
X203604762Y-74652143D02*
X203652381Y-74509286D01*
X203652381Y-74271190D01*
X203604762Y-74175952D01*
X203557143Y-74128333D01*
X203461905Y-74080714D01*
X203366667Y-74080714D01*
X203271429Y-74128333D01*
X203223810Y-74175952D01*
X203176190Y-74271190D01*
X203128571Y-74461667D01*
X203080952Y-74556905D01*
X203033333Y-74604524D01*
X202938095Y-74652143D01*
X202842857Y-74652143D01*
X202747619Y-74604524D01*
X202700000Y-74556905D01*
X202652381Y-74461667D01*
X202652381Y-74223571D01*
X202700000Y-74080714D01*
X202747619Y-73699762D02*
X202700000Y-73652143D01*
X202652381Y-73556905D01*
X202652381Y-73318809D01*
X202700000Y-73223571D01*
X202747619Y-73175952D01*
X202842857Y-73128333D01*
X202938095Y-73128333D01*
X203080952Y-73175952D01*
X203652381Y-73747381D01*
X203652381Y-73128333D01*
X202985714Y-72271190D02*
X203652381Y-72271190D01*
X202604762Y-72509286D02*
X203319048Y-72747381D01*
X203319048Y-72128333D01*
X202652381Y-71271190D02*
X202652381Y-71747381D01*
X203128571Y-71795000D01*
X203080952Y-71747381D01*
X203033333Y-71652143D01*
X203033333Y-71414047D01*
X203080952Y-71318809D01*
X203128571Y-71271190D01*
X203223810Y-71223571D01*
X203461905Y-71223571D01*
X203557143Y-71271190D01*
X203604762Y-71318809D01*
X203652381Y-71414047D01*
X203652381Y-71652143D01*
X203604762Y-71747381D01*
X203557143Y-71795000D01*
X222916905Y-64857381D02*
X222916905Y-65666905D01*
X222964524Y-65762143D01*
X223012143Y-65809762D01*
X223107381Y-65857381D01*
X223297858Y-65857381D01*
X223393096Y-65809762D01*
X223440715Y-65762143D01*
X223488334Y-65666905D01*
X223488334Y-64857381D01*
X224488334Y-65857381D02*
X223916905Y-65857381D01*
X224202619Y-65857381D02*
X224202619Y-64857381D01*
X224107381Y-65000238D01*
X224012143Y-65095476D01*
X223916905Y-65143095D01*
X224821667Y-64857381D02*
X225440715Y-64857381D01*
X225107381Y-65238333D01*
X225250239Y-65238333D01*
X225345477Y-65285952D01*
X225393096Y-65333571D01*
X225440715Y-65428810D01*
X225440715Y-65666905D01*
X225393096Y-65762143D01*
X225345477Y-65809762D01*
X225250239Y-65857381D01*
X224964524Y-65857381D01*
X224869286Y-65809762D01*
X224821667Y-65762143D01*
X221345476Y-86447381D02*
X222012143Y-86447381D01*
X221345476Y-87447381D01*
X222012143Y-87447381D01*
X222535952Y-86875952D02*
X222440714Y-86828333D01*
X222393095Y-86780714D01*
X222345476Y-86685476D01*
X222345476Y-86637857D01*
X222393095Y-86542619D01*
X222440714Y-86495000D01*
X222535952Y-86447381D01*
X222726429Y-86447381D01*
X222821667Y-86495000D01*
X222869286Y-86542619D01*
X222916905Y-86637857D01*
X222916905Y-86685476D01*
X222869286Y-86780714D01*
X222821667Y-86828333D01*
X222726429Y-86875952D01*
X222535952Y-86875952D01*
X222440714Y-86923571D01*
X222393095Y-86971190D01*
X222345476Y-87066429D01*
X222345476Y-87256905D01*
X222393095Y-87352143D01*
X222440714Y-87399762D01*
X222535952Y-87447381D01*
X222726429Y-87447381D01*
X222821667Y-87399762D01*
X222869286Y-87352143D01*
X222916905Y-87256905D01*
X222916905Y-87066429D01*
X222869286Y-86971190D01*
X222821667Y-86923571D01*
X222726429Y-86875952D01*
X223535952Y-86447381D02*
X223631191Y-86447381D01*
X223726429Y-86495000D01*
X223774048Y-86542619D01*
X223821667Y-86637857D01*
X223869286Y-86828333D01*
X223869286Y-87066429D01*
X223821667Y-87256905D01*
X223774048Y-87352143D01*
X223726429Y-87399762D01*
X223631191Y-87447381D01*
X223535952Y-87447381D01*
X223440714Y-87399762D01*
X223393095Y-87352143D01*
X223345476Y-87256905D01*
X223297857Y-87066429D01*
X223297857Y-86828333D01*
X223345476Y-86637857D01*
X223393095Y-86542619D01*
X223440714Y-86495000D01*
X223535952Y-86447381D01*
X224869286Y-87352143D02*
X224821667Y-87399762D01*
X224678810Y-87447381D01*
X224583572Y-87447381D01*
X224440714Y-87399762D01*
X224345476Y-87304524D01*
X224297857Y-87209286D01*
X224250238Y-87018810D01*
X224250238Y-86875952D01*
X224297857Y-86685476D01*
X224345476Y-86590238D01*
X224440714Y-86495000D01*
X224583572Y-86447381D01*
X224678810Y-86447381D01*
X224821667Y-86495000D01*
X224869286Y-86542619D01*
X225297857Y-87447381D02*
X225297857Y-86447381D01*
X225678810Y-86447381D01*
X225774048Y-86495000D01*
X225821667Y-86542619D01*
X225869286Y-86637857D01*
X225869286Y-86780714D01*
X225821667Y-86875952D01*
X225774048Y-86923571D01*
X225678810Y-86971190D01*
X225297857Y-86971190D01*
X226297857Y-86447381D02*
X226297857Y-87256905D01*
X226345476Y-87352143D01*
X226393095Y-87399762D01*
X226488333Y-87447381D01*
X226678810Y-87447381D01*
X226774048Y-87399762D01*
X226821667Y-87352143D01*
X226869286Y-87256905D01*
X226869286Y-86447381D01*
X186721905Y-64857381D02*
X186721905Y-65666905D01*
X186769524Y-65762143D01*
X186817143Y-65809762D01*
X186912381Y-65857381D01*
X187102858Y-65857381D01*
X187198096Y-65809762D01*
X187245715Y-65762143D01*
X187293334Y-65666905D01*
X187293334Y-64857381D01*
X188293334Y-65857381D02*
X187721905Y-65857381D01*
X188007619Y-65857381D02*
X188007619Y-64857381D01*
X187912381Y-65000238D01*
X187817143Y-65095476D01*
X187721905Y-65143095D01*
X189150477Y-65190714D02*
X189150477Y-65857381D01*
X188912381Y-64809762D02*
X188674286Y-65524048D01*
X189293334Y-65524048D01*
X187412381Y-77414048D02*
X187412381Y-76747381D01*
X188412381Y-77175953D01*
X187745714Y-75937857D02*
X188412381Y-75937857D01*
X187364762Y-76175953D02*
X188079048Y-76414048D01*
X188079048Y-75795000D01*
X188412381Y-74937857D02*
X188412381Y-75414048D01*
X187412381Y-75414048D01*
X188364762Y-74652143D02*
X188412381Y-74509286D01*
X188412381Y-74271190D01*
X188364762Y-74175952D01*
X188317143Y-74128333D01*
X188221905Y-74080714D01*
X188126667Y-74080714D01*
X188031429Y-74128333D01*
X187983810Y-74175952D01*
X187936190Y-74271190D01*
X187888571Y-74461667D01*
X187840952Y-74556905D01*
X187793333Y-74604524D01*
X187698095Y-74652143D01*
X187602857Y-74652143D01*
X187507619Y-74604524D01*
X187460000Y-74556905D01*
X187412381Y-74461667D01*
X187412381Y-74223571D01*
X187460000Y-74080714D01*
X187507619Y-73699762D02*
X187460000Y-73652143D01*
X187412381Y-73556905D01*
X187412381Y-73318809D01*
X187460000Y-73223571D01*
X187507619Y-73175952D01*
X187602857Y-73128333D01*
X187698095Y-73128333D01*
X187840952Y-73175952D01*
X188412381Y-73747381D01*
X188412381Y-73128333D01*
X187745714Y-72271190D02*
X188412381Y-72271190D01*
X187364762Y-72509286D02*
X188079048Y-72747381D01*
X188079048Y-72128333D01*
X187412381Y-71271190D02*
X187412381Y-71747381D01*
X187888571Y-71795000D01*
X187840952Y-71747381D01*
X187793333Y-71652143D01*
X187793333Y-71414047D01*
X187840952Y-71318809D01*
X187888571Y-71271190D01*
X187983810Y-71223571D01*
X188221905Y-71223571D01*
X188317143Y-71271190D01*
X188364762Y-71318809D01*
X188412381Y-71414047D01*
X188412381Y-71652143D01*
X188364762Y-71747381D01*
X188317143Y-71795000D01*
X213082143Y-91447857D02*
X213129762Y-91495476D01*
X213177381Y-91638333D01*
X213177381Y-91733571D01*
X213129762Y-91876429D01*
X213034524Y-91971667D01*
X212939286Y-92019286D01*
X212748810Y-92066905D01*
X212605952Y-92066905D01*
X212415476Y-92019286D01*
X212320238Y-91971667D01*
X212225000Y-91876429D01*
X212177381Y-91733571D01*
X212177381Y-91638333D01*
X212225000Y-91495476D01*
X212272619Y-91447857D01*
X213177381Y-90495476D02*
X213177381Y-91066905D01*
X213177381Y-90781191D02*
X212177381Y-90781191D01*
X212320238Y-90876429D01*
X212415476Y-90971667D01*
X212463095Y-91066905D01*
X212177381Y-90162143D02*
X212177381Y-89543095D01*
X212558333Y-89876429D01*
X212558333Y-89733571D01*
X212605952Y-89638333D01*
X212653571Y-89590714D01*
X212748810Y-89543095D01*
X212986905Y-89543095D01*
X213082143Y-89590714D01*
X213129762Y-89638333D01*
X213177381Y-89733571D01*
X213177381Y-90019286D01*
X213129762Y-90114524D01*
X213082143Y-90162143D01*
X195937143Y-66047857D02*
X195984762Y-66095476D01*
X196032381Y-66238333D01*
X196032381Y-66333571D01*
X195984762Y-66476429D01*
X195889524Y-66571667D01*
X195794286Y-66619286D01*
X195603810Y-66666905D01*
X195460952Y-66666905D01*
X195270476Y-66619286D01*
X195175238Y-66571667D01*
X195080000Y-66476429D01*
X195032381Y-66333571D01*
X195032381Y-66238333D01*
X195080000Y-66095476D01*
X195127619Y-66047857D01*
X196032381Y-65095476D02*
X196032381Y-65666905D01*
X196032381Y-65381191D02*
X195032381Y-65381191D01*
X195175238Y-65476429D01*
X195270476Y-65571667D01*
X195318095Y-65666905D01*
X195365714Y-64238333D02*
X196032381Y-64238333D01*
X194984762Y-64476429D02*
X195699048Y-64714524D01*
X195699048Y-64095476D01*
X150217143Y-90336666D02*
X150264762Y-90384285D01*
X150312381Y-90527142D01*
X150312381Y-90622380D01*
X150264762Y-90765238D01*
X150169524Y-90860476D01*
X150074286Y-90908095D01*
X149883810Y-90955714D01*
X149740952Y-90955714D01*
X149550476Y-90908095D01*
X149455238Y-90860476D01*
X149360000Y-90765238D01*
X149312381Y-90622380D01*
X149312381Y-90527142D01*
X149360000Y-90384285D01*
X149407619Y-90336666D01*
X149407619Y-89955714D02*
X149360000Y-89908095D01*
X149312381Y-89812857D01*
X149312381Y-89574761D01*
X149360000Y-89479523D01*
X149407619Y-89431904D01*
X149502857Y-89384285D01*
X149598095Y-89384285D01*
X149740952Y-89431904D01*
X150312381Y-90003333D01*
X150312381Y-89384285D01*
X150217143Y-114466666D02*
X150264762Y-114514285D01*
X150312381Y-114657142D01*
X150312381Y-114752380D01*
X150264762Y-114895238D01*
X150169524Y-114990476D01*
X150074286Y-115038095D01*
X149883810Y-115085714D01*
X149740952Y-115085714D01*
X149550476Y-115038095D01*
X149455238Y-114990476D01*
X149360000Y-114895238D01*
X149312381Y-114752380D01*
X149312381Y-114657142D01*
X149360000Y-114514285D01*
X149407619Y-114466666D01*
X150312381Y-113514285D02*
X150312381Y-114085714D01*
X150312381Y-113800000D02*
X149312381Y-113800000D01*
X149455238Y-113895238D01*
X149550476Y-113990476D01*
X149598095Y-114085714D01*
X231036905Y-125547381D02*
X231036905Y-124547381D01*
X231275000Y-124547381D01*
X231417858Y-124595000D01*
X231513096Y-124690238D01*
X231560715Y-124785476D01*
X231608334Y-124975952D01*
X231608334Y-125118810D01*
X231560715Y-125309286D01*
X231513096Y-125404524D01*
X231417858Y-125499762D01*
X231275000Y-125547381D01*
X231036905Y-125547381D01*
X232560715Y-125547381D02*
X231989286Y-125547381D01*
X232275000Y-125547381D02*
X232275000Y-124547381D01*
X232179762Y-124690238D01*
X232084524Y-124785476D01*
X231989286Y-124833095D01*
X220162381Y-121451666D02*
X219686190Y-121785000D01*
X220162381Y-122023095D02*
X219162381Y-122023095D01*
X219162381Y-121642142D01*
X219210000Y-121546904D01*
X219257619Y-121499285D01*
X219352857Y-121451666D01*
X219495714Y-121451666D01*
X219590952Y-121499285D01*
X219638571Y-121546904D01*
X219686190Y-121642142D01*
X219686190Y-122023095D01*
X219495714Y-120594523D02*
X220162381Y-120594523D01*
X219114762Y-120832619D02*
X219829048Y-121070714D01*
X219829048Y-120451666D01*
X221646905Y-120832619D02*
X221694524Y-120785000D01*
X221789762Y-120737381D01*
X222027858Y-120737381D01*
X222123096Y-120785000D01*
X222170715Y-120832619D01*
X222218334Y-120927857D01*
X222218334Y-121023095D01*
X222170715Y-121165952D01*
X221599286Y-121737381D01*
X222218334Y-121737381D01*
X222599286Y-120832619D02*
X222646905Y-120785000D01*
X222742143Y-120737381D01*
X222980239Y-120737381D01*
X223075477Y-120785000D01*
X223123096Y-120832619D01*
X223170715Y-120927857D01*
X223170715Y-121023095D01*
X223123096Y-121165952D01*
X222551667Y-121737381D01*
X223170715Y-121737381D01*
X223789762Y-120737381D02*
X223885001Y-120737381D01*
X223980239Y-120785000D01*
X224027858Y-120832619D01*
X224075477Y-120927857D01*
X224123096Y-121118333D01*
X224123096Y-121356429D01*
X224075477Y-121546905D01*
X224027858Y-121642143D01*
X223980239Y-121689762D01*
X223885001Y-121737381D01*
X223789762Y-121737381D01*
X223694524Y-121689762D01*
X223646905Y-121642143D01*
X223599286Y-121546905D01*
X223551667Y-121356429D01*
X223551667Y-121118333D01*
X223599286Y-120927857D01*
X223646905Y-120832619D01*
X223694524Y-120785000D01*
X223789762Y-120737381D01*
M02*
