G04 #@! TF.FileFunction,Copper,L1,Top,Signal*
%FSLAX46Y46*%
G04 Gerber Fmt 4.6, Leading zero omitted, Abs format (unit mm)*
G04 Created by KiCad (PCBNEW 4.0.7) date 07/03/19 12:58:59*
%MOMM*%
%LPD*%
G01*
G04 APERTURE LIST*
%ADD10C,0.100000*%
%ADD11C,1.600000*%
%ADD12O,1.600000X1.600000*%
%ADD13R,1.524000X8.000000*%
%ADD14C,1.520000*%
%ADD15R,1.520000X1.520000*%
%ADD16R,1.600000X1.600000*%
%ADD17R,1.800000X1.800000*%
%ADD18C,1.800000*%
%ADD19C,0.600000*%
%ADD20C,0.250000*%
G04 APERTURE END LIST*
D10*
D11*
X226695000Y-118110000D03*
D12*
X216535000Y-118110000D03*
D11*
X165100000Y-111760000D03*
X165100000Y-116760000D03*
X195580000Y-120650000D03*
X195580000Y-115650000D03*
X165100000Y-87630000D03*
X165100000Y-92630000D03*
X149860000Y-62865000D03*
X149860000Y-67865000D03*
X195580000Y-97790000D03*
X195580000Y-102790000D03*
X168910000Y-111760000D03*
X168910000Y-116760000D03*
X165100000Y-62865000D03*
X165100000Y-67865000D03*
X180340000Y-62865000D03*
X180340000Y-67865000D03*
X210820000Y-62865000D03*
X210820000Y-67865000D03*
D13*
X139065000Y-155446726D03*
X146685000Y-155446726D03*
X149225000Y-155446726D03*
X151765000Y-155446726D03*
X154305000Y-155446726D03*
X156845000Y-155446726D03*
X159385000Y-155446726D03*
X161925000Y-155446726D03*
X164465000Y-155446726D03*
X169545000Y-155446726D03*
X172085000Y-155446726D03*
X167005000Y-155446726D03*
X141605000Y-155446726D03*
X144145000Y-155446726D03*
X174625000Y-155446726D03*
X177165000Y-155446726D03*
X179705000Y-155446726D03*
X182245000Y-155446726D03*
X184785000Y-155446726D03*
X187325000Y-155446726D03*
X189865000Y-155446726D03*
X192405000Y-155446726D03*
D14*
X168910000Y-107315000D03*
X171450000Y-107315000D03*
D15*
X166370000Y-107315000D03*
D11*
X172720000Y-129540000D03*
D12*
X172720000Y-119380000D03*
D11*
X168910000Y-119380000D03*
D12*
X168910000Y-129540000D03*
D11*
X165100000Y-119380000D03*
D12*
X165100000Y-129540000D03*
D11*
X226695000Y-114935000D03*
D12*
X216535000Y-114935000D03*
D16*
X138430000Y-111760000D03*
D12*
X146050000Y-127000000D03*
X138430000Y-114300000D03*
X146050000Y-124460000D03*
X138430000Y-116840000D03*
X146050000Y-121920000D03*
X138430000Y-119380000D03*
X146050000Y-119380000D03*
X138430000Y-121920000D03*
X146050000Y-116840000D03*
X138430000Y-124460000D03*
X146050000Y-114300000D03*
X138430000Y-127000000D03*
X146050000Y-111760000D03*
D16*
X138430000Y-87630000D03*
D12*
X146050000Y-102870000D03*
X138430000Y-90170000D03*
X146050000Y-100330000D03*
X138430000Y-92710000D03*
X146050000Y-97790000D03*
X138430000Y-95250000D03*
X146050000Y-95250000D03*
X138430000Y-97790000D03*
X146050000Y-92710000D03*
X138430000Y-100330000D03*
X146050000Y-90170000D03*
X138430000Y-102870000D03*
X146050000Y-87630000D03*
D16*
X153670000Y-111760000D03*
D12*
X161290000Y-129540000D03*
X153670000Y-114300000D03*
X161290000Y-127000000D03*
X153670000Y-116840000D03*
X161290000Y-124460000D03*
X153670000Y-119380000D03*
X161290000Y-121920000D03*
X153670000Y-121920000D03*
X161290000Y-119380000D03*
X153670000Y-124460000D03*
X161290000Y-116840000D03*
X153670000Y-127000000D03*
X161290000Y-114300000D03*
X153670000Y-129540000D03*
X161290000Y-111760000D03*
D16*
X207010000Y-120650000D03*
D12*
X199390000Y-97790000D03*
X207010000Y-118110000D03*
X199390000Y-100330000D03*
X207010000Y-115570000D03*
X199390000Y-102870000D03*
X207010000Y-113030000D03*
X199390000Y-105410000D03*
X207010000Y-110490000D03*
X199390000Y-107950000D03*
X207010000Y-107950000D03*
X199390000Y-110490000D03*
X207010000Y-105410000D03*
X199390000Y-113030000D03*
X207010000Y-102870000D03*
X199390000Y-115570000D03*
X207010000Y-100330000D03*
X199390000Y-118110000D03*
X207010000Y-97790000D03*
X199390000Y-120650000D03*
D16*
X153670000Y-87630000D03*
D12*
X161290000Y-102870000D03*
X153670000Y-90170000D03*
X161290000Y-100330000D03*
X153670000Y-92710000D03*
X161290000Y-97790000D03*
X153670000Y-95250000D03*
X161290000Y-95250000D03*
X153670000Y-97790000D03*
X161290000Y-92710000D03*
X153670000Y-100330000D03*
X161290000Y-90170000D03*
X153670000Y-102870000D03*
X161290000Y-87630000D03*
D16*
X138430000Y-62865000D03*
D12*
X146050000Y-78105000D03*
X138430000Y-65405000D03*
X146050000Y-75565000D03*
X138430000Y-67945000D03*
X146050000Y-73025000D03*
X138430000Y-70485000D03*
X146050000Y-70485000D03*
X138430000Y-73025000D03*
X146050000Y-67945000D03*
X138430000Y-75565000D03*
X146050000Y-65405000D03*
X138430000Y-78105000D03*
X146050000Y-62865000D03*
D16*
X184150000Y-97790000D03*
D12*
X191770000Y-120650000D03*
X184150000Y-100330000D03*
X191770000Y-118110000D03*
X184150000Y-102870000D03*
X191770000Y-115570000D03*
X184150000Y-105410000D03*
X191770000Y-113030000D03*
X184150000Y-107950000D03*
X191770000Y-110490000D03*
X184150000Y-110490000D03*
X191770000Y-107950000D03*
X184150000Y-113030000D03*
X191770000Y-105410000D03*
X184150000Y-115570000D03*
X191770000Y-102870000D03*
X184150000Y-118110000D03*
X191770000Y-100330000D03*
X184150000Y-120650000D03*
X191770000Y-97790000D03*
D16*
X153670000Y-62865000D03*
D12*
X161290000Y-78105000D03*
X153670000Y-65405000D03*
X161290000Y-75565000D03*
X153670000Y-67945000D03*
X161290000Y-73025000D03*
X153670000Y-70485000D03*
X161290000Y-70485000D03*
X153670000Y-73025000D03*
X161290000Y-67945000D03*
X153670000Y-75565000D03*
X161290000Y-65405000D03*
X153670000Y-78105000D03*
X161290000Y-62865000D03*
D16*
X168910000Y-62865000D03*
D12*
X176530000Y-80645000D03*
X168910000Y-65405000D03*
X176530000Y-78105000D03*
X168910000Y-67945000D03*
X176530000Y-75565000D03*
X168910000Y-70485000D03*
X176530000Y-73025000D03*
X168910000Y-73025000D03*
X176530000Y-70485000D03*
X168910000Y-75565000D03*
X176530000Y-67945000D03*
X168910000Y-78105000D03*
X176530000Y-65405000D03*
X168910000Y-80645000D03*
X176530000Y-62865000D03*
D16*
X199390000Y-62865000D03*
D12*
X207010000Y-85725000D03*
X199390000Y-65405000D03*
X207010000Y-83185000D03*
X199390000Y-67945000D03*
X207010000Y-80645000D03*
X199390000Y-70485000D03*
X207010000Y-78105000D03*
X199390000Y-73025000D03*
X207010000Y-75565000D03*
X199390000Y-75565000D03*
X207010000Y-73025000D03*
X199390000Y-78105000D03*
X207010000Y-70485000D03*
X199390000Y-80645000D03*
X207010000Y-67945000D03*
X199390000Y-83185000D03*
X207010000Y-65405000D03*
X199390000Y-85725000D03*
X207010000Y-62865000D03*
D16*
X216535000Y-62865000D03*
D12*
X231775000Y-111125000D03*
X216535000Y-65405000D03*
X231775000Y-108585000D03*
X216535000Y-67945000D03*
X231775000Y-106045000D03*
X216535000Y-70485000D03*
X231775000Y-103505000D03*
X216535000Y-73025000D03*
X231775000Y-100965000D03*
X216535000Y-75565000D03*
X231775000Y-98425000D03*
X216535000Y-78105000D03*
X231775000Y-95885000D03*
X216535000Y-80645000D03*
X231775000Y-93345000D03*
X216535000Y-83185000D03*
X231775000Y-90805000D03*
X216535000Y-85725000D03*
X231775000Y-88265000D03*
X216535000Y-88265000D03*
X231775000Y-85725000D03*
X216535000Y-90805000D03*
X231775000Y-83185000D03*
X216535000Y-93345000D03*
X231775000Y-80645000D03*
X216535000Y-95885000D03*
X231775000Y-78105000D03*
X216535000Y-98425000D03*
X231775000Y-75565000D03*
X216535000Y-100965000D03*
X231775000Y-73025000D03*
X216535000Y-103505000D03*
X231775000Y-70485000D03*
X216535000Y-106045000D03*
X231775000Y-67945000D03*
X216535000Y-108585000D03*
X231775000Y-65405000D03*
X216535000Y-111125000D03*
X231775000Y-62865000D03*
D16*
X184150000Y-62865000D03*
D12*
X191770000Y-85725000D03*
X184150000Y-65405000D03*
X191770000Y-83185000D03*
X184150000Y-67945000D03*
X191770000Y-80645000D03*
X184150000Y-70485000D03*
X191770000Y-78105000D03*
X184150000Y-73025000D03*
X191770000Y-75565000D03*
X184150000Y-75565000D03*
X191770000Y-73025000D03*
X184150000Y-78105000D03*
X191770000Y-70485000D03*
X184150000Y-80645000D03*
X191770000Y-67945000D03*
X184150000Y-83185000D03*
X191770000Y-65405000D03*
X184150000Y-85725000D03*
X191770000Y-62865000D03*
D11*
X212725000Y-88265000D03*
X212725000Y-93265000D03*
X195580000Y-62865000D03*
X195580000Y-67865000D03*
X149860000Y-87630000D03*
X149860000Y-92630000D03*
X149860000Y-111760000D03*
X149860000Y-116760000D03*
D17*
X231775000Y-121285000D03*
D18*
X231775000Y-118745000D03*
D11*
X226695000Y-121285000D03*
D12*
X216535000Y-121285000D03*
D19*
X158750000Y-85090000D03*
X173990000Y-71120000D03*
X222885000Y-89535000D03*
X190500000Y-140335000D03*
X144145000Y-149860000D03*
X173990000Y-140970000D03*
X173355000Y-64770000D03*
X189865000Y-99060000D03*
X189865000Y-121285000D03*
X139065000Y-149860000D03*
X192405000Y-149860000D03*
X148590000Y-132080000D03*
X147955000Y-130810000D03*
X163830000Y-145415000D03*
X153670000Y-148590000D03*
X144780000Y-128270000D03*
X142875000Y-97790000D03*
X143510000Y-100965000D03*
X143510000Y-108585000D03*
X143510000Y-109855000D03*
X146050000Y-129540000D03*
X140335000Y-88265000D03*
X158115000Y-125095000D03*
X158115000Y-114300000D03*
X157480000Y-109855000D03*
X157480000Y-108585000D03*
X156210000Y-87630000D03*
X155575000Y-83820000D03*
X156210000Y-100965000D03*
X156845000Y-117475000D03*
X157480000Y-125730000D03*
X201295000Y-104775000D03*
X197485000Y-105410000D03*
X201295000Y-106045000D03*
X197485000Y-107315000D03*
X196850000Y-109855000D03*
X189865000Y-149225000D03*
X174625000Y-141605000D03*
X170180000Y-95885000D03*
X174625000Y-132080000D03*
X205105000Y-118745000D03*
X205105000Y-120015000D03*
X172720000Y-100965000D03*
X174625000Y-142875000D03*
X182880000Y-86995000D03*
X187960000Y-77470000D03*
X175260000Y-132715000D03*
X173355000Y-100330000D03*
X175895000Y-132080000D03*
X175260000Y-143510000D03*
X183515000Y-87630000D03*
X188595000Y-78105000D03*
X175895000Y-144145000D03*
X176530000Y-132715000D03*
X173990000Y-95885000D03*
X184150000Y-88265000D03*
X188595000Y-80010000D03*
X176530000Y-144780000D03*
X177165000Y-132080000D03*
X174625000Y-96520000D03*
X184785000Y-88900000D03*
X189230000Y-81280000D03*
X177165000Y-145415000D03*
X177800000Y-132715000D03*
X175260000Y-95885000D03*
X184150000Y-89535000D03*
X189230000Y-82550000D03*
X189230000Y-85725000D03*
X184785000Y-90170000D03*
X175895000Y-96520000D03*
X178435000Y-132080000D03*
X177800000Y-146050000D03*
X170180000Y-86995000D03*
X207645000Y-93345000D03*
X223520000Y-92075000D03*
X219075000Y-92075000D03*
X177800000Y-86360000D03*
X172720000Y-86360000D03*
X153035000Y-145415000D03*
X172720000Y-140335000D03*
X173355000Y-132715000D03*
X170815000Y-102235000D03*
X144780000Y-150495000D03*
X156845000Y-148590000D03*
X203835000Y-90805000D03*
X182245000Y-146050000D03*
X204470000Y-91440000D03*
X182880000Y-145415000D03*
X205105000Y-90805000D03*
X183515000Y-146050000D03*
X205740000Y-91440000D03*
X184150000Y-145415000D03*
X206375000Y-90805000D03*
X184785000Y-144780000D03*
X180340000Y-132715000D03*
X180340000Y-145415000D03*
X201930000Y-91440000D03*
X177800000Y-95885000D03*
X202565000Y-90805000D03*
X180975000Y-146050000D03*
X203200000Y-91440000D03*
X181610000Y-145415000D03*
X191770000Y-90805000D03*
X177165000Y-96520000D03*
X179705000Y-132080000D03*
X179705000Y-146050000D03*
X190500000Y-90805000D03*
X189865000Y-86360000D03*
X176530000Y-95885000D03*
X179070000Y-132715000D03*
X179070000Y-145415000D03*
X180975000Y-86360000D03*
X171450000Y-103505000D03*
X171450000Y-101600000D03*
X155575000Y-92075000D03*
X155575000Y-89535000D03*
X213995000Y-75565000D03*
X208280000Y-85090000D03*
X211455000Y-83820000D03*
X220345000Y-112395000D03*
X220980000Y-104775000D03*
X220345000Y-100965000D03*
X220980000Y-111760000D03*
X142875000Y-118745000D03*
X142240000Y-109855000D03*
X142240000Y-108585000D03*
X142240000Y-100965000D03*
X141605000Y-99060000D03*
X144145000Y-107950000D03*
X140335000Y-86360000D03*
X139700000Y-84455000D03*
X148590000Y-126365000D03*
X142240000Y-98425000D03*
X142875000Y-101600000D03*
X142875000Y-107950000D03*
X142875000Y-110490000D03*
X143510000Y-125095000D03*
X140970000Y-85725000D03*
X143510000Y-97155000D03*
X140335000Y-83820000D03*
X140335000Y-73660000D03*
X152400000Y-96520000D03*
X151130000Y-96520000D03*
X155575000Y-101600000D03*
X155575000Y-98425000D03*
X156210000Y-108585000D03*
X157480000Y-120015000D03*
X140970000Y-99695000D03*
X141605000Y-101600000D03*
X146685000Y-109855000D03*
X141605000Y-106680000D03*
X142240000Y-85725000D03*
X142875000Y-90805000D03*
X142240000Y-88900000D03*
X147320000Y-71755000D03*
X144780000Y-71755000D03*
X142240000Y-83185000D03*
X140970000Y-83185000D03*
X141605000Y-86360000D03*
X158115000Y-106680000D03*
X158750000Y-125730000D03*
X159385000Y-90805000D03*
X158115000Y-95885000D03*
X169545000Y-93980000D03*
X186055000Y-98425000D03*
X158115000Y-103505000D03*
X158750000Y-109855000D03*
X158750000Y-108585000D03*
X201295000Y-64770000D03*
X197485000Y-64770000D03*
X158115000Y-107950000D03*
X158115000Y-110490000D03*
X156845000Y-83820000D03*
X156845000Y-96520000D03*
X156210000Y-76835000D03*
X156210000Y-65405000D03*
X155575000Y-69850000D03*
X186055000Y-64770000D03*
X181610000Y-64135000D03*
X219075000Y-109855000D03*
X219075000Y-106680000D03*
X219075000Y-98425000D03*
X201930000Y-110490000D03*
X197485000Y-113030000D03*
X220345000Y-103505000D03*
X220345000Y-106680000D03*
X218440000Y-110490000D03*
X218440000Y-99060000D03*
X196850000Y-116840000D03*
X207010000Y-95250000D03*
X222885000Y-93980000D03*
X218440000Y-94615000D03*
X169545000Y-87630000D03*
X160655000Y-85725000D03*
X163195000Y-86360000D03*
X223520000Y-93345000D03*
X157480000Y-95250000D03*
X157480000Y-83185000D03*
X156845000Y-76200000D03*
X156210000Y-74295000D03*
X207645000Y-94615000D03*
X213995000Y-95250000D03*
X172085000Y-86995000D03*
X153670000Y-84455000D03*
X156210000Y-91440000D03*
X141605000Y-76200000D03*
X156210000Y-95885000D03*
X156210000Y-83185000D03*
X155575000Y-76200000D03*
X178435000Y-85090000D03*
X218440000Y-90170000D03*
X222885000Y-91440000D03*
X207010000Y-92710000D03*
X142875000Y-76200000D03*
X141605000Y-74930000D03*
X166370000Y-88900000D03*
X159385000Y-83820000D03*
X170180000Y-94615000D03*
X185420000Y-99060000D03*
X207010000Y-93980000D03*
X222885000Y-92710000D03*
X214630000Y-92710000D03*
X161290000Y-84455000D03*
X158750000Y-82550000D03*
X174625000Y-84455000D03*
X174625000Y-71755000D03*
X180975000Y-74295000D03*
X173355000Y-63500000D03*
X182245000Y-77470000D03*
X213360000Y-85725000D03*
X180975000Y-73025000D03*
X205105000Y-66675000D03*
X208915000Y-69850000D03*
X185420000Y-66675000D03*
X180975000Y-71755000D03*
X212090000Y-84455000D03*
X185420000Y-71755000D03*
X180975000Y-70485000D03*
X182880000Y-71120000D03*
X212725000Y-85090000D03*
X220345000Y-80010000D03*
X222250000Y-80645000D03*
X222250000Y-81915000D03*
X220345000Y-81915000D03*
X219075000Y-84455000D03*
X221615000Y-84455000D03*
X218440000Y-86995000D03*
X221615000Y-86995000D03*
X213360000Y-90170000D03*
X220345000Y-68580000D03*
X213995000Y-89535000D03*
X219710000Y-67945000D03*
X213995000Y-86360000D03*
X219075000Y-68580000D03*
X144780000Y-108585000D03*
X144780000Y-110490000D03*
D20*
X226695000Y-118110000D02*
X219075000Y-118110000D01*
X219075000Y-118110000D02*
X217805000Y-119380000D01*
X213360000Y-123190000D02*
X214630000Y-121920000D01*
X214630000Y-121920000D02*
X214630000Y-120015000D01*
X214630000Y-120015000D02*
X215265000Y-119380000D01*
X215265000Y-119380000D02*
X217805000Y-119380000D01*
X226695000Y-118745000D02*
X226695000Y-118110000D01*
X226695000Y-118110000D02*
X226695000Y-114935000D01*
X172085000Y-78105000D02*
X173355000Y-78105000D01*
X173990000Y-77470000D02*
X173990000Y-71120000D01*
X173355000Y-78105000D02*
X173990000Y-77470000D01*
X224155000Y-89535000D02*
X222885000Y-89535000D01*
X235585000Y-90170000D02*
X234950000Y-89535000D01*
X234950000Y-89535000D02*
X224155000Y-89535000D01*
X190500000Y-140335000D02*
X191770000Y-139065000D01*
X144780000Y-109220000D02*
X145415000Y-109855000D01*
X145415000Y-109855000D02*
X146050000Y-110490000D01*
X146050000Y-121920000D02*
X146685000Y-121920000D01*
X146685000Y-121920000D02*
X147320000Y-122555000D01*
X147320000Y-128270000D02*
X146685000Y-128905000D01*
X147320000Y-122555000D02*
X147320000Y-128270000D01*
X173990000Y-140335000D02*
X173990000Y-140970000D01*
X173990000Y-132080000D02*
X173990000Y-140335000D01*
X173990000Y-132080000D02*
X172720000Y-130810000D01*
X172720000Y-130810000D02*
X172720000Y-129540000D01*
X153035000Y-85090000D02*
X144145000Y-85090000D01*
X153035000Y-85090000D02*
X158750000Y-85090000D01*
X168910000Y-78105000D02*
X172085000Y-78105000D01*
X174625000Y-64135000D02*
X175895000Y-62865000D01*
X173990000Y-64135000D02*
X174625000Y-64135000D01*
X173355000Y-64770000D02*
X173990000Y-64135000D01*
X175895000Y-62865000D02*
X176530000Y-62865000D01*
X146050000Y-111760000D02*
X146050000Y-110490000D01*
X138430000Y-111760000D02*
X137160000Y-111760000D01*
X146685000Y-128905000D02*
X137160000Y-128905000D01*
X146050000Y-87630000D02*
X146050000Y-86995000D01*
X146050000Y-86995000D02*
X144145000Y-85090000D01*
X137795000Y-85090000D02*
X137160000Y-85725000D01*
X144145000Y-85090000D02*
X137795000Y-85090000D01*
X143510000Y-109220000D02*
X137795000Y-109220000D01*
X144145000Y-109220000D02*
X143510000Y-109220000D01*
X137795000Y-109220000D02*
X137160000Y-109855000D01*
X146050000Y-111760000D02*
X146050000Y-111125000D01*
X161290000Y-111760000D02*
X161290000Y-111125000D01*
X161290000Y-111125000D02*
X159385000Y-109220000D01*
X159385000Y-109220000D02*
X145415000Y-109220000D01*
X145415000Y-109220000D02*
X144780000Y-109220000D01*
X144780000Y-109220000D02*
X144145000Y-109220000D01*
X138430000Y-111760000D02*
X138430000Y-114300000D01*
X138430000Y-114300000D02*
X138430000Y-116840000D01*
X138430000Y-116840000D02*
X138430000Y-119380000D01*
X191770000Y-123190000D02*
X191770000Y-139065000D01*
X207010000Y-62865000D02*
X205105000Y-60960000D01*
X191770000Y-62865000D02*
X189865000Y-60960000D01*
X176530000Y-62865000D02*
X174625000Y-60960000D01*
X174625000Y-60960000D02*
X175260000Y-60960000D01*
X161290000Y-62865000D02*
X160655000Y-62865000D01*
X160655000Y-62865000D02*
X158750000Y-60960000D01*
X144145000Y-60960000D02*
X147955000Y-60960000D01*
X137160000Y-107950000D02*
X137160000Y-85725000D01*
X137160000Y-85725000D02*
X137160000Y-61595000D01*
X137160000Y-109855000D02*
X137160000Y-107950000D01*
X137795000Y-60960000D02*
X144145000Y-60960000D01*
X137160000Y-61595000D02*
X137795000Y-60960000D01*
X137160000Y-111760000D02*
X137160000Y-109855000D01*
X140335000Y-148590000D02*
X137160000Y-145415000D01*
X137160000Y-145415000D02*
X137160000Y-128905000D01*
X137160000Y-128905000D02*
X137160000Y-119380000D01*
X137160000Y-119380000D02*
X137160000Y-111760000D01*
X141605000Y-149225000D02*
X140970000Y-148590000D01*
X140970000Y-148590000D02*
X140335000Y-148590000D01*
X144145000Y-60960000D02*
X146050000Y-62865000D01*
X144145000Y-155446726D02*
X144145000Y-149860000D01*
X143510000Y-149225000D02*
X141605000Y-149225000D01*
X144145000Y-149860000D02*
X143510000Y-149225000D01*
X141605000Y-155446726D02*
X141605000Y-149225000D01*
X146050000Y-111760000D02*
X149860000Y-111760000D01*
X161290000Y-111760000D02*
X165100000Y-111760000D01*
X146050000Y-87630000D02*
X149860000Y-87630000D01*
X161290000Y-90170000D02*
X153670000Y-90170000D01*
X161290000Y-87630000D02*
X161290000Y-90170000D01*
X161290000Y-87630000D02*
X165100000Y-87630000D01*
X161290000Y-62865000D02*
X165100000Y-62865000D01*
X146050000Y-62865000D02*
X149860000Y-62865000D01*
X163195000Y-60960000D02*
X158750000Y-60960000D01*
X175260000Y-60960000D02*
X163195000Y-60960000D01*
X158750000Y-60960000D02*
X147955000Y-60960000D01*
X178435000Y-60960000D02*
X175260000Y-60960000D01*
X189865000Y-60960000D02*
X178435000Y-60960000D01*
X195580000Y-123190000D02*
X191770000Y-123190000D01*
X189865000Y-99060000D02*
X191135000Y-97790000D01*
X189865000Y-99060000D02*
X189865000Y-99060000D01*
X191770000Y-123190000D02*
X189865000Y-121285000D01*
X191135000Y-97790000D02*
X191770000Y-97790000D01*
X193675000Y-60960000D02*
X189865000Y-60960000D01*
X205105000Y-60960000D02*
X193675000Y-60960000D01*
X208915000Y-60960000D02*
X205105000Y-60960000D01*
X235585000Y-61595000D02*
X234950000Y-60960000D01*
X234950000Y-60960000D02*
X208915000Y-60960000D01*
X235585000Y-90170000D02*
X235585000Y-61595000D01*
X198755000Y-123190000D02*
X199390000Y-123190000D01*
X195580000Y-123190000D02*
X198755000Y-123190000D01*
X199390000Y-123190000D02*
X213360000Y-123190000D01*
X213360000Y-123190000D02*
X227330000Y-123190000D01*
X227330000Y-123190000D02*
X227965000Y-123190000D01*
X227965000Y-123190000D02*
X234950000Y-123190000D01*
X235585000Y-122555000D02*
X235585000Y-90170000D01*
X234950000Y-123190000D02*
X235585000Y-122555000D01*
X195580000Y-97790000D02*
X196215000Y-97790000D01*
X195580000Y-120650000D02*
X199390000Y-120650000D01*
X184150000Y-97790000D02*
X191770000Y-97790000D01*
X212725000Y-88265000D02*
X214630000Y-88265000D01*
X214630000Y-88265000D02*
X216535000Y-88265000D01*
X176530000Y-62865000D02*
X180340000Y-62865000D01*
X207010000Y-62865000D02*
X210820000Y-62865000D01*
X199390000Y-62865000D02*
X207010000Y-62865000D01*
X184150000Y-62865000D02*
X191770000Y-62865000D01*
X195580000Y-62865000D02*
X191770000Y-62865000D01*
X195580000Y-97790000D02*
X191770000Y-97790000D01*
X139065000Y-155446726D02*
X139065000Y-149860000D01*
X192405000Y-155446726D02*
X192405000Y-149860000D01*
X149225000Y-119380000D02*
X148590000Y-119380000D01*
X148590000Y-132080000D02*
X149225000Y-132080000D01*
X147955000Y-120015000D02*
X147955000Y-130810000D01*
X148590000Y-119380000D02*
X147955000Y-120015000D01*
X153670000Y-146050000D02*
X153670000Y-132715000D01*
X153035000Y-147955000D02*
X153670000Y-147320000D01*
X153670000Y-147320000D02*
X153670000Y-146050000D01*
X153035000Y-148590000D02*
X153035000Y-147955000D01*
X153035000Y-132080000D02*
X152400000Y-132080000D01*
X153670000Y-132715000D02*
X153035000Y-132080000D01*
X149225000Y-132080000D02*
X152400000Y-132080000D01*
X149225000Y-119380000D02*
X153670000Y-119380000D01*
X149225000Y-155446726D02*
X149225000Y-150495000D01*
X149860000Y-149860000D02*
X151130000Y-149860000D01*
X151130000Y-149860000D02*
X151765000Y-149225000D01*
X151765000Y-149225000D02*
X152400000Y-149225000D01*
X152400000Y-149225000D02*
X153035000Y-148590000D01*
X149225000Y-150495000D02*
X149860000Y-149860000D01*
X153670000Y-119380000D02*
X161290000Y-119380000D01*
X163830000Y-136525000D02*
X163830000Y-127000000D01*
X158750000Y-124460000D02*
X160020000Y-125730000D01*
X160020000Y-125730000D02*
X162560000Y-125730000D01*
X162560000Y-125730000D02*
X163830000Y-127000000D01*
X153670000Y-124460000D02*
X158750000Y-124460000D01*
X163830000Y-136525000D02*
X163830000Y-145415000D01*
X151765000Y-150495000D02*
X152400000Y-149860000D01*
X153670000Y-149225000D02*
X153670000Y-148590000D01*
X153035000Y-149860000D02*
X153670000Y-149225000D01*
X152400000Y-149860000D02*
X153035000Y-149860000D01*
X151765000Y-155446726D02*
X151765000Y-150495000D01*
X146050000Y-129540000D02*
X146685000Y-130175000D01*
X146685000Y-130810000D02*
X147320000Y-131445000D01*
X146685000Y-130175000D02*
X146685000Y-130810000D01*
X147320000Y-131445000D02*
X149225000Y-131445000D01*
X154305000Y-132080000D02*
X153670000Y-131445000D01*
X153670000Y-131445000D02*
X149225000Y-131445000D01*
X154305000Y-132080000D02*
X154305000Y-139065000D01*
X144780000Y-127635000D02*
X144780000Y-128270000D01*
X140970000Y-91440000D02*
X142875000Y-93345000D01*
X142875000Y-93345000D02*
X142875000Y-97790000D01*
X143510000Y-100965000D02*
X143510000Y-108585000D01*
X143510000Y-109855000D02*
X143510000Y-111125000D01*
X143510000Y-111125000D02*
X144145000Y-111760000D01*
X144145000Y-111760000D02*
X144145000Y-127000000D01*
X144145000Y-127000000D02*
X144780000Y-127635000D01*
X140335000Y-88265000D02*
X140335000Y-90805000D01*
X140335000Y-90805000D02*
X140970000Y-91440000D01*
X154305000Y-139065000D02*
X154305000Y-145415000D01*
X154305000Y-155446726D02*
X154305000Y-145415000D01*
X156845000Y-107950000D02*
X157480000Y-108585000D01*
X157480000Y-132080000D02*
X156845000Y-132080000D01*
X158115000Y-131445000D02*
X157480000Y-132080000D01*
X158115000Y-125095000D02*
X158115000Y-131445000D01*
X158115000Y-114300000D02*
X158115000Y-114300000D01*
X157480000Y-113665000D02*
X158115000Y-114300000D01*
X157480000Y-109855000D02*
X157480000Y-113665000D01*
X155575000Y-132715000D02*
X156210000Y-132080000D01*
X156210000Y-132080000D02*
X156845000Y-132080000D01*
X146050000Y-78105000D02*
X146050000Y-82550000D01*
X154940000Y-83185000D02*
X155575000Y-83820000D01*
X146685000Y-83185000D02*
X154940000Y-83185000D01*
X146050000Y-82550000D02*
X146685000Y-83185000D01*
X156210000Y-105410000D02*
X156210000Y-100965000D01*
X156845000Y-107950000D02*
X156845000Y-106045000D01*
X156210000Y-105410000D02*
X156845000Y-106045000D01*
X169545000Y-149860000D02*
X168910000Y-149225000D01*
X168910000Y-149225000D02*
X156210000Y-149225000D01*
X156210000Y-149225000D02*
X155575000Y-148590000D01*
X155575000Y-148590000D02*
X155575000Y-142875000D01*
X169545000Y-149860000D02*
X169545000Y-155446726D01*
X155575000Y-132715000D02*
X155575000Y-142875000D01*
X199390000Y-102870000D02*
X198755000Y-102870000D01*
X198755000Y-102870000D02*
X197485000Y-104140000D01*
X193675000Y-104140000D02*
X197485000Y-104140000D01*
X192405000Y-102870000D02*
X193675000Y-104140000D01*
X185420000Y-146050000D02*
X185420000Y-127635000D01*
X172085000Y-147320000D02*
X172720000Y-146685000D01*
X172720000Y-146685000D02*
X184785000Y-146685000D01*
X184785000Y-146685000D02*
X185420000Y-146050000D01*
X172085000Y-155446726D02*
X172085000Y-147320000D01*
X186690000Y-102870000D02*
X191770000Y-102870000D01*
X185420000Y-101600000D02*
X186690000Y-102870000D01*
X179070000Y-101600000D02*
X185420000Y-101600000D01*
X178435000Y-102235000D02*
X179070000Y-101600000D01*
X178435000Y-126365000D02*
X178435000Y-102235000D01*
X179070000Y-127000000D02*
X178435000Y-126365000D01*
X184785000Y-127000000D02*
X179070000Y-127000000D01*
X185420000Y-127635000D02*
X184785000Y-127000000D01*
X191770000Y-102870000D02*
X192405000Y-102870000D01*
X156210000Y-131445000D02*
X156845000Y-131445000D01*
X156210000Y-114300000D02*
X155575000Y-114300000D01*
X156845000Y-114935000D02*
X156210000Y-114300000D01*
X156845000Y-117475000D02*
X156845000Y-114935000D01*
X157480000Y-130810000D02*
X157480000Y-125730000D01*
X156845000Y-131445000D02*
X157480000Y-130810000D01*
X153670000Y-114300000D02*
X155575000Y-114300000D01*
X167005000Y-150495000D02*
X167005000Y-155446726D01*
X154940000Y-149225000D02*
X154940000Y-145415000D01*
X155575000Y-149860000D02*
X154940000Y-149225000D01*
X166370000Y-149860000D02*
X155575000Y-149860000D01*
X167005000Y-150495000D02*
X166370000Y-149860000D01*
X154940000Y-145415000D02*
X154940000Y-132080000D01*
X155575000Y-131445000D02*
X154940000Y-132080000D01*
X156210000Y-131445000D02*
X155575000Y-131445000D01*
X153035000Y-114300000D02*
X153670000Y-114300000D01*
X191770000Y-105410000D02*
X197485000Y-105410000D01*
X205105000Y-104775000D02*
X207010000Y-102870000D01*
X201295000Y-104775000D02*
X205105000Y-104775000D01*
X179070000Y-123190000D02*
X179070000Y-125730000D01*
X175260000Y-147320000D02*
X174625000Y-147955000D01*
X185420000Y-147320000D02*
X175260000Y-147320000D01*
X186055000Y-146685000D02*
X185420000Y-147320000D01*
X186055000Y-127000000D02*
X186055000Y-146685000D01*
X185420000Y-126365000D02*
X186055000Y-127000000D01*
X179705000Y-126365000D02*
X185420000Y-126365000D01*
X179070000Y-125730000D02*
X179705000Y-126365000D01*
X174625000Y-155446726D02*
X174625000Y-147955000D01*
X186690000Y-105410000D02*
X191770000Y-105410000D01*
X185420000Y-104140000D02*
X186690000Y-105410000D01*
X179705000Y-104140000D02*
X185420000Y-104140000D01*
X179070000Y-104775000D02*
X179705000Y-104140000D01*
X179070000Y-123190000D02*
X179070000Y-104775000D01*
X191770000Y-107950000D02*
X196850000Y-107950000D01*
X205740000Y-106045000D02*
X206375000Y-105410000D01*
X201295000Y-106045000D02*
X205740000Y-106045000D01*
X196850000Y-107950000D02*
X197485000Y-107315000D01*
X206375000Y-105410000D02*
X207010000Y-105410000D01*
X179705000Y-123825000D02*
X179705000Y-125095000D01*
X177800000Y-147955000D02*
X177165000Y-148590000D01*
X186055000Y-147955000D02*
X177800000Y-147955000D01*
X186690000Y-147320000D02*
X186055000Y-147955000D01*
X186690000Y-126365000D02*
X186690000Y-147320000D01*
X186055000Y-125730000D02*
X186690000Y-126365000D01*
X180340000Y-125730000D02*
X186055000Y-125730000D01*
X179705000Y-125095000D02*
X180340000Y-125730000D01*
X179705000Y-123825000D02*
X179705000Y-107315000D01*
X177165000Y-155446726D02*
X177165000Y-148590000D01*
X179705000Y-107315000D02*
X180340000Y-106680000D01*
X191770000Y-107950000D02*
X186690000Y-107950000D01*
X185420000Y-106680000D02*
X180340000Y-106680000D01*
X186690000Y-107950000D02*
X185420000Y-106680000D01*
X196850000Y-109855000D02*
X196215000Y-110490000D01*
X196215000Y-110490000D02*
X195580000Y-110490000D01*
X180340000Y-124460000D02*
X180975000Y-125095000D01*
X180340000Y-148590000D02*
X179705000Y-149225000D01*
X182245000Y-148590000D02*
X180340000Y-148590000D01*
X186690000Y-148590000D02*
X182245000Y-148590000D01*
X187325000Y-147955000D02*
X186690000Y-148590000D01*
X187325000Y-125730000D02*
X187325000Y-147955000D01*
X186690000Y-125095000D02*
X187325000Y-125730000D01*
X180975000Y-125095000D02*
X186690000Y-125095000D01*
X179705000Y-155446726D02*
X179705000Y-149225000D01*
X186690000Y-110490000D02*
X185420000Y-109220000D01*
X186690000Y-110490000D02*
X191770000Y-110490000D01*
X180975000Y-109220000D02*
X185420000Y-109220000D01*
X180340000Y-109855000D02*
X180975000Y-109220000D01*
X180340000Y-124460000D02*
X180340000Y-109855000D01*
X191770000Y-110490000D02*
X195580000Y-110490000D01*
X191770000Y-113030000D02*
X192405000Y-113030000D01*
X192405000Y-113030000D02*
X193040000Y-112395000D01*
X198755000Y-112395000D02*
X199390000Y-113030000D01*
X193040000Y-112395000D02*
X198755000Y-112395000D01*
X182880000Y-149225000D02*
X187325000Y-149225000D01*
X181610000Y-111760000D02*
X180975000Y-112395000D01*
X180975000Y-112395000D02*
X180975000Y-123825000D01*
X180975000Y-123825000D02*
X181610000Y-124460000D01*
X182245000Y-155446726D02*
X182245000Y-149860000D01*
X186690000Y-113030000D02*
X191770000Y-113030000D01*
X186690000Y-113030000D02*
X185420000Y-111760000D01*
X185420000Y-111760000D02*
X181610000Y-111760000D01*
X187325000Y-124460000D02*
X187960000Y-125095000D01*
X187960000Y-125095000D02*
X187960000Y-148590000D01*
X187960000Y-148590000D02*
X187325000Y-149225000D01*
X182880000Y-149225000D02*
X182245000Y-149860000D01*
X181610000Y-124460000D02*
X187325000Y-124460000D01*
X191770000Y-113030000D02*
X191135000Y-113030000D01*
X198120000Y-114300000D02*
X194310000Y-114300000D01*
X198120000Y-114300000D02*
X200660000Y-114300000D01*
X201930000Y-113030000D02*
X200660000Y-114300000D01*
X207010000Y-113030000D02*
X201930000Y-113030000D01*
X193040000Y-115570000D02*
X191770000Y-115570000D01*
X194310000Y-114300000D02*
X193040000Y-115570000D01*
X184150000Y-123825000D02*
X187960000Y-123825000D01*
X185420000Y-149860000D02*
X184785000Y-150495000D01*
X187960000Y-149860000D02*
X185420000Y-149860000D01*
X188595000Y-149225000D02*
X187960000Y-149860000D01*
X188595000Y-124460000D02*
X188595000Y-149225000D01*
X187960000Y-123825000D02*
X188595000Y-124460000D01*
X184785000Y-155446726D02*
X184785000Y-150495000D01*
X181610000Y-114935000D02*
X182245000Y-114300000D01*
X181610000Y-123190000D02*
X181610000Y-114935000D01*
X182245000Y-123825000D02*
X181610000Y-123190000D01*
X184150000Y-123825000D02*
X182245000Y-123825000D01*
X191770000Y-115570000D02*
X186690000Y-115570000D01*
X186690000Y-115570000D02*
X185420000Y-114300000D01*
X185420000Y-114300000D02*
X182245000Y-114300000D01*
X184785000Y-155446726D02*
X184785000Y-151765000D01*
X199390000Y-115570000D02*
X196850000Y-118110000D01*
X186690000Y-123190000D02*
X188595000Y-123190000D01*
X187960000Y-150495000D02*
X187325000Y-151130000D01*
X188595000Y-150495000D02*
X187960000Y-150495000D01*
X189230000Y-149860000D02*
X188595000Y-150495000D01*
X189230000Y-123825000D02*
X189230000Y-149860000D01*
X188595000Y-123190000D02*
X189230000Y-123825000D01*
X187325000Y-155446726D02*
X187325000Y-151130000D01*
X182245000Y-117475000D02*
X182245000Y-122555000D01*
X182245000Y-122555000D02*
X182880000Y-123190000D01*
X182245000Y-117475000D02*
X182880000Y-116840000D01*
X186690000Y-123190000D02*
X182880000Y-123190000D01*
X191770000Y-118110000D02*
X186690000Y-118110000D01*
X185420000Y-116840000D02*
X182880000Y-116840000D01*
X186690000Y-118110000D02*
X185420000Y-116840000D01*
X191770000Y-118110000D02*
X196850000Y-118110000D01*
X174625000Y-139700000D02*
X174625000Y-132080000D01*
X174625000Y-141605000D02*
X174625000Y-139700000D01*
X163195000Y-94615000D02*
X161290000Y-92710000D01*
X168910000Y-94615000D02*
X163195000Y-94615000D01*
X170180000Y-95885000D02*
X168910000Y-94615000D01*
X201295000Y-121920000D02*
X204470000Y-121920000D01*
X191770000Y-120650000D02*
X193040000Y-121920000D01*
X201295000Y-121920000D02*
X193040000Y-121920000D01*
X205740000Y-115570000D02*
X207010000Y-115570000D01*
X205105000Y-116205000D02*
X205740000Y-115570000D01*
X205105000Y-118745000D02*
X205105000Y-116205000D01*
X205105000Y-121285000D02*
X205105000Y-120015000D01*
X204470000Y-121920000D02*
X205105000Y-121285000D01*
X183515000Y-119380000D02*
X182880000Y-120015000D01*
X189865000Y-123190000D02*
X189865000Y-149225000D01*
X189865000Y-149225000D02*
X189865000Y-155446726D01*
X189230000Y-122555000D02*
X189865000Y-123190000D01*
X183515000Y-122555000D02*
X189230000Y-122555000D01*
X182880000Y-121920000D02*
X183515000Y-122555000D01*
X182880000Y-120015000D02*
X182880000Y-121920000D01*
X191770000Y-120650000D02*
X186690000Y-120650000D01*
X185420000Y-119380000D02*
X183515000Y-119380000D01*
X186690000Y-120650000D02*
X185420000Y-119380000D01*
X175260000Y-132715000D02*
X175260000Y-142240000D01*
X175260000Y-142240000D02*
X174625000Y-142875000D01*
X179705000Y-86995000D02*
X173355000Y-86995000D01*
X182880000Y-86995000D02*
X179705000Y-86995000D01*
X191135000Y-67945000D02*
X190500000Y-68580000D01*
X190500000Y-68580000D02*
X190500000Y-69850000D01*
X190500000Y-69850000D02*
X189865000Y-70485000D01*
X189865000Y-70485000D02*
X189865000Y-71755000D01*
X189865000Y-71755000D02*
X189230000Y-72390000D01*
X189230000Y-72390000D02*
X189230000Y-73660000D01*
X189230000Y-73660000D02*
X188595000Y-74295000D01*
X188595000Y-74295000D02*
X188595000Y-75565000D01*
X188595000Y-75565000D02*
X187960000Y-76200000D01*
X187960000Y-76200000D02*
X187960000Y-77470000D01*
X172720000Y-87630000D02*
X172720000Y-100965000D01*
X173355000Y-86995000D02*
X172720000Y-87630000D01*
X191770000Y-67945000D02*
X191135000Y-67945000D01*
X175895000Y-142875000D02*
X175260000Y-143510000D01*
X175895000Y-132080000D02*
X175895000Y-142875000D01*
X173990000Y-87630000D02*
X173355000Y-88265000D01*
X173355000Y-88265000D02*
X173355000Y-100330000D01*
X179070000Y-87630000D02*
X183515000Y-87630000D01*
X188595000Y-76835000D02*
X188595000Y-78105000D01*
X189230000Y-76200000D02*
X188595000Y-76835000D01*
X189230000Y-74930000D02*
X189230000Y-76200000D01*
X189865000Y-74295000D02*
X189230000Y-74930000D01*
X189865000Y-73025000D02*
X189865000Y-74295000D01*
X190500000Y-72390000D02*
X189865000Y-73025000D01*
X190500000Y-71120000D02*
X190500000Y-72390000D01*
X191135000Y-70485000D02*
X190500000Y-71120000D01*
X179070000Y-87630000D02*
X173990000Y-87630000D01*
X191770000Y-70485000D02*
X191135000Y-70485000D01*
X176530000Y-132715000D02*
X176530000Y-143510000D01*
X176530000Y-143510000D02*
X175895000Y-144145000D01*
X173990000Y-95885000D02*
X173990000Y-92075000D01*
X179070000Y-88265000D02*
X174625000Y-88265000D01*
X184150000Y-88265000D02*
X179070000Y-88265000D01*
X188595000Y-79375000D02*
X188595000Y-80010000D01*
X189230000Y-78740000D02*
X188595000Y-79375000D01*
X189230000Y-77470000D02*
X189230000Y-78740000D01*
X189865000Y-76835000D02*
X189230000Y-77470000D01*
X189865000Y-75565000D02*
X189865000Y-76835000D01*
X190500000Y-74930000D02*
X189865000Y-75565000D01*
X190500000Y-73660000D02*
X190500000Y-74930000D01*
X191135000Y-73025000D02*
X190500000Y-73660000D01*
X173990000Y-88900000D02*
X173990000Y-92075000D01*
X174625000Y-88265000D02*
X173990000Y-88900000D01*
X191770000Y-73025000D02*
X191135000Y-73025000D01*
X177165000Y-132080000D02*
X177165000Y-144145000D01*
X177165000Y-144145000D02*
X176530000Y-144780000D01*
X174625000Y-92710000D02*
X174625000Y-96520000D01*
X178435000Y-88900000D02*
X175260000Y-88900000D01*
X184785000Y-88900000D02*
X178435000Y-88900000D01*
X189230000Y-80010000D02*
X189230000Y-81280000D01*
X189865000Y-79375000D02*
X189230000Y-80010000D01*
X189865000Y-78105000D02*
X189865000Y-79375000D01*
X190500000Y-77470000D02*
X189865000Y-78105000D01*
X190500000Y-76200000D02*
X190500000Y-77470000D01*
X191135000Y-75565000D02*
X190500000Y-76200000D01*
X174625000Y-89535000D02*
X174625000Y-92710000D01*
X175260000Y-88900000D02*
X174625000Y-89535000D01*
X191770000Y-75565000D02*
X191135000Y-75565000D01*
X177800000Y-132715000D02*
X177800000Y-144780000D01*
X177800000Y-144780000D02*
X177165000Y-145415000D01*
X175260000Y-93345000D02*
X175260000Y-95885000D01*
X177800000Y-89535000D02*
X175895000Y-89535000D01*
X184150000Y-89535000D02*
X177800000Y-89535000D01*
X189865000Y-81915000D02*
X189230000Y-82550000D01*
X189865000Y-80645000D02*
X189865000Y-81915000D01*
X190500000Y-80010000D02*
X189865000Y-80645000D01*
X190500000Y-78740000D02*
X190500000Y-80010000D01*
X191135000Y-78105000D02*
X190500000Y-78740000D01*
X175260000Y-90170000D02*
X175260000Y-93345000D01*
X175895000Y-89535000D02*
X175260000Y-90170000D01*
X191770000Y-78105000D02*
X191135000Y-78105000D01*
X178435000Y-132080000D02*
X178435000Y-145415000D01*
X176530000Y-90170000D02*
X175895000Y-90805000D01*
X175895000Y-90805000D02*
X175895000Y-93980000D01*
X191135000Y-80645000D02*
X190500000Y-81280000D01*
X190500000Y-81280000D02*
X190500000Y-82550000D01*
X190500000Y-82550000D02*
X189230000Y-83820000D01*
X189230000Y-83820000D02*
X189230000Y-85725000D01*
X184785000Y-90170000D02*
X178435000Y-90170000D01*
X178435000Y-90170000D02*
X176530000Y-90170000D01*
X175895000Y-96520000D02*
X175895000Y-93980000D01*
X178435000Y-145415000D02*
X177800000Y-146050000D01*
X191770000Y-80645000D02*
X191135000Y-80645000D01*
X229235000Y-92075000D02*
X229870000Y-92710000D01*
X170180000Y-90805000D02*
X170180000Y-88265000D01*
X175895000Y-86360000D02*
X172720000Y-86360000D01*
X229235000Y-92075000D02*
X223520000Y-92075000D01*
X219075000Y-92075000D02*
X215265000Y-92075000D01*
X177800000Y-86360000D02*
X175895000Y-86360000D01*
X170180000Y-88265000D02*
X170180000Y-86995000D01*
X170815000Y-91440000D02*
X170180000Y-90805000D01*
X170815000Y-91440000D02*
X170815000Y-93980000D01*
X170815000Y-93980000D02*
X170815000Y-97155000D01*
X208280000Y-92710000D02*
X208280000Y-92075000D01*
X208280000Y-92075000D02*
X208915000Y-91440000D01*
X208915000Y-91440000D02*
X214630000Y-91440000D01*
X214630000Y-91440000D02*
X215265000Y-92075000D01*
X207645000Y-93345000D02*
X208280000Y-92710000D01*
X229870000Y-92710000D02*
X229870000Y-97605002D01*
X229870000Y-97605002D02*
X230505000Y-98240002D01*
X230505000Y-98240002D02*
X231590002Y-98240002D01*
X152400000Y-147320000D02*
X153035000Y-146685000D01*
X153035000Y-146685000D02*
X153035000Y-145415000D01*
X170815000Y-97155000D02*
X170815000Y-102235000D01*
X173355000Y-139700000D02*
X172720000Y-140335000D01*
X173355000Y-132715000D02*
X173355000Y-139700000D01*
X161290000Y-97790000D02*
X168275000Y-97790000D01*
X170180000Y-97790000D02*
X168275000Y-97790000D01*
X170815000Y-97155000D02*
X170180000Y-97790000D01*
X144780000Y-150495000D02*
X147955000Y-150495000D01*
X152400000Y-147955000D02*
X152400000Y-147320000D01*
X151765000Y-148590000D02*
X152400000Y-147955000D01*
X151130000Y-148590000D02*
X151765000Y-148590000D01*
X150495000Y-149225000D02*
X151130000Y-148590000D01*
X149225000Y-149225000D02*
X150495000Y-149225000D01*
X147955000Y-150495000D02*
X149225000Y-149225000D01*
X163195000Y-127635000D02*
X163195000Y-147320000D01*
X163195000Y-147320000D02*
X161925000Y-148590000D01*
X161925000Y-148590000D02*
X156845000Y-148590000D01*
X161290000Y-127000000D02*
X162560000Y-127000000D01*
X162560000Y-127000000D02*
X163195000Y-127635000D01*
X203835000Y-93345000D02*
X203200000Y-93980000D01*
X203835000Y-90805000D02*
X203835000Y-93345000D01*
X182245000Y-93980000D02*
X180340000Y-93980000D01*
X203200000Y-93980000D02*
X182245000Y-93980000D01*
X182245000Y-130810000D02*
X182245000Y-146050000D01*
X181610000Y-130175000D02*
X182245000Y-130810000D01*
X175895000Y-130175000D02*
X181610000Y-130175000D01*
X175260000Y-129540000D02*
X175895000Y-130175000D01*
X175260000Y-99060000D02*
X175260000Y-129540000D01*
X175895000Y-98425000D02*
X175260000Y-99060000D01*
X179070000Y-98425000D02*
X175895000Y-98425000D01*
X179705000Y-97790000D02*
X179070000Y-98425000D01*
X179705000Y-94615000D02*
X179705000Y-97790000D01*
X180340000Y-93980000D02*
X179705000Y-94615000D01*
X204470000Y-93980000D02*
X203835000Y-94615000D01*
X204470000Y-91440000D02*
X204470000Y-93980000D01*
X182880000Y-142875000D02*
X182880000Y-145415000D01*
X203835000Y-94615000D02*
X182245000Y-94615000D01*
X180975000Y-94615000D02*
X182245000Y-94615000D01*
X180340000Y-95250000D02*
X180975000Y-94615000D01*
X180340000Y-98425000D02*
X180340000Y-95250000D01*
X179705000Y-99060000D02*
X180340000Y-98425000D01*
X176530000Y-99060000D02*
X179705000Y-99060000D01*
X175895000Y-99695000D02*
X176530000Y-99060000D01*
X175895000Y-128905000D02*
X175895000Y-99695000D01*
X176530000Y-129540000D02*
X175895000Y-128905000D01*
X182245000Y-129540000D02*
X176530000Y-129540000D01*
X182880000Y-130175000D02*
X182245000Y-129540000D01*
X182880000Y-142875000D02*
X182880000Y-130175000D01*
X205105000Y-94615000D02*
X204470000Y-95250000D01*
X205105000Y-93980000D02*
X205105000Y-94615000D01*
X205105000Y-90805000D02*
X205105000Y-93980000D01*
X183515000Y-142240000D02*
X183515000Y-146050000D01*
X182880000Y-95250000D02*
X181610000Y-95250000D01*
X204470000Y-95250000D02*
X182880000Y-95250000D01*
X183515000Y-129540000D02*
X183515000Y-142240000D01*
X182880000Y-128905000D02*
X183515000Y-129540000D01*
X177165000Y-128905000D02*
X182880000Y-128905000D01*
X176530000Y-128270000D02*
X177165000Y-128905000D01*
X176530000Y-100330000D02*
X176530000Y-128270000D01*
X177165000Y-99695000D02*
X176530000Y-100330000D01*
X180340000Y-99695000D02*
X177165000Y-99695000D01*
X180975000Y-99060000D02*
X180340000Y-99695000D01*
X180975000Y-95885000D02*
X180975000Y-99060000D01*
X181610000Y-95250000D02*
X180975000Y-95885000D01*
X205740000Y-95250000D02*
X205105000Y-95885000D01*
X205740000Y-91440000D02*
X205740000Y-95250000D01*
X184150000Y-141605000D02*
X184150000Y-145415000D01*
X184150000Y-133350000D02*
X184150000Y-141605000D01*
X177800000Y-100330000D02*
X177165000Y-100965000D01*
X177165000Y-100965000D02*
X177165000Y-127635000D01*
X177165000Y-127635000D02*
X177800000Y-128270000D01*
X177800000Y-128270000D02*
X183515000Y-128270000D01*
X183515000Y-128270000D02*
X184150000Y-128905000D01*
X184150000Y-128905000D02*
X184150000Y-133350000D01*
X182245000Y-95885000D02*
X181610000Y-96520000D01*
X181610000Y-99695000D02*
X180975000Y-100330000D01*
X181610000Y-96520000D02*
X181610000Y-99695000D01*
X205105000Y-95885000D02*
X182245000Y-95885000D01*
X180975000Y-100330000D02*
X177800000Y-100330000D01*
X206375000Y-95885000D02*
X205740000Y-96520000D01*
X206375000Y-90805000D02*
X206375000Y-95885000D01*
X184785000Y-140970000D02*
X184785000Y-144780000D01*
X182880000Y-96520000D02*
X182245000Y-97155000D01*
X184785000Y-128270000D02*
X184785000Y-140970000D01*
X184150000Y-127635000D02*
X184785000Y-128270000D01*
X178435000Y-127635000D02*
X184150000Y-127635000D01*
X177800000Y-127000000D02*
X178435000Y-127635000D01*
X177800000Y-101600000D02*
X177800000Y-127000000D01*
X178435000Y-100965000D02*
X177800000Y-101600000D01*
X181610000Y-100965000D02*
X178435000Y-100965000D01*
X182245000Y-100330000D02*
X181610000Y-100965000D01*
X182245000Y-97155000D02*
X182245000Y-100330000D01*
X205740000Y-96520000D02*
X182880000Y-96520000D01*
X180340000Y-145415000D02*
X180340000Y-132715000D01*
X177800000Y-92710000D02*
X178435000Y-92075000D01*
X177800000Y-95885000D02*
X177800000Y-92710000D01*
X201930000Y-91440000D02*
X201930000Y-91440000D01*
X201295000Y-92075000D02*
X201930000Y-91440000D01*
X178435000Y-92075000D02*
X201295000Y-92075000D01*
X201930000Y-92710000D02*
X202565000Y-92075000D01*
X202565000Y-92075000D02*
X202565000Y-90805000D01*
X179070000Y-92710000D02*
X178435000Y-93345000D01*
X178435000Y-93345000D02*
X178435000Y-96520000D01*
X178435000Y-96520000D02*
X177800000Y-97155000D01*
X177800000Y-97155000D02*
X174625000Y-97155000D01*
X174625000Y-97155000D02*
X173990000Y-97790000D01*
X173990000Y-97790000D02*
X173990000Y-130810000D01*
X173990000Y-130810000D02*
X174625000Y-131445000D01*
X174625000Y-131445000D02*
X180340000Y-131445000D01*
X180340000Y-131445000D02*
X180975000Y-132080000D01*
X180975000Y-132080000D02*
X180975000Y-146050000D01*
X201930000Y-92710000D02*
X182880000Y-92710000D01*
X182880000Y-92710000D02*
X179070000Y-92710000D01*
X203200000Y-92710000D02*
X202565000Y-93345000D01*
X203200000Y-91440000D02*
X203200000Y-92710000D01*
X179705000Y-93345000D02*
X179070000Y-93980000D01*
X179070000Y-93980000D02*
X179070000Y-97155000D01*
X179070000Y-97155000D02*
X178435000Y-97790000D01*
X178435000Y-97790000D02*
X175260000Y-97790000D01*
X175260000Y-97790000D02*
X174625000Y-98425000D01*
X174625000Y-98425000D02*
X174625000Y-130175000D01*
X174625000Y-130175000D02*
X175260000Y-130810000D01*
X175260000Y-130810000D02*
X180975000Y-130810000D01*
X180975000Y-130810000D02*
X181610000Y-131445000D01*
X181610000Y-131445000D02*
X181610000Y-145415000D01*
X202565000Y-93345000D02*
X181610000Y-93345000D01*
X181610000Y-93345000D02*
X179705000Y-93345000D01*
X191770000Y-90805000D02*
X191135000Y-91440000D01*
X177800000Y-91440000D02*
X177165000Y-92075000D01*
X177165000Y-95250000D02*
X177165000Y-96520000D01*
X185420000Y-91440000D02*
X177800000Y-91440000D01*
X191135000Y-91440000D02*
X185420000Y-91440000D01*
X177165000Y-92075000D02*
X177165000Y-95250000D01*
X179705000Y-146050000D02*
X179705000Y-132080000D01*
X176530000Y-91440000D02*
X176530000Y-94615000D01*
X177165000Y-90805000D02*
X176530000Y-91440000D01*
X190500000Y-90805000D02*
X177165000Y-90805000D01*
X189865000Y-84455000D02*
X189865000Y-86360000D01*
X189865000Y-84455000D02*
X191135000Y-83185000D01*
X176530000Y-94615000D02*
X176530000Y-95885000D01*
X179070000Y-145415000D02*
X179070000Y-132715000D01*
X191770000Y-83185000D02*
X191135000Y-83185000D01*
X170815000Y-88265000D02*
X170815000Y-86995000D01*
X171450000Y-90805000D02*
X170815000Y-90170000D01*
X170815000Y-90170000D02*
X170815000Y-88265000D01*
X171450000Y-91440000D02*
X171450000Y-94615000D01*
X171450000Y-101600000D02*
X171450000Y-94615000D01*
X171450000Y-107315000D02*
X171450000Y-103505000D01*
X171450000Y-91440000D02*
X171450000Y-90805000D01*
X170815000Y-86995000D02*
X172085000Y-85725000D01*
X179070000Y-86360000D02*
X178435000Y-85725000D01*
X162560000Y-85725000D02*
X161925000Y-86360000D01*
X178435000Y-85725000D02*
X172085000Y-85725000D01*
X172085000Y-85725000D02*
X162560000Y-85725000D01*
X180975000Y-86360000D02*
X179705000Y-86360000D01*
X155575000Y-92075000D02*
X154940000Y-92710000D01*
X154940000Y-92710000D02*
X153670000Y-92710000D01*
X161925000Y-86360000D02*
X156210000Y-86360000D01*
X179705000Y-86360000D02*
X179070000Y-86360000D01*
X155575000Y-86995000D02*
X155575000Y-89535000D01*
X156210000Y-86360000D02*
X155575000Y-86995000D01*
X211455000Y-83820000D02*
X210820000Y-84455000D01*
X210820000Y-84455000D02*
X208915000Y-84455000D01*
X216535000Y-75565000D02*
X213995000Y-75565000D01*
X208915000Y-84455000D02*
X208280000Y-85090000D01*
X153670000Y-92710000D02*
X152400000Y-92710000D01*
X151765000Y-102235000D02*
X151130000Y-102870000D01*
X151765000Y-93345000D02*
X151765000Y-102235000D01*
X152400000Y-92710000D02*
X151765000Y-93345000D01*
X146050000Y-102870000D02*
X151130000Y-102870000D01*
X170815000Y-109855000D02*
X170815000Y-119380000D01*
X170180000Y-107950000D02*
X170180000Y-109220000D01*
X170180000Y-109220000D02*
X170815000Y-109855000D01*
X166370000Y-106045000D02*
X166370000Y-107315000D01*
X167005000Y-105410000D02*
X166370000Y-106045000D01*
X169545000Y-105410000D02*
X167005000Y-105410000D01*
X170180000Y-106045000D02*
X169545000Y-105410000D01*
X170180000Y-107950000D02*
X170180000Y-106045000D01*
X168910000Y-119380000D02*
X170815000Y-119380000D01*
X170815000Y-119380000D02*
X172720000Y-119380000D01*
X219075000Y-114935000D02*
X220345000Y-113665000D01*
X216535000Y-114935000D02*
X219075000Y-114935000D01*
X220345000Y-104140000D02*
X220980000Y-104775000D01*
X218440000Y-103505000D02*
X216535000Y-103505000D01*
X218440000Y-103505000D02*
X219075000Y-104140000D01*
X219075000Y-104140000D02*
X220345000Y-104140000D01*
X220345000Y-113665000D02*
X220345000Y-112395000D01*
X219075000Y-116205000D02*
X220980000Y-114300000D01*
X217805000Y-117475000D02*
X219075000Y-116205000D01*
X220980000Y-114300000D02*
X220980000Y-111760000D01*
X216535000Y-100965000D02*
X220345000Y-100965000D01*
X216535000Y-118110000D02*
X217170000Y-118110000D01*
X217170000Y-118110000D02*
X217805000Y-117475000D01*
X142875000Y-118745000D02*
X142875000Y-117475000D01*
X142875000Y-113030000D02*
X142875000Y-117475000D01*
X142240000Y-112395000D02*
X142875000Y-113030000D01*
X142240000Y-111760000D02*
X142240000Y-112395000D01*
X142240000Y-109855000D02*
X142240000Y-111760000D01*
X142240000Y-100965000D02*
X142240000Y-108585000D01*
X141605000Y-99060000D02*
X141605000Y-95885000D01*
X141605000Y-95885000D02*
X140970000Y-95250000D01*
X140970000Y-95250000D02*
X138430000Y-95250000D01*
X138430000Y-95250000D02*
X139065000Y-95250000D01*
X146050000Y-92710000D02*
X145415000Y-92710000D01*
X145415000Y-92710000D02*
X144780000Y-93345000D01*
X144780000Y-93345000D02*
X144780000Y-99695000D01*
X144780000Y-99695000D02*
X144145000Y-100330000D01*
X144145000Y-100330000D02*
X144145000Y-107950000D01*
X139700000Y-87630000D02*
X139700000Y-88265000D01*
X140335000Y-86995000D02*
X139700000Y-87630000D01*
X140335000Y-86360000D02*
X140335000Y-86995000D01*
X138430000Y-90170000D02*
X139065000Y-90170000D01*
X139065000Y-90170000D02*
X139700000Y-89535000D01*
X139700000Y-89535000D02*
X139700000Y-88265000D01*
X139700000Y-84455000D02*
X139700000Y-71120000D01*
X139700000Y-71120000D02*
X139065000Y-70485000D01*
X139065000Y-70485000D02*
X138430000Y-70485000D01*
X148590000Y-126365000D02*
X149225000Y-127000000D01*
X153670000Y-127000000D02*
X149225000Y-127000000D01*
X142240000Y-93980000D02*
X142240000Y-98425000D01*
X140970000Y-92710000D02*
X142240000Y-93980000D01*
X142875000Y-101600000D02*
X142875000Y-107950000D01*
X142875000Y-110490000D02*
X142875000Y-111760000D01*
X142875000Y-111760000D02*
X143510000Y-112395000D01*
X143510000Y-112395000D02*
X143510000Y-125095000D01*
X138430000Y-92710000D02*
X139700000Y-92710000D01*
X139700000Y-92710000D02*
X140970000Y-92710000D01*
X138430000Y-92710000D02*
X139065000Y-92710000D01*
X140970000Y-87630000D02*
X140970000Y-85725000D01*
X141605000Y-90805000D02*
X143510000Y-92710000D01*
X143510000Y-92710000D02*
X143510000Y-97155000D01*
X140335000Y-81915000D02*
X140335000Y-83820000D01*
X140335000Y-73660000D02*
X140335000Y-81915000D01*
X140970000Y-90170000D02*
X140970000Y-88900000D01*
X140970000Y-88900000D02*
X140970000Y-87630000D01*
X140970000Y-90170000D02*
X141605000Y-90805000D01*
X157480000Y-121285000D02*
X157480000Y-120015000D01*
X146050000Y-95250000D02*
X149860000Y-95250000D01*
X152400000Y-96520000D02*
X154305000Y-96520000D01*
X149860000Y-95250000D02*
X151130000Y-96520000D01*
X155575000Y-101600000D02*
X155575000Y-106045000D01*
X155575000Y-97155000D02*
X155575000Y-98425000D01*
X154940000Y-96520000D02*
X155575000Y-97155000D01*
X154305000Y-96520000D02*
X154940000Y-96520000D01*
X156210000Y-108585000D02*
X156210000Y-106680000D01*
X156210000Y-106680000D02*
X155575000Y-106045000D01*
X156210000Y-121920000D02*
X153670000Y-121920000D01*
X157480000Y-121285000D02*
X156845000Y-121920000D01*
X156845000Y-121920000D02*
X156210000Y-121920000D01*
X150495000Y-109855000D02*
X151130000Y-109855000D01*
X151765000Y-116205000D02*
X152400000Y-116840000D01*
X151765000Y-110490000D02*
X151765000Y-116205000D01*
X151130000Y-109855000D02*
X151765000Y-110490000D01*
X141605000Y-105410000D02*
X141605000Y-106680000D01*
X140335000Y-97790000D02*
X140970000Y-98425000D01*
X140970000Y-98425000D02*
X140970000Y-99695000D01*
X141605000Y-101600000D02*
X141605000Y-105410000D01*
X138430000Y-97790000D02*
X140335000Y-97790000D01*
X152400000Y-116840000D02*
X153670000Y-116840000D01*
X146685000Y-109855000D02*
X150495000Y-109855000D01*
X142240000Y-86360000D02*
X142240000Y-85725000D01*
X142240000Y-88900000D02*
X142240000Y-86360000D01*
X144145000Y-92075000D02*
X142875000Y-90805000D01*
X144145000Y-92710000D02*
X144145000Y-98425000D01*
X142875000Y-100330000D02*
X144145000Y-99060000D01*
X144145000Y-99060000D02*
X144145000Y-98425000D01*
X138430000Y-100330000D02*
X142875000Y-100330000D01*
X144145000Y-92710000D02*
X144145000Y-92075000D01*
X152400000Y-71755000D02*
X153670000Y-70485000D01*
X147320000Y-71755000D02*
X152400000Y-71755000D01*
X142875000Y-71755000D02*
X144780000Y-71755000D01*
X142240000Y-72390000D02*
X142875000Y-71755000D01*
X142240000Y-83185000D02*
X142240000Y-72390000D01*
X141605000Y-86995000D02*
X141605000Y-86360000D01*
X159385000Y-129540000D02*
X158750000Y-128905000D01*
X158750000Y-128905000D02*
X158750000Y-125730000D01*
X161290000Y-129540000D02*
X159385000Y-129540000D01*
X157480000Y-104140000D02*
X158115000Y-104775000D01*
X158115000Y-104775000D02*
X158115000Y-106680000D01*
X158115000Y-95885000D02*
X157480000Y-96520000D01*
X157480000Y-104140000D02*
X157480000Y-96520000D01*
X160655000Y-91440000D02*
X160020000Y-91440000D01*
X160020000Y-91440000D02*
X159385000Y-90805000D01*
X164465000Y-93980000D02*
X163195000Y-92710000D01*
X169545000Y-93980000D02*
X164465000Y-93980000D01*
X187325000Y-99695000D02*
X186055000Y-98425000D01*
X198120000Y-99060000D02*
X199390000Y-97790000D01*
X190500000Y-99695000D02*
X189230000Y-99695000D01*
X191135000Y-99060000D02*
X190500000Y-99695000D01*
X198120000Y-99060000D02*
X191135000Y-99060000D01*
X189230000Y-99695000D02*
X187325000Y-99695000D01*
X163195000Y-92710000D02*
X161925000Y-91440000D01*
X151765000Y-90170000D02*
X153035000Y-91440000D01*
X157480000Y-90805000D02*
X159385000Y-90805000D01*
X146050000Y-90170000D02*
X151765000Y-90170000D01*
X155575000Y-90805000D02*
X157480000Y-90805000D01*
X154940000Y-91440000D02*
X155575000Y-90805000D01*
X153035000Y-91440000D02*
X154940000Y-91440000D01*
X160655000Y-91440000D02*
X161925000Y-91440000D01*
X146050000Y-90170000D02*
X142240000Y-90170000D01*
X139700000Y-68580000D02*
X139065000Y-67945000D01*
X140970000Y-73025000D02*
X140970000Y-80645000D01*
X140335000Y-72390000D02*
X140970000Y-73025000D01*
X140335000Y-70485000D02*
X140335000Y-72390000D01*
X139700000Y-69850000D02*
X140335000Y-70485000D01*
X139700000Y-68580000D02*
X139700000Y-69850000D01*
X140970000Y-80645000D02*
X140970000Y-82550000D01*
X141605000Y-89535000D02*
X141605000Y-86995000D01*
X142240000Y-90170000D02*
X141605000Y-89535000D01*
X140970000Y-83185000D02*
X140970000Y-82550000D01*
X138430000Y-67945000D02*
X139065000Y-67945000D01*
X138430000Y-65405000D02*
X138430000Y-67945000D01*
X158115000Y-103505000D02*
X158750000Y-104140000D01*
X158750000Y-112395000D02*
X159385000Y-113030000D01*
X158750000Y-109855000D02*
X158750000Y-112395000D01*
X158750000Y-104140000D02*
X158750000Y-108585000D01*
X159385000Y-113030000D02*
X161925000Y-113030000D01*
X162560000Y-116205000D02*
X161925000Y-116840000D01*
X162560000Y-113665000D02*
X162560000Y-116205000D01*
X161925000Y-113030000D02*
X162560000Y-113665000D01*
X161925000Y-116840000D02*
X161290000Y-116840000D01*
X207010000Y-65405000D02*
X206375000Y-65405000D01*
X206375000Y-65405000D02*
X205740000Y-64770000D01*
X205740000Y-64770000D02*
X201295000Y-64770000D01*
X197485000Y-64770000D02*
X192405000Y-64770000D01*
X192405000Y-64770000D02*
X191770000Y-65405000D01*
X161290000Y-114300000D02*
X159385000Y-114300000D01*
X158115000Y-107950000D02*
X157480000Y-107315000D01*
X158115000Y-113030000D02*
X158115000Y-110490000D01*
X159385000Y-114300000D02*
X158115000Y-113030000D01*
X156845000Y-104775000D02*
X157480000Y-105410000D01*
X157480000Y-107315000D02*
X157480000Y-105410000D01*
X156210000Y-81915000D02*
X156845000Y-82550000D01*
X156845000Y-82550000D02*
X156845000Y-83820000D01*
X156210000Y-76835000D02*
X156210000Y-81280000D01*
X156210000Y-81280000D02*
X156210000Y-81915000D01*
X156845000Y-104775000D02*
X156845000Y-96520000D01*
X156210000Y-65405000D02*
X161290000Y-65405000D01*
X146050000Y-67945000D02*
X146685000Y-67945000D01*
X146685000Y-67945000D02*
X147955000Y-69215000D01*
X154940000Y-69215000D02*
X155575000Y-69850000D01*
X147955000Y-69215000D02*
X154940000Y-69215000D01*
X175895000Y-64135000D02*
X174625000Y-65405000D01*
X171450000Y-65405000D02*
X170180000Y-64135000D01*
X174625000Y-65405000D02*
X171450000Y-65405000D01*
X161290000Y-65405000D02*
X162560000Y-64135000D01*
X162560000Y-64135000D02*
X170180000Y-64135000D01*
X190500000Y-64770000D02*
X191135000Y-65405000D01*
X186055000Y-64770000D02*
X190500000Y-64770000D01*
X175895000Y-64135000D02*
X181610000Y-64135000D01*
X191135000Y-65405000D02*
X191770000Y-65405000D01*
X161290000Y-67945000D02*
X161290000Y-65405000D01*
X231775000Y-111125000D02*
X220345000Y-111125000D01*
X209550000Y-118110000D02*
X207010000Y-120650000D01*
X209550000Y-116205000D02*
X209550000Y-118110000D01*
X210185000Y-115570000D02*
X209550000Y-116205000D01*
X213360000Y-115570000D02*
X210185000Y-115570000D01*
X215265000Y-113665000D02*
X213360000Y-115570000D01*
X219075000Y-113665000D02*
X215265000Y-113665000D01*
X219710000Y-113030000D02*
X219075000Y-113665000D01*
X219710000Y-111760000D02*
X219710000Y-113030000D01*
X220345000Y-111125000D02*
X219710000Y-111760000D01*
X219075000Y-109855000D02*
X219075000Y-111125000D01*
X219075000Y-111760000D02*
X219075000Y-111125000D01*
X208280000Y-118110000D02*
X208915000Y-117475000D01*
X208915000Y-117475000D02*
X208915000Y-115570000D01*
X208915000Y-115570000D02*
X209550000Y-114935000D01*
X209550000Y-114935000D02*
X212725000Y-114935000D01*
X212725000Y-114935000D02*
X214630000Y-113030000D01*
X214630000Y-113030000D02*
X218440000Y-113030000D01*
X218440000Y-113030000D02*
X219075000Y-112395000D01*
X219075000Y-112395000D02*
X219075000Y-111760000D01*
X207010000Y-118110000D02*
X208280000Y-118110000D01*
X184150000Y-118110000D02*
X185420000Y-118110000D01*
X205740000Y-119380000D02*
X207010000Y-118110000D01*
X186690000Y-119380000D02*
X205740000Y-119380000D01*
X185420000Y-118110000D02*
X186690000Y-119380000D01*
X218440000Y-93345000D02*
X219075000Y-93980000D01*
X219075000Y-96520000D02*
X218440000Y-97155000D01*
X219075000Y-93980000D02*
X219075000Y-96520000D01*
X212725000Y-98425000D02*
X213995000Y-97155000D01*
X199390000Y-100330000D02*
X200660000Y-99060000D01*
X200660000Y-99060000D02*
X212090000Y-99060000D01*
X212090000Y-99060000D02*
X212725000Y-98425000D01*
X213995000Y-97155000D02*
X218440000Y-97155000D01*
X218440000Y-93345000D02*
X216535000Y-93345000D01*
X199390000Y-100330000D02*
X198120000Y-101600000D01*
X185420000Y-100330000D02*
X184150000Y-100330000D01*
X185420000Y-100330000D02*
X186690000Y-101600000D01*
X186690000Y-101600000D02*
X198120000Y-101600000D01*
X219710000Y-96520000D02*
X219710000Y-97155000D01*
X219075000Y-106680000D02*
X218440000Y-107315000D01*
X219075000Y-97790000D02*
X219075000Y-98425000D01*
X219710000Y-97155000D02*
X219075000Y-97790000D01*
X197485000Y-113030000D02*
X194310000Y-113030000D01*
X201930000Y-110490000D02*
X202565000Y-110490000D01*
X207010000Y-110490000D02*
X202565000Y-110490000D01*
X194310000Y-113030000D02*
X193040000Y-114300000D01*
X185420000Y-113030000D02*
X184150000Y-113030000D01*
X185420000Y-113030000D02*
X186690000Y-114300000D01*
X186690000Y-114300000D02*
X193040000Y-114300000D01*
X214630000Y-107950000D02*
X212090000Y-110490000D01*
X207010000Y-110490000D02*
X212090000Y-110490000D01*
X218440000Y-107315000D02*
X215265000Y-107315000D01*
X215265000Y-107315000D02*
X214630000Y-107950000D01*
X219075000Y-90805000D02*
X216535000Y-90805000D01*
X219710000Y-91440000D02*
X219710000Y-96520000D01*
X219075000Y-90805000D02*
X219710000Y-91440000D01*
X221615000Y-88265000D02*
X220980000Y-87630000D01*
X220980000Y-83820000D02*
X221615000Y-83185000D01*
X220980000Y-87630000D02*
X220980000Y-83820000D01*
X222250000Y-88900000D02*
X221615000Y-88265000D01*
X222250000Y-104140000D02*
X222250000Y-104775000D01*
X217805000Y-105410000D02*
X217170000Y-104775000D01*
X221615000Y-105410000D02*
X217805000Y-105410000D01*
X222250000Y-104775000D02*
X221615000Y-105410000D01*
X222250000Y-104140000D02*
X222250000Y-102870000D01*
X220345000Y-78105000D02*
X220980000Y-78740000D01*
X221615000Y-80645000D02*
X221615000Y-83185000D01*
X220980000Y-80010000D02*
X221615000Y-80645000D01*
X220980000Y-78740000D02*
X220980000Y-80010000D01*
X213995000Y-107315000D02*
X214630000Y-106680000D01*
X215265000Y-104775000D02*
X217170000Y-104775000D01*
X205105000Y-107950000D02*
X206375000Y-109220000D01*
X206375000Y-109220000D02*
X209550000Y-109220000D01*
X199390000Y-107950000D02*
X205105000Y-107950000D01*
X212090000Y-109220000D02*
X209550000Y-109220000D01*
X213995000Y-107315000D02*
X212090000Y-109220000D01*
X214630000Y-106680000D02*
X214630000Y-105410000D01*
X214630000Y-105410000D02*
X215265000Y-104775000D01*
X222250000Y-88900000D02*
X222250000Y-102870000D01*
X220345000Y-78105000D02*
X216535000Y-78105000D01*
X199390000Y-107950000D02*
X198755000Y-107950000D01*
X198755000Y-107950000D02*
X197485000Y-109220000D01*
X197485000Y-109220000D02*
X190500000Y-109220000D01*
X185420000Y-107950000D02*
X186690000Y-109220000D01*
X186690000Y-109220000D02*
X190500000Y-109220000D01*
X185420000Y-107950000D02*
X184150000Y-107950000D01*
X219710000Y-83820000D02*
X219710000Y-88900000D01*
X219710000Y-88900000D02*
X220980000Y-90170000D01*
X219075000Y-83185000D02*
X219710000Y-83820000D01*
X213360000Y-106680000D02*
X213995000Y-106045000D01*
X213995000Y-102870000D02*
X214630000Y-102235000D01*
X213995000Y-106045000D02*
X213995000Y-102870000D01*
X213360000Y-106680000D02*
X212090000Y-107950000D01*
X220345000Y-102235000D02*
X220980000Y-101600000D01*
X214630000Y-102235000D02*
X220345000Y-102235000D01*
X220980000Y-101600000D02*
X220980000Y-96520000D01*
X209550000Y-107950000D02*
X212090000Y-107950000D01*
X207010000Y-107950000D02*
X209550000Y-107950000D01*
X216535000Y-83185000D02*
X219075000Y-83185000D01*
X220980000Y-90170000D02*
X220980000Y-96520000D01*
X197485000Y-106680000D02*
X205740000Y-106680000D01*
X186690000Y-106680000D02*
X185420000Y-105410000D01*
X184150000Y-105410000D02*
X185420000Y-105410000D01*
X190500000Y-106680000D02*
X197485000Y-106680000D01*
X190500000Y-106680000D02*
X186690000Y-106680000D01*
X205740000Y-106680000D02*
X207010000Y-107950000D01*
X221615000Y-89535000D02*
X220345000Y-88265000D01*
X220345000Y-83185000D02*
X220980000Y-82550000D01*
X220345000Y-88265000D02*
X220345000Y-83185000D01*
X220980000Y-81280000D02*
X220980000Y-82550000D01*
X219075000Y-80645000D02*
X220345000Y-80645000D01*
X216535000Y-80645000D02*
X219075000Y-80645000D01*
X220345000Y-80645000D02*
X220980000Y-81280000D01*
X219710000Y-107950000D02*
X220345000Y-107315000D01*
X220345000Y-103505000D02*
X221615000Y-102235000D01*
X220345000Y-103505000D02*
X220345000Y-103505000D01*
X220345000Y-107315000D02*
X220345000Y-106680000D01*
X212090000Y-111760000D02*
X213995000Y-109855000D01*
X213995000Y-109855000D02*
X214630000Y-109855000D01*
X218440000Y-109220000D02*
X219710000Y-107950000D01*
X221615000Y-89535000D02*
X221615000Y-99695000D01*
X221615000Y-102235000D02*
X221615000Y-99695000D01*
X214630000Y-109855000D02*
X217805000Y-109855000D01*
X217805000Y-109855000D02*
X218440000Y-109220000D01*
X200660000Y-110490000D02*
X201930000Y-111760000D01*
X201930000Y-111760000D02*
X209550000Y-111760000D01*
X200660000Y-110490000D02*
X199390000Y-110490000D01*
X209550000Y-111760000D02*
X210185000Y-111760000D01*
X212090000Y-111760000D02*
X210185000Y-111760000D01*
X195580000Y-111760000D02*
X198120000Y-111760000D01*
X198120000Y-111760000D02*
X199390000Y-110490000D01*
X194310000Y-111760000D02*
X195580000Y-111760000D01*
X185420000Y-110490000D02*
X186690000Y-111760000D01*
X186690000Y-111760000D02*
X194310000Y-111760000D01*
X184150000Y-110490000D02*
X185420000Y-110490000D01*
X218440000Y-85725000D02*
X219075000Y-86360000D01*
X219075000Y-89535000D02*
X220345000Y-90805000D01*
X219075000Y-86360000D02*
X219075000Y-89535000D01*
X213995000Y-99695000D02*
X212725000Y-99695000D01*
X212725000Y-99695000D02*
X212090000Y-100330000D01*
X220345000Y-99060000D02*
X220345000Y-93980000D01*
X219710000Y-99695000D02*
X220345000Y-99060000D01*
X213995000Y-99695000D02*
X219710000Y-99695000D01*
X207010000Y-100330000D02*
X212090000Y-100330000D01*
X216535000Y-85725000D02*
X218440000Y-85725000D01*
X220345000Y-90805000D02*
X220345000Y-93980000D01*
X204470000Y-104140000D02*
X205105000Y-103505000D01*
X198755000Y-104140000D02*
X204470000Y-104140000D01*
X190500000Y-104140000D02*
X186690000Y-104140000D01*
X193040000Y-104775000D02*
X196215000Y-104775000D01*
X192405000Y-104140000D02*
X193040000Y-104775000D01*
X190500000Y-104140000D02*
X192405000Y-104140000D01*
X196215000Y-104775000D02*
X198120000Y-104775000D01*
X184150000Y-102870000D02*
X185420000Y-102870000D01*
X186690000Y-104140000D02*
X185420000Y-102870000D01*
X198120000Y-104775000D02*
X198755000Y-104140000D01*
X205740000Y-100330000D02*
X207010000Y-100330000D01*
X205105000Y-100965000D02*
X205740000Y-100330000D01*
X205105000Y-103505000D02*
X205105000Y-100965000D01*
X217805000Y-98425000D02*
X218440000Y-99060000D01*
X217805000Y-112395000D02*
X218440000Y-111760000D01*
X218440000Y-111760000D02*
X218440000Y-110490000D01*
X209550000Y-114300000D02*
X212090000Y-114300000D01*
X203835000Y-118110000D02*
X204470000Y-117475000D01*
X204470000Y-117475000D02*
X204470000Y-114935000D01*
X204470000Y-114935000D02*
X205105000Y-114300000D01*
X205105000Y-114300000D02*
X209550000Y-114300000D01*
X199390000Y-118110000D02*
X203835000Y-118110000D01*
X213995000Y-112395000D02*
X217805000Y-112395000D01*
X212090000Y-114300000D02*
X213995000Y-112395000D01*
X217805000Y-98425000D02*
X216535000Y-98425000D01*
X185420000Y-115570000D02*
X186690000Y-116840000D01*
X186690000Y-116840000D02*
X196215000Y-116840000D01*
X185420000Y-115570000D02*
X184150000Y-115570000D01*
X196850000Y-116840000D02*
X196215000Y-116840000D01*
X210185000Y-95885000D02*
X209550000Y-95250000D01*
X209550000Y-95250000D02*
X207010000Y-95250000D01*
X217805000Y-94615000D02*
X215900000Y-94615000D01*
X227330000Y-93980000D02*
X222885000Y-93980000D01*
X227965000Y-94615000D02*
X227330000Y-93980000D01*
X227965000Y-107315000D02*
X227965000Y-94615000D01*
X229235000Y-108585000D02*
X227965000Y-107315000D01*
X231775000Y-108585000D02*
X229235000Y-108585000D01*
X213995000Y-95885000D02*
X212725000Y-95885000D01*
X212725000Y-95885000D02*
X210185000Y-95885000D01*
X214630000Y-95885000D02*
X215900000Y-94615000D01*
X213995000Y-95885000D02*
X214630000Y-95885000D01*
X218440000Y-94615000D02*
X217805000Y-94615000D01*
X169545000Y-87630000D02*
X168275000Y-87630000D01*
X168275000Y-87630000D02*
X167005000Y-86360000D01*
X166370000Y-86360000D02*
X167005000Y-86360000D01*
X166370000Y-86360000D02*
X163195000Y-86360000D01*
X159385000Y-85725000D02*
X160655000Y-85725000D01*
X155575000Y-85725000D02*
X159385000Y-85725000D01*
X153670000Y-87630000D02*
X155575000Y-85725000D01*
X227965000Y-120015000D02*
X229235000Y-118745000D01*
X226060000Y-120015000D02*
X219075000Y-120015000D01*
X219075000Y-120015000D02*
X217805000Y-121285000D01*
X216535000Y-121285000D02*
X217805000Y-121285000D01*
X229235000Y-118745000D02*
X229235000Y-115570000D01*
X233045000Y-114935000D02*
X233680000Y-114300000D01*
X229870000Y-114935000D02*
X233045000Y-114935000D01*
X229235000Y-115570000D02*
X229870000Y-114935000D01*
X228600000Y-106680000D02*
X228600000Y-102870000D01*
X229235000Y-107315000D02*
X228600000Y-106680000D01*
X233045000Y-107315000D02*
X229235000Y-107315000D01*
X233680000Y-107950000D02*
X233045000Y-107315000D01*
X233680000Y-114300000D02*
X233680000Y-107950000D01*
X226060000Y-120015000D02*
X227965000Y-120015000D01*
X228600000Y-99695000D02*
X228600000Y-102870000D01*
X229235000Y-103505000D02*
X230505000Y-103505000D01*
X228600000Y-102870000D02*
X229235000Y-103505000D01*
X227965000Y-93345000D02*
X228600000Y-93980000D01*
X227965000Y-93345000D02*
X223520000Y-93345000D01*
X228600000Y-93980000D02*
X228600000Y-99695000D01*
X230505000Y-103505000D02*
X231775000Y-103505000D01*
X231775000Y-103505000D02*
X231140000Y-103505000D01*
X153670000Y-73025000D02*
X154940000Y-73025000D01*
X157480000Y-81915000D02*
X157480000Y-83185000D01*
X156845000Y-81280000D02*
X157480000Y-81915000D01*
X156845000Y-76200000D02*
X156845000Y-81280000D01*
X154940000Y-73025000D02*
X156210000Y-74295000D01*
X172085000Y-91440000D02*
X172085000Y-100965000D01*
X171450000Y-89535000D02*
X172085000Y-90170000D01*
X172085000Y-90170000D02*
X172085000Y-91440000D01*
X172085000Y-86995000D02*
X171450000Y-87630000D01*
X213995000Y-95250000D02*
X210820000Y-95250000D01*
X210185000Y-94615000D02*
X207645000Y-94615000D01*
X210820000Y-95250000D02*
X210185000Y-94615000D01*
X171450000Y-87630000D02*
X171450000Y-88900000D01*
X171450000Y-88900000D02*
X171450000Y-89535000D01*
X171450000Y-102870000D02*
X161290000Y-102870000D01*
X172085000Y-102235000D02*
X171450000Y-102870000D01*
X172085000Y-100965000D02*
X172085000Y-102235000D01*
X144780000Y-69215000D02*
X144780000Y-69850000D01*
X144780000Y-69850000D02*
X145415000Y-70485000D01*
X145415000Y-70485000D02*
X146050000Y-70485000D01*
X146050000Y-65405000D02*
X145415000Y-65405000D01*
X145415000Y-65405000D02*
X144780000Y-66040000D01*
X144780000Y-66040000D02*
X144780000Y-69215000D01*
X153670000Y-95250000D02*
X157480000Y-95250000D01*
X157480000Y-95250000D02*
X159385000Y-95250000D01*
X159385000Y-95250000D02*
X160020000Y-95885000D01*
X160020000Y-95885000D02*
X160020000Y-102235000D01*
X160020000Y-102235000D02*
X160655000Y-102870000D01*
X160655000Y-102870000D02*
X161290000Y-102870000D01*
X146050000Y-73025000D02*
X146050000Y-75565000D01*
X146050000Y-70485000D02*
X146050000Y-73025000D01*
X153670000Y-73025000D02*
X146050000Y-73025000D01*
X141605000Y-83185000D02*
X141605000Y-83820000D01*
X156210000Y-93980000D02*
X156210000Y-91440000D01*
X156845000Y-94615000D02*
X156210000Y-93980000D01*
X160020000Y-94615000D02*
X156845000Y-94615000D01*
X160020000Y-94615000D02*
X160655000Y-95250000D01*
X142240000Y-84455000D02*
X153670000Y-84455000D01*
X141605000Y-83820000D02*
X142240000Y-84455000D01*
X141605000Y-80645000D02*
X141605000Y-83185000D01*
X141605000Y-76200000D02*
X141605000Y-80645000D01*
X161290000Y-95250000D02*
X160655000Y-95250000D01*
X156210000Y-97790000D02*
X156210000Y-99695000D01*
X155575000Y-100330000D02*
X153670000Y-100330000D01*
X156210000Y-99695000D02*
X155575000Y-100330000D01*
X155575000Y-76200000D02*
X155575000Y-82550000D01*
X155575000Y-82550000D02*
X156210000Y-83185000D01*
X156210000Y-97790000D02*
X156210000Y-95885000D01*
X178435000Y-85090000D02*
X160655000Y-85090000D01*
X160655000Y-85090000D02*
X160020000Y-84455000D01*
X229870000Y-91440000D02*
X222885000Y-91440000D01*
X218440000Y-90170000D02*
X217805000Y-89535000D01*
X231140000Y-92075000D02*
X230505000Y-92075000D01*
X230505000Y-92075000D02*
X229870000Y-91440000D01*
X233045000Y-106045000D02*
X233680000Y-105410000D01*
X233680000Y-92710000D02*
X233045000Y-92075000D01*
X233680000Y-105410000D02*
X233680000Y-92710000D01*
X215900000Y-89535000D02*
X217805000Y-89535000D01*
X214630000Y-90805000D02*
X215900000Y-89535000D01*
X207645000Y-91440000D02*
X208280000Y-90805000D01*
X208280000Y-90805000D02*
X214630000Y-90805000D01*
X207645000Y-92075000D02*
X207645000Y-91440000D01*
X207010000Y-92710000D02*
X207645000Y-92075000D01*
X231140000Y-92075000D02*
X233045000Y-92075000D01*
X231775000Y-106045000D02*
X233045000Y-106045000D01*
X160020000Y-84455000D02*
X154940000Y-84455000D01*
X139700000Y-62865000D02*
X138430000Y-62865000D01*
X154305000Y-83820000D02*
X154940000Y-84455000D01*
X143510000Y-83820000D02*
X154305000Y-83820000D01*
X142875000Y-83185000D02*
X143510000Y-83820000D01*
X142875000Y-76200000D02*
X142875000Y-83185000D01*
X141605000Y-64770000D02*
X141605000Y-74930000D01*
X139700000Y-62865000D02*
X141605000Y-64770000D01*
X169545000Y-92710000D02*
X170180000Y-93345000D01*
X167640000Y-92710000D02*
X169545000Y-92710000D01*
X166370000Y-91440000D02*
X167640000Y-92710000D01*
X166370000Y-88900000D02*
X166370000Y-91440000D01*
X170180000Y-93345000D02*
X170180000Y-94615000D01*
X153670000Y-67945000D02*
X158750000Y-67945000D01*
X159385000Y-71120000D02*
X159385000Y-83820000D01*
X159385000Y-68580000D02*
X159385000Y-71120000D01*
X158750000Y-67945000D02*
X159385000Y-68580000D01*
X186690000Y-100330000D02*
X185420000Y-99060000D01*
X186690000Y-100330000D02*
X191770000Y-100330000D01*
X156845000Y-66040000D02*
X155575000Y-66040000D01*
X156845000Y-66040000D02*
X159385000Y-66040000D01*
X159385000Y-66040000D02*
X160020000Y-66675000D01*
X160020000Y-66675000D02*
X160020000Y-69850000D01*
X160655000Y-70485000D02*
X160020000Y-69850000D01*
X154940000Y-65405000D02*
X153670000Y-65405000D01*
X155575000Y-66040000D02*
X154940000Y-65405000D01*
X160655000Y-70485000D02*
X161290000Y-70485000D01*
X153670000Y-75565000D02*
X158115000Y-75565000D01*
X207010000Y-93980000D02*
X210820000Y-93980000D01*
X214630000Y-93980000D02*
X213995000Y-94615000D01*
X228600000Y-92710000D02*
X222885000Y-92710000D01*
X214630000Y-92710000D02*
X214630000Y-93980000D01*
X211455000Y-94615000D02*
X210820000Y-93980000D01*
X213995000Y-94615000D02*
X211455000Y-94615000D01*
X158750000Y-76200000D02*
X158750000Y-82550000D01*
X158115000Y-75565000D02*
X158750000Y-76200000D01*
X229235000Y-93345000D02*
X229235000Y-99060000D01*
X230505000Y-100965000D02*
X231775000Y-100965000D01*
X228600000Y-92710000D02*
X229235000Y-93345000D01*
X229235000Y-100330000D02*
X229870000Y-100965000D01*
X229870000Y-100965000D02*
X230505000Y-100965000D01*
X229235000Y-99060000D02*
X229235000Y-100330000D01*
X174625000Y-84455000D02*
X161290000Y-84455000D01*
X231140000Y-100965000D02*
X231775000Y-100965000D01*
X174625000Y-73660000D02*
X174625000Y-71755000D01*
X180975000Y-74295000D02*
X175260000Y-74295000D01*
X175260000Y-74295000D02*
X174625000Y-73660000D01*
X172720000Y-62865000D02*
X168910000Y-62865000D01*
X173355000Y-63500000D02*
X172720000Y-62865000D01*
X181610000Y-78105000D02*
X176530000Y-78105000D01*
X182245000Y-77470000D02*
X181610000Y-78105000D01*
X174625000Y-67945000D02*
X173990000Y-68580000D01*
X169545000Y-68580000D02*
X168910000Y-67945000D01*
X173990000Y-68580000D02*
X169545000Y-68580000D01*
X174625000Y-67945000D02*
X175895000Y-66675000D01*
X208280000Y-88265000D02*
X209550000Y-88265000D01*
X180975000Y-66675000D02*
X175895000Y-66675000D01*
X181610000Y-67310000D02*
X180975000Y-66675000D01*
X181610000Y-76200000D02*
X181610000Y-67310000D01*
X182245000Y-76835000D02*
X181610000Y-76200000D01*
X185420000Y-76835000D02*
X182245000Y-76835000D01*
X186055000Y-77470000D02*
X185420000Y-76835000D01*
X186055000Y-79375000D02*
X186055000Y-77470000D01*
X186690000Y-80010000D02*
X186055000Y-79375000D01*
X186690000Y-81915000D02*
X186690000Y-80010000D01*
X187325000Y-82550000D02*
X186690000Y-81915000D01*
X187325000Y-86360000D02*
X187325000Y-82550000D01*
X208280000Y-88265000D02*
X187960000Y-88265000D01*
X187960000Y-88265000D02*
X187325000Y-87630000D01*
X187325000Y-87630000D02*
X187325000Y-86360000D01*
X209550000Y-88265000D02*
X210185000Y-87630000D01*
X210185000Y-87630000D02*
X210185000Y-86995000D01*
X210185000Y-86995000D02*
X210820000Y-86360000D01*
X210820000Y-86360000D02*
X212725000Y-86360000D01*
X212725000Y-86360000D02*
X213360000Y-85725000D01*
X174625000Y-70485000D02*
X173990000Y-69850000D01*
X169545000Y-69850000D02*
X168910000Y-70485000D01*
X173990000Y-69850000D02*
X169545000Y-69850000D01*
X174625000Y-70485000D02*
X175895000Y-71755000D01*
X179705000Y-71755000D02*
X175895000Y-71755000D01*
X180975000Y-73025000D02*
X179705000Y-71755000D01*
X215265000Y-73025000D02*
X212725000Y-70485000D01*
X216535000Y-73025000D02*
X215265000Y-73025000D01*
X209550000Y-70485000D02*
X208915000Y-69850000D01*
X212725000Y-70485000D02*
X209550000Y-70485000D01*
X205105000Y-66675000D02*
X185420000Y-66675000D01*
X180975000Y-71755000D02*
X180340000Y-71120000D01*
X178435000Y-69215000D02*
X167640000Y-69215000D01*
X167640000Y-69215000D02*
X167005000Y-69850000D01*
X167005000Y-69850000D02*
X167005000Y-72390000D01*
X167005000Y-72390000D02*
X167640000Y-73025000D01*
X167640000Y-73025000D02*
X168910000Y-73025000D01*
X180340000Y-71120000D02*
X178435000Y-69215000D01*
X186690000Y-74295000D02*
X186055000Y-73660000D01*
X189230000Y-86995000D02*
X188595000Y-86360000D01*
X188595000Y-86360000D02*
X188595000Y-81280000D01*
X188595000Y-81280000D02*
X187960000Y-80645000D01*
X187960000Y-80645000D02*
X187960000Y-78740000D01*
X187960000Y-78740000D02*
X187325000Y-78105000D01*
X187325000Y-78105000D02*
X187325000Y-76200000D01*
X187325000Y-76200000D02*
X186690000Y-75565000D01*
X186690000Y-75565000D02*
X186690000Y-74295000D01*
X208280000Y-86995000D02*
X189865000Y-86995000D01*
X208915000Y-86360000D02*
X208280000Y-86995000D01*
X208915000Y-85725000D02*
X208915000Y-86360000D01*
X209550000Y-85090000D02*
X208915000Y-85725000D01*
X211455000Y-85090000D02*
X209550000Y-85090000D01*
X212090000Y-84455000D02*
X211455000Y-85090000D01*
X189865000Y-86995000D02*
X189230000Y-86995000D01*
X186055000Y-72390000D02*
X185420000Y-71755000D01*
X186055000Y-73660000D02*
X186055000Y-72390000D01*
X180340000Y-69850000D02*
X180975000Y-70485000D01*
X178435000Y-67945000D02*
X180340000Y-69850000D01*
X182880000Y-73660000D02*
X182880000Y-71120000D01*
X186055000Y-76200000D02*
X186055000Y-74930000D01*
X186055000Y-74930000D02*
X185420000Y-74295000D01*
X185420000Y-74295000D02*
X183515000Y-74295000D01*
X183515000Y-74295000D02*
X182880000Y-73660000D01*
X186690000Y-78740000D02*
X186690000Y-76835000D01*
X187325000Y-79375000D02*
X186690000Y-78740000D01*
X187325000Y-81280000D02*
X187325000Y-79375000D01*
X187960000Y-81915000D02*
X187325000Y-81280000D01*
X187960000Y-86995000D02*
X187960000Y-81915000D01*
X188595000Y-87630000D02*
X187960000Y-86995000D01*
X207645000Y-87630000D02*
X188595000Y-87630000D01*
X186690000Y-76835000D02*
X186055000Y-76200000D01*
X178435000Y-67945000D02*
X176530000Y-67945000D01*
X209550000Y-86995000D02*
X208915000Y-87630000D01*
X209550000Y-86360000D02*
X209550000Y-86995000D01*
X210185000Y-85725000D02*
X209550000Y-86360000D01*
X212090000Y-85725000D02*
X210185000Y-85725000D01*
X212725000Y-85090000D02*
X212090000Y-85725000D01*
X207645000Y-87630000D02*
X208915000Y-87630000D01*
X204470000Y-65405000D02*
X205105000Y-65405000D01*
X205105000Y-65405000D02*
X206375000Y-66675000D01*
X199390000Y-65405000D02*
X204470000Y-65405000D01*
X222885000Y-70485000D02*
X231775000Y-70485000D01*
X221615000Y-69215000D02*
X222885000Y-70485000D01*
X215265000Y-69215000D02*
X221615000Y-69215000D01*
X212725000Y-66675000D02*
X215265000Y-69215000D01*
X206375000Y-66675000D02*
X212725000Y-66675000D01*
X199390000Y-67945000D02*
X204470000Y-67945000D01*
X222885000Y-73025000D02*
X231775000Y-73025000D01*
X221615000Y-71755000D02*
X222885000Y-73025000D01*
X215265000Y-71755000D02*
X221615000Y-71755000D01*
X212725000Y-69215000D02*
X215265000Y-71755000D01*
X205740000Y-69215000D02*
X212725000Y-69215000D01*
X204470000Y-67945000D02*
X205740000Y-69215000D01*
X199390000Y-70485000D02*
X204470000Y-70485000D01*
X222885000Y-75565000D02*
X231775000Y-75565000D01*
X221615000Y-74295000D02*
X222885000Y-75565000D01*
X215265000Y-74295000D02*
X221615000Y-74295000D01*
X212725000Y-71755000D02*
X215265000Y-74295000D01*
X205740000Y-71755000D02*
X212725000Y-71755000D01*
X204470000Y-70485000D02*
X205740000Y-71755000D01*
X215265000Y-76835000D02*
X213995000Y-76835000D01*
X209550000Y-76200000D02*
X207645000Y-74295000D01*
X213360000Y-76200000D02*
X209550000Y-76200000D01*
X213995000Y-76835000D02*
X213360000Y-76200000D01*
X231775000Y-78105000D02*
X222885000Y-78105000D01*
X222885000Y-78105000D02*
X221615000Y-76835000D01*
X199390000Y-73025000D02*
X204470000Y-73025000D01*
X205740000Y-74295000D02*
X207645000Y-74295000D01*
X204470000Y-73025000D02*
X205740000Y-74295000D01*
X215265000Y-76835000D02*
X221615000Y-76835000D01*
X220345000Y-80010000D02*
X218440000Y-80010000D01*
X199390000Y-75565000D02*
X204470000Y-75565000D01*
X205740000Y-76835000D02*
X204470000Y-75565000D01*
X212725000Y-76835000D02*
X205740000Y-76835000D01*
X215265000Y-79375000D02*
X212725000Y-76835000D01*
X217805000Y-79375000D02*
X215265000Y-79375000D01*
X218440000Y-80010000D02*
X217805000Y-79375000D01*
X222250000Y-80645000D02*
X231775000Y-80645000D01*
X230505000Y-81915000D02*
X231775000Y-83185000D01*
X229870000Y-81915000D02*
X230505000Y-81915000D01*
X222250000Y-81915000D02*
X229870000Y-81915000D01*
X204470000Y-78105000D02*
X205740000Y-79375000D01*
X205740000Y-79375000D02*
X212725000Y-79375000D01*
X212725000Y-79375000D02*
X215265000Y-81915000D01*
X215265000Y-81915000D02*
X220345000Y-81915000D01*
X204470000Y-78105000D02*
X199390000Y-78105000D01*
X231775000Y-85725000D02*
X230505000Y-84455000D01*
X221615000Y-84455000D02*
X229870000Y-84455000D01*
X215265000Y-84455000D02*
X219075000Y-84455000D01*
X204470000Y-80645000D02*
X199390000Y-80645000D01*
X212725000Y-81915000D02*
X215265000Y-84455000D01*
X205740000Y-81915000D02*
X212725000Y-81915000D01*
X204470000Y-80645000D02*
X205740000Y-81915000D01*
X230505000Y-84455000D02*
X229870000Y-84455000D01*
X221615000Y-86995000D02*
X230505000Y-86995000D01*
X204470000Y-83185000D02*
X205740000Y-84455000D01*
X205740000Y-84455000D02*
X207645000Y-84455000D01*
X199390000Y-83185000D02*
X204470000Y-83185000D01*
X207645000Y-84455000D02*
X208280000Y-83820000D01*
X215265000Y-85725000D02*
X215265000Y-86360000D01*
X212725000Y-83185000D02*
X215265000Y-85725000D01*
X215900000Y-86995000D02*
X218440000Y-86995000D01*
X215265000Y-86360000D02*
X215900000Y-86995000D01*
X211455000Y-82550000D02*
X212090000Y-82550000D01*
X212090000Y-82550000D02*
X212725000Y-83185000D01*
X210185000Y-83820000D02*
X211455000Y-82550000D01*
X208280000Y-83820000D02*
X210185000Y-83820000D01*
X230505000Y-86995000D02*
X231775000Y-88265000D01*
X216535000Y-62865000D02*
X213360000Y-62865000D01*
X182880000Y-75565000D02*
X184150000Y-75565000D01*
X182245000Y-74930000D02*
X182880000Y-75565000D01*
X182245000Y-64770000D02*
X182245000Y-74930000D01*
X182880000Y-64135000D02*
X182245000Y-64770000D01*
X212090000Y-64135000D02*
X182880000Y-64135000D01*
X213360000Y-62865000D02*
X212090000Y-64135000D01*
X213360000Y-90170000D02*
X213360000Y-90170000D01*
X210185000Y-90170000D02*
X213360000Y-90170000D01*
X185420000Y-87630000D02*
X185420000Y-84455000D01*
X184150000Y-83185000D02*
X185420000Y-84455000D01*
X185420000Y-88265000D02*
X185420000Y-87630000D01*
X210185000Y-90170000D02*
X186055000Y-90170000D01*
X186055000Y-90170000D02*
X185420000Y-89535000D01*
X185420000Y-89535000D02*
X185420000Y-88265000D01*
X220980000Y-67945000D02*
X231775000Y-67945000D01*
X220980000Y-67945000D02*
X220345000Y-68580000D01*
X213995000Y-89535000D02*
X209550000Y-89535000D01*
X209550000Y-89535000D02*
X186690000Y-89535000D01*
X185420000Y-81280000D02*
X184785000Y-80645000D01*
X186055000Y-86995000D02*
X186055000Y-83820000D01*
X186055000Y-83820000D02*
X185420000Y-83185000D01*
X185420000Y-83185000D02*
X185420000Y-81280000D01*
X186055000Y-87630000D02*
X186055000Y-86995000D01*
X186690000Y-89535000D02*
X186055000Y-88900000D01*
X186055000Y-88900000D02*
X186055000Y-87630000D01*
X219710000Y-66040000D02*
X220345000Y-65405000D01*
X219710000Y-67945000D02*
X219710000Y-66040000D01*
X231775000Y-65405000D02*
X220345000Y-65405000D01*
X184785000Y-80645000D02*
X184150000Y-80645000D01*
X210185000Y-88900000D02*
X208915000Y-88900000D01*
X210820000Y-88265000D02*
X210185000Y-88900000D01*
X210820000Y-87630000D02*
X210820000Y-88265000D01*
X211455000Y-86995000D02*
X210820000Y-87630000D01*
X213360000Y-86995000D02*
X211455000Y-86995000D01*
X213995000Y-86360000D02*
X213360000Y-86995000D01*
X186690000Y-88265000D02*
X186690000Y-86995000D01*
X186055000Y-80645000D02*
X185420000Y-80010000D01*
X186690000Y-86360000D02*
X186690000Y-83185000D01*
X186690000Y-83185000D02*
X186055000Y-82550000D01*
X186055000Y-82550000D02*
X186055000Y-80645000D01*
X185420000Y-78740000D02*
X184785000Y-78105000D01*
X185420000Y-80010000D02*
X185420000Y-78740000D01*
X186690000Y-86995000D02*
X186690000Y-86360000D01*
X208915000Y-88900000D02*
X187325000Y-88900000D01*
X187325000Y-88900000D02*
X186690000Y-88265000D01*
X219075000Y-63500000D02*
X219710000Y-62865000D01*
X219075000Y-68580000D02*
X219075000Y-63500000D01*
X231775000Y-62865000D02*
X219710000Y-62865000D01*
X184785000Y-78105000D02*
X184150000Y-78105000D01*
X167005000Y-127635000D02*
X167005000Y-129540000D01*
X168910000Y-111760000D02*
X169545000Y-111760000D01*
X169545000Y-111760000D02*
X170180000Y-112395000D01*
X167005000Y-118745000D02*
X167005000Y-127635000D01*
X167640000Y-118110000D02*
X167005000Y-118745000D01*
X169545000Y-118110000D02*
X167640000Y-118110000D01*
X170180000Y-117475000D02*
X169545000Y-118110000D01*
X170180000Y-112395000D02*
X170180000Y-117475000D01*
X168910000Y-111760000D02*
X168910000Y-107315000D01*
X165100000Y-129540000D02*
X167005000Y-129540000D01*
X167005000Y-129540000D02*
X168910000Y-129540000D01*
X165100000Y-119380000D02*
X165735000Y-119380000D01*
X165735000Y-119380000D02*
X166370000Y-118745000D01*
X167085000Y-116760000D02*
X168910000Y-116760000D01*
X166370000Y-117475000D02*
X167085000Y-116760000D01*
X166370000Y-118745000D02*
X166370000Y-117475000D01*
X146050000Y-116840000D02*
X144780000Y-116840000D01*
X144780000Y-116205000D02*
X144780000Y-116840000D01*
X144780000Y-110490000D02*
X144780000Y-116205000D01*
X145415000Y-100330000D02*
X144780000Y-100965000D01*
X144780000Y-100965000D02*
X144780000Y-108585000D01*
X144780000Y-116840000D02*
X144780000Y-118110000D01*
X144780000Y-126365000D02*
X144780000Y-118110000D01*
X145415000Y-127000000D02*
X144780000Y-126365000D01*
X145415000Y-116840000D02*
X146050000Y-116840000D01*
X146050000Y-100330000D02*
X145415000Y-100330000D01*
X146050000Y-116840000D02*
X147955000Y-116840000D01*
X147955000Y-116840000D02*
X149225000Y-118110000D01*
X146050000Y-127000000D02*
X145415000Y-127000000D01*
X165100000Y-119380000D02*
X164465000Y-119380000D01*
X164465000Y-119380000D02*
X163195000Y-118110000D01*
X163195000Y-118110000D02*
X149225000Y-118110000D01*
X231775000Y-118745000D02*
X230505000Y-118745000D01*
X227965000Y-121285000D02*
X226695000Y-121285000D01*
X230505000Y-118745000D02*
X227965000Y-121285000D01*
M02*
